SplineFontDB: 3.0
FontName: CantataOne-Regular
FullName: Cantata One
FamilyName: Cantata One
Weight: Book
Copyright: Copyright (c) 2012, Sorkin Type Co (www.sorkintype.com), with Reserved Font Name "Cantata"
Version: 1.003
ItalicAngle: 0
UnderlinePosition: -115
UnderlineWidth: 90
Ascent: 1638
Descent: 410
LayerCount: 2
Layer: 0 1 "Back"  1
Layer: 1 1 "Fore"  0
XUID: [1021 631 1661839179 11111510]
FSType: 0
OS2Version: 3
OS2_WeightWidthSlopeOnly: 0
OS2_UseTypoMetrics: 1
CreationTime: 1330071660
ModificationTime: 1330054553
PfmFamily: 17
TTFWeight: 400
TTFWidth: 5
LineGap: 0
VLineGap: 0
Panose: 2 6 5 3 7 7 0 6 7 4
OS2TypoAscent: 362
OS2TypoAOffset: 1
OS2TypoDescent: -150
OS2TypoDOffset: 1
OS2TypoLinegap: 0
OS2WinAscent: 0
OS2WinAOffset: 1
OS2WinDescent: 0
OS2WinDOffset: 1
HheadAscent: 0
HheadAOffset: 1
HheadDescent: 0
HheadDOffset: 1
OS2SubXSize: 1434
OS2SubYSize: 1331
OS2SubXOff: 0
OS2SubYOff: 287
OS2SupXSize: 1434
OS2SupYSize: 1331
OS2SupXOff: 0
OS2SupYOff: 977
OS2StrikeYSize: 90
OS2StrikeYPos: 500
OS2Vendor: 'STC '
OS2CodePages: 20000093.00000000
OS2UnicodeRanges: a00000af.5000204a.00000000.00000000
DEI: 91125
TtTable: prep
PUSHW_1
 511
SCANCTRL
PUSHB_1
 4
SVTCA[y-axis]
EndTTInstrs
ShortTable: maxp 16
  1
  0
  426
  124
  7
  144
  4
  1
  0
  0
  0
  0
  0
  0
  3
  1
EndShort

StartChar: e
Encoding: 101 101 4
Width: 1194
Flags: HW
LayerCount: 2
Fore
SplineSet
688 75 m 0,0,1
 870 75 870 75 1018 223 c 1,2,-1
 1071 175 l 1,3,4
 962.427 40.1057 962.427 40.1057 780.5 -5 c 0,5,6
 720 -20 720 -20 624 -20 c 128,-1,7
 528 -20 528 -20 424 20.5 c 128,-1,8
 320 61 320 61 247.5 132.5 c 0,9,10
 96 281.91 96 281.91 96 518 c 0,11,12
 96 747.375 96 747.375 249 894 c 0,13,14
 400.304 1039 400.304 1039 634 1039 c 0,15,16
 978.283 1039 978.283 1039 1067.5 751 c 0,17,18
 1096 659 1096 659 1096 544 c 1,19,-1
 372 544 l 1,20,-1
 372 514 l 2,21,22
 372 204.782 372 204.782 546.5 108 c 0,23,24
 606 75 606 75 688 75 c 0,0,1
827 626 m 1,25,26
 825 786 825 786 778 870.5 c 128,-1,27
 731 955 731 955 624 955 c 0,28,29
 407.303 955 407.303 955 377 626 c 1,30,-1
 827 626 l 1,25,26
EndSplineSet
EndChar

StartChar: s
Encoding: 115 115 5
Width: 1024
Flags: HW
LayerCount: 2
Fore
SplineSet
267 73 m 1,0,1
 234.542 51.3615 234.542 51.3615 231 0 c 1,2,-1
 135 0 l 1,3,-1
 139 301 l 1,4,-1
 231 301 l 1,5,6
 231 223.598 231 223.598 320.5 148.5 c 0,7,8
 423.589 62 423.589 62 577 62 c 0,9,10
 719.94 62 719.94 62 759.5 148 c 0,11,12
 771 173 771 173 771 200 c 0,13,14
 771 250 771 250 702.5 292 c 128,-1,15
 634 334 634 334 477.5 390 c 128,-1,16
 321 446 321 446 231 534.5 c 128,-1,17
 141 623 141 623 141 744 c 0,18,19
 141 878.252 141 878.252 257.5 961 c 0,20,21
 368.724 1040 368.724 1040 518.229 1040 c 128,-1,22
 667.733 1040 667.733 1040 759 966 c 1,23,24
 786.524 975.175 786.524 975.175 803 1009.5 c 0,25,26
 809 1022 809 1022 809 1039 c 1,27,-1
 885 1039 l 1,28,-1
 885 760 l 1,29,-1
 797 760 l 1,30,31
 780 854 780 854 706.5 906.5 c 128,-1,32
 633 959 633 959 520 959 c 0,33,34
 434.556 959 434.556 959 379 919 c 0,35,36
 328 882.28 328 882.28 328 826 c 256,37,38
 328 772.143 328 772.143 386.5 728.5 c 0,39,40
 450.51 680.747 450.51 680.747 563.255 641.373 c 128,-1,41
 676 602 676 602 739.5 571.5 c 128,-1,42
 803 541 803 541 849 501 c 0,43,44
 945 417.522 945 417.522 945 289 c 0,45,46
 945 98 945 98 735 13 c 0,47,48
 653.471 -20 653.471 -20 568 -20 c 0,49,50
 391 -20 391 -20 267 73 c 1,0,1
EndSplineSet
EndChar

StartChar: i
Encoding: 105 105 6
Width: 683
Flags: HW
LayerCount: 2
Fore
SplineSet
355 1227 m 256,0,1
 298.595 1227 298.595 1227 257 1267.5 c 0,2,3
 217 1306.45 217 1306.45 217 1350.72 c 128,-1,4
 217 1395 217 1395 227.5 1420 c 128,-1,5
 238 1445 238 1445 257 1464 c 0,6,7
 297 1504 297 1504 355 1504 c 256,8,9
 447.22 1504 447.22 1504 482.5 1420 c 0,10,11
 493 1395 493 1395 493 1365.5 c 128,-1,12
 493 1336 493 1336 482.5 1311 c 128,-1,13
 472 1286 472 1286 453.5 1267.5 c 0,14,15
 413 1227 413 1227 355 1227 c 256,0,1
61 78 m 1,16,-1
 223 78 l 1,17,-1
 223 945 l 1,18,-1
 75 945 l 1,19,-1
 75 1023 l 1,20,-1
 488 1023 l 1,21,-1
 488 78 l 1,22,-1
 650 78 l 1,23,-1
 650 0 l 1,24,-1
 61 0 l 1,25,-1
 61 78 l 1,16,-1
EndSplineSet
EndChar

StartChar: o
Encoding: 111 111 7
Width: 1194
Flags: HW
LayerCount: 2
Fore
SplineSet
72 513 m 0,0,1
 72 633 72 633 112.5 730 c 128,-1,2
 153 827 153 827 224 896 c 0,3,4
 372.174 1040 372.174 1040 597 1040 c 0,5,6
 826.913 1040 826.913 1040 973 896 c 0,7,8
 1122 749.129 1122 749.129 1122 515 c 0,9,10
 1122 275.568 1122 275.568 973.5 126 c 0,11,12
 828.543 -20 828.543 -20 597 -20 c 0,13,14
 370.543 -20 370.543 -20 223.5 126 c 0,15,16
 72 276.426 72 276.426 72 513 c 0,0,1
597 63 m 256,17,18
 798.564 63 798.564 63 833.5 337.5 c 0,19,20
 844 420 844 420 844 514.5 c 128,-1,21
 844 609 844 609 833.5 690 c 128,-1,22
 823 771 823 771 795.5 830 c 0,23,24
 736.771 956 736.771 956 597 956 c 256,25,26
 394.981 956 394.981 956 360.5 690 c 0,27,28
 350 609 350 609 350 514.5 c 128,-1,29
 350 420 350 420 360.5 337.5 c 128,-1,30
 371 255 371 255 398.5 194 c 0,31,32
 457.557 63 457.557 63 597 63 c 256,17,18
EndSplineSet
EndChar

StartChar: n
Encoding: 110 110 8
Width: 1365
Flags: HW
LayerCount: 2
Fore
SplineSet
774 945 m 0,0,1
 611.125 945 611.125 945 479 794 c 1,2,-1
 479 78 l 1,3,-1
 661 78 l 1,4,-1
 661 0 l 1,5,-1
 57 0 l 1,6,-1
 57 78 l 1,7,-1
 219 78 l 1,8,-1
 219 945 l 1,9,-1
 56 945 l 1,10,-1
 56 1023 l 1,11,-1
 479 1023 l 1,12,-1
 479 895 l 1,13,14
 628.833 1040 628.833 1040 822 1040 c 0,15,16
 955.078 1040 955.078 1040 1058.5 971.5 c 0,17,18
 1191 883.74 1191 883.74 1191 692 c 2,19,-1
 1191 78 l 1,20,-1
 1353 78 l 1,21,-1
 1353 0 l 1,22,-1
 749 0 l 1,23,-1
 749 78 l 1,24,-1
 931 78 l 1,25,-1
 931 712 l 2,26,27
 931 829 931 829 906.5 871 c 128,-1,28
 882 913 882 913 851.5 929 c 128,-1,29
 821 945 821 945 774 945 c 0,0,1
EndSplineSet
EndChar

StartChar: h
Encoding: 104 104 9
Width: 1363
Flags: HW
LayerCount: 2
Fore
SplineSet
55 78 m 1,0,-1
 217 78 l 1,1,-1
 217 1606 l 1,2,-1
 75 1606 l 1,3,-1
 75 1684 l 1,4,-1
 477 1684 l 1,5,-1
 477 899 l 1,6,7
 622.7 1040 622.7 1040 821 1040 c 0,8,9
 954.078 1040 954.078 1040 1057.5 971.5 c 0,10,11
 1190 883.74 1190 883.74 1190 692 c 2,12,-1
 1190 78 l 1,13,-1
 1352 78 l 1,14,-1
 1352 0 l 1,15,-1
 768 0 l 1,16,-1
 768 78 l 1,17,-1
 930 78 l 1,18,-1
 930 712 l 2,19,20
 930 829 930 829 905.5 871 c 128,-1,21
 881 913 881 913 850.5 929 c 128,-1,22
 820 945 820 945 757.5 945 c 128,-1,23
 695 945 695 945 617 907 c 128,-1,24
 539 869 539 869 477 793 c 1,25,-1
 477 78 l 1,26,-1
 639 78 l 1,27,-1
 639 0 l 1,28,-1
 55 0 l 1,29,-1
 55 78 l 1,0,-1
EndSplineSet
EndChar

StartChar: l
Encoding: 108 108 10
Width: 683
Flags: HW
LayerCount: 2
Fore
SplineSet
60 78 m 1,0,-1
 216 78 l 1,1,-1
 216 1605 l 1,2,-1
 83 1605 l 1,3,-1
 83 1684 l 1,4,-1
 481 1684 l 1,5,-1
 481 78 l 1,6,-1
 649 78 l 1,7,-1
 649 0 l 1,8,-1
 60 0 l 1,9,-1
 60 78 l 1,0,-1
EndSplineSet
EndChar

StartChar: k
Encoding: 107 107 11
Width: 1367
Flags: HW
LayerCount: 2
Fore
SplineSet
59 78 m 1,0,-1
 212 78 l 1,1,-1
 212 1606 l 1,2,-1
 79 1606 l 1,3,-1
 79 1684 l 1,4,-1
 472 1684 l 1,5,-1
 472 516 l 1,6,-1
 978 946 l 1,7,-1
 792 946 l 1,8,-1
 792 1023 l 1,9,-1
 1238 1023 l 1,10,-1
 1238 946 l 1,11,-1
 1107 946 l 1,12,-1
 796 686 l 1,13,-1
 1220 78 l 1,14,-1
 1347 78 l 1,15,-1
 1347 0 l 1,16,-1
 782 0 l 1,17,-1
 782 78 l 1,18,-1
 923 78 l 1,19,-1
 614 534 l 1,20,-1
 472 415 l 1,21,-1
 472 78 l 1,22,-1
 620 78 l 1,23,-1
 620 0 l 1,24,-1
 59 0 l 1,25,-1
 59 78 l 1,0,-1
EndSplineSet
EndChar

StartChar: c
Encoding: 99 99 12
Width: 1026
Flags: HW
LayerCount: 2
Fore
SplineSet
652 76 m 0,0,1
 834.377 76 834.377 76 946 192 c 1,2,-1
 998 144 l 1,3,4
 915.43 37.8392 915.43 37.8392 757 -4.5 c 0,5,6
 699 -20 699 -20 604.5 -20 c 128,-1,7
 510 -20 510 -20 407 16 c 128,-1,8
 304 52 304 52 228.5 121 c 0,9,10
 67 268.596 67 268.596 67 519 c 0,11,12
 67 758.173 67 758.173 228 902 c 0,13,14
 382.478 1040 382.478 1040 624 1040 c 0,15,16
 762.456 1040 762.456 1040 870.5 983.5 c 0,17,18
 997 917.349 997 917.349 997 805 c 0,19,20
 997 745 997 745 958 706 c 0,21,22
 921 669 921 669 878.5 669 c 128,-1,23
 836 669 836 669 812 677.5 c 128,-1,24
 788 686 788 686 769.5 701.5 c 0,25,26
 729 735.432 729 735.432 729 791 c 0,27,28
 729 881.759 729 881.759 802 917 c 1,29,30
 728.4 963 728.4 963 631 963 c 0,31,32
 343 963 343 963 343 514 c 0,33,34
 343 198 343 198 517 106.5 c 0,35,36
 575 76 575 76 652 76 c 0,0,1
EndSplineSet
EndChar

StartChar: m
Encoding: 109 109 13
Width: 2042
Flags: HW
LayerCount: 2
Fore
SplineSet
752 944 m 0,0,1
 598.45 944 598.45 944 482 807 c 1,2,-1
 482 78 l 1,3,-1
 645 78 l 1,4,-1
 645 0 l 1,5,-1
 60 0 l 1,6,-1
 60 78 l 1,7,-1
 222 78 l 1,8,-1
 222 947 l 1,9,-1
 59 947 l 1,10,-1
 59 1023 l 1,11,-1
 482 1023 l 1,12,-1
 482 909 l 1,13,14
 624.696 1040 624.696 1040 806 1040 c 0,15,16
 958.212 1040 958.212 1040 1063 949 c 0,17,18
 1101 916 1101 916 1126 867 c 1,19,20
 1283.74 1040 1283.74 1040 1485 1040 c 0,21,22
 1618.08 1040 1618.08 1040 1721.5 971.5 c 0,23,24
 1854 883.74 1854 883.74 1854 692 c 2,25,-1
 1854 78 l 1,26,-1
 2017 78 l 1,27,-1
 2017 0 l 1,28,-1
 1422 0 l 1,29,-1
 1422 78 l 1,30,-1
 1594 78 l 1,31,-1
 1594 722 l 2,32,33
 1594 831.487 1594 831.487 1568 872.243 c 128,-1,34
 1542 913 1542 913 1511.5 928.5 c 128,-1,35
 1481 944 1481 944 1436.5 944 c 128,-1,36
 1392 944 1392 944 1351 932 c 128,-1,37
 1310 920 1310 920 1274 898.5 c 0,38,39
 1203.06 856.132 1203.06 856.132 1155 783 c 1,40,41
 1162 741 1162 741 1162 706 c 2,42,-1
 1162 78 l 1,43,-1
 1325 78 l 1,44,-1
 1325 0 l 1,45,-1
 740 0 l 1,46,-1
 740 78 l 1,47,-1
 902 78 l 1,48,-1
 902 729 l 2,49,50
 902 833.545 902 833.545 879 873.273 c 128,-1,51
 856 913 856 913 826.5 928.5 c 128,-1,52
 797 944 797 944 752 944 c 0,0,1
EndSplineSet
EndChar

StartChar: j
Encoding: 106 106 14
Width: 683
Flags: HW
LayerCount: 2
Fore
SplineSet
368 1227 m 256,0,1
 311.595 1227 311.595 1227 270 1267.5 c 0,2,3
 230 1306.45 230 1306.45 230 1350.72 c 128,-1,4
 230 1395 230 1395 240.5 1420 c 128,-1,5
 251 1445 251 1445 270 1464 c 0,6,7
 310 1504 310 1504 368 1504 c 256,8,9
 460.22 1504 460.22 1504 495.5 1420 c 0,10,11
 506 1395 506 1395 506 1365.5 c 128,-1,12
 506 1336 506 1336 495.5 1311 c 128,-1,13
 485 1286 485 1286 466.5 1267.5 c 0,14,15
 426 1227 426 1227 368 1227 c 256,0,1
233 945 m 1,16,-1
 86 945 l 1,17,-1
 86 1023 l 1,18,-1
 498 1023 l 1,19,-1
 498 -45 l 2,20,21
 498 -409.913 498 -409.913 276 -518.5 c 0,22,23
 191.156 -560 191.156 -560 83 -560 c 1,24,-1
 63 -484 l 1,25,26
 119 -484 119 -484 152.5 -458.5 c 128,-1,27
 186 -433 186 -433 204 -375.5 c 0,28,29
 233 -282.861 233 -282.861 233 7 c 2,30,-1
 233 945 l 1,16,-1
EndSplineSet
EndChar

StartChar: z
Encoding: 122 122 15
Width: 1024
Flags: HW
LayerCount: 2
Fore
SplineSet
86 78 m 1,0,-1
 662 947 l 1,1,-1
 421 947 l 2,2,3
 295.077 947 295.077 947 239 879.5 c 0,4,5
 194.377 825.787 194.377 825.787 172 696 c 1,6,-1
 101 696 l 1,7,-1
 101 1023 l 1,8,-1
 944 1023 l 1,9,-1
 944 946 l 1,10,-1
 374 76 l 1,11,-1
 653 76 l 2,12,13
 795.308 76 795.308 76 848 144.5 c 0,14,15
 884.584 192.059 884.584 192.059 899 317 c 1,16,-1
 968 317 l 1,17,-1
 968 0 l 1,18,-1
 86 0 l 1,19,-1
 86 78 l 1,0,-1
EndSplineSet
EndChar

StartChar: f
Encoding: 102 102 16
Width: 855
Flags: HW
LayerCount: 2
Fore
SplineSet
125 78 m 1,0,-1
 287 78 l 1,1,-1
 287 945 l 1,2,-1
 125 945 l 1,3,-1
 125 1023 l 1,4,-1
 287 1023 l 1,5,-1
 287 1276 l 2,6,7
 287 1483.74 287 1483.74 394.5 1595.5 c 0,8,9
 495.019 1700 495.019 1700 668 1700 c 0,10,11
 802.515 1700 802.515 1700 887.5 1629 c 0,12,13
 970 1560.08 970 1560.08 970 1457 c 0,14,15
 970 1367.96 970 1367.96 889 1334.5 c 0,16,17
 866 1325 866 1325 842 1325 c 256,18,19
 792.133 1325 792.133 1325 766.067 1348 c 0,20,21
 720 1388.65 720 1388.65 720 1429.32 c 128,-1,22
 720 1470 720 1470 729.5 1491.5 c 128,-1,23
 739 1513 739 1513 754 1528 c 0,24,25
 782.062 1556.06 782.062 1556.06 826 1563 c 1,26,27
 815 1587 815 1587 778.5 1604 c 128,-1,28
 742 1621 742 1621 696.5 1621 c 128,-1,29
 651 1621 651 1621 622.5 1601.5 c 128,-1,30
 594 1582 594 1582 577.5 1544 c 0,31,32
 548 1476.06 548 1476.06 548 1325 c 2,33,-1
 548 1023 l 1,34,-1
 752 1023 l 1,35,-1
 752 945 l 1,36,-1
 547 945 l 1,37,-1
 547 78 l 1,38,-1
 757 78 l 1,39,-1
 757 0 l 1,40,-1
 125 0 l 1,41,-1
 125 78 l 1,0,-1
EndSplineSet
EndChar

StartChar: p
Encoding: 112 112 17
Width: 1365
Flags: HW
LayerCount: 2
Fore
SplineSet
470 -482 m 1,0,-1
 651 -482 l 1,1,-1
 651 -560 l 1,2,-1
 60 -560 l 1,3,-1
 60 -482 l 1,4,-1
 210 -482 l 1,5,-1
 210 943 l 1,6,-1
 50 943 l 1,7,-1
 50 1023 l 1,8,-1
 470 1023 l 1,9,-1
 470 914 l 1,10,11
 548.609 999.755 548.609 999.755 694.5 1029.5 c 0,12,13
 746 1040 746 1040 824.5 1040 c 128,-1,14
 903 1040 903 1040 988.5 1009.5 c 128,-1,15
 1074 979 1074 979 1138.5 914 c 0,16,17
 1278 773.419 1278 773.419 1278 507 c 0,18,19
 1278 267.409 1278 267.409 1128.5 119 c 0,20,21
 988.478 -20 988.478 -20 779 -20 c 0,22,23
 645.235 -20 645.235 -20 532 35 c 0,24,25
 497 52 497 52 470 73 c 1,26,-1
 470 -482 l 1,0,-1
737 66 m 0,27,28
 998 66 998 66 998 506 c 0,29,30
 998 833.414 998 833.414 857 918.5 c 0,31,32
 808.114 948 808.114 948 732.057 947 c 128,-1,33
 656 946 656 946 585.5 908 c 128,-1,34
 515 870 515 870 470 802 c 1,35,-1
 470 171 l 1,36,37
 543.354 94.825 543.354 94.825 667 72.5 c 0,38,39
 703 66 703 66 737 66 c 0,27,28
EndSplineSet
EndChar

StartChar: q
Encoding: 113 113 18
Width: 1365
Flags: HW
LayerCount: 2
Fore
SplineSet
141.5 271.5 m 128,-1,1
 104 372 104 372 104 504.5 c 128,-1,2
 104 637 104 637 144.5 735 c 128,-1,3
 185 833 185 833 253.5 901 c 0,4,5
 393.522 1040 393.522 1040 603 1040 c 0,6,7
 734.735 1040 734.735 1040 847.5 986 c 0,8,9
 883 969 883 969 910 948 c 1,10,-1
 910 1023 l 1,11,-1
 1318 1023 l 1,12,-1
 1318 945 l 1,13,-1
 1170 945 l 1,14,-1
 1170 -482 l 1,15,-1
 1320 -482 l 1,16,-1
 1320 -560 l 1,17,-1
 729 -560 l 1,18,-1
 729 -482 l 1,19,-1
 910 -482 l 1,20,-1
 910 104 l 1,21,22
 829.798 20.3114 829.798 20.3114 685 -9.5 c 0,23,24
 634 -20 634 -20 556.5 -20 c 128,-1,25
 479 -20 479 -20 393.5 10.5 c 128,-1,26
 308 41 308 41 243.5 106 c 128,-1,0
 179 171 179 171 141.5 271.5 c 128,-1,1
645 954 m 0,27,28
 384 954 384 954 384 514 c 0,29,30
 384 186.586 384 186.586 525 101.5 c 0,31,32
 573.886 72 573.886 72 649.443 72.5 c 128,-1,33
 725 73 725 73 794.5 111 c 128,-1,34
 864 149 864 149 910 215 c 1,35,-1
 910 851 l 1,36,37
 835.424 925.576 835.424 925.576 714 947.5 c 0,38,39
 678 954 678 954 645 954 c 0,27,28
EndSplineSet
EndChar

StartChar: r
Encoding: 114 114 19
Width: 1024
Flags: HW
LayerCount: 2
Fore
SplineSet
739 938 m 1,0,1
 594.118 894.018 594.118 894.018 498 789 c 1,2,-1
 498 77 l 1,3,-1
 717 77 l 1,4,-1
 717 0 l 1,5,-1
 87 0 l 1,6,-1
 87 77 l 1,7,-1
 236 77 l 1,8,-1
 236 945 l 1,9,-1
 86 945 l 1,10,-1
 86 1023 l 1,11,-1
 498 1023 l 1,12,-1
 498 885 l 1,13,14
 604.615 988.176 604.615 988.176 740.5 1027 c 0,15,16
 786 1040 786 1040 846 1040 c 128,-1,17
 906 1040 906 1040 952 1000 c 128,-1,18
 998 960 998 960 998 891 c 0,19,20
 998 835 998 835 959 796 c 128,-1,21
 920 757 920 757 864 757 c 256,22,23
 808 757 808 757 769 796 c 0,24,25
 731 834 731 834 731 891 c 0,26,27
 731 914 731 914 739 938 c 1,0,1
EndSplineSet
EndChar

StartChar: u
Encoding: 117 117 20
Width: 1366
Flags: HW
LayerCount: 2
Fore
SplineSet
888 98 m 1,0,1
 754.704 -20 754.704 -20 584 -20 c 0,2,3
 446.143 -20 446.143 -20 339 42.5 c 0,4,5
 191 128.833 191 128.833 191 333 c 2,6,-1
 191 945 l 1,7,-1
 59 945 l 1,8,-1
 59 1023 l 1,9,-1
 451 1023 l 1,10,-1
 451 287 l 2,11,12
 451 76 451 76 646 76 c 0,13,14
 780.814 76 780.814 76 888 200 c 1,15,-1
 888 945 l 1,16,-1
 715 945 l 1,17,-1
 715 1023 l 1,18,-1
 1146 1023 l 1,19,-1
 1146 78 l 1,20,-1
 1275 78 l 1,21,-1
 1275 0 l 1,22,-1
 888 0 l 1,23,-1
 888 98 l 1,0,1
EndSplineSet
EndChar

StartChar: t
Encoding: 116 116 21
Width: 853
Flags: HW
LayerCount: 2
Fore
SplineSet
535 -20 m 0,0,1
 178 -20 178 -20 178 312 c 2,2,-1
 178 945 l 1,3,-1
 57 945 l 1,4,-1
 57 1023 l 1,5,-1
 178 1023 l 1,6,-1
 178 1329 l 1,7,8
 269.182 1329 269.182 1329 399.5 1376 c 0,9,10
 430 1387 430 1387 443 1395 c 1,11,-1
 443 1023 l 1,12,-1
 772 1023 l 1,13,-1
 772 945 l 1,14,-1
 443 945 l 1,15,-1
 443 240 l 2,16,17
 443 148 443 148 481.5 107.5 c 128,-1,18
 520 67 520 67 584 67 c 0,19,20
 684 67 684 67 764 156 c 1,21,-1
 817 109 l 1,22,23
 744.601 20.1465 744.601 20.1465 621 -10 c 0,24,25
 580 -20 580 -20 535 -20 c 0,0,1
EndSplineSet
EndChar

StartChar: g
Encoding: 103 103 22
Width: 1194
Flags: HW
LayerCount: 2
Fore
SplineSet
256 215 m 0,0,1
 256 130 256 130 406 130 c 2,2,-1
 701 130 l 2,3,4
 1016.86 130 1016.86 130 1121.5 -21 c 0,5,6
 1161 -78 1161 -78 1161 -174 c 128,-1,7
 1161 -270 1161 -270 1115 -344.5 c 128,-1,8
 1069 -419 1069 -419 991.5 -467 c 0,9,10
 841.344 -560 841.344 -560 596 -560 c 0,11,12
 262.43 -560 262.43 -560 141.5 -421 c 0,13,14
 98 -371 98 -371 98 -314.5 c 128,-1,15
 98 -258 98 -258 114.5 -221.5 c 128,-1,16
 131 -185 131 -185 159.5 -154.5 c 0,17,18
 218.036 -91.8563 218.036 -91.8563 311 -65 c 1,19,20
 230.206 -51.2059 230.206 -51.2059 176 3 c 0,21,22
 122 57 122 57 122 112 c 128,-1,23
 122 167 122 167 136.5 205 c 128,-1,24
 151 243 151 243 175 274 c 0,25,26
 220.971 333.379 220.971 333.379 294 371 c 1,27,28
 144 477.522 144 477.522 144 655 c 0,29,30
 144 821.122 144 821.122 276.5 931 c 0,31,32
 406.735 1039 406.735 1039 579.493 1039 c 128,-1,33
 752.25 1039 752.25 1039 871 964 c 1,34,35
 928 974 928 974 961 1001 c 1,36,37
 897 1037.57 897 1037.57 897 1106 c 0,38,39
 897 1154.94 897 1154.94 923 1182.47 c 0,40,41
 969.778 1232 969.778 1232 1024 1232 c 0,42,43
 1074.41 1232 1074.41 1232 1100.7 1206.5 c 0,44,45
 1147 1161.61 1147 1161.61 1147 1111 c 0,46,47
 1147 1035.52 1147 1035.52 1069.5 972 c 0,48,49
 1010.08 923.292 1010.08 923.292 941 909 c 1,50,51
 1052 800.135 1052 800.135 1052 654 c 0,52,53
 1052 492.448 1052 492.448 917.5 387 c 0,54,55
 787.398 285 787.398 285 593 285 c 0,56,57
 464 285 464 285 362 332 c 1,58,59
 256 286.571 256 286.571 256 215 c 0,0,1
592 368 m 0,60,61
 808 368 808 368 808 662 c 128,-1,62
 808 956 808 956 597 956 c 0,63,64
 429.282 956 429.282 956 397.5 772 c 0,65,66
 388 717 388 717 388 655 c 256,67,68
 388 445.291 388 445.291 490.5 389.5 c 0,69,70
 530 368 530 368 592 368 c 0,60,61
303 -262 m 0,71,72
 303 -477 303 -477 646 -477 c 0,73,74
 799.4 -477 799.4 -477 889 -413 c 0,75,76
 975 -351.571 975 -351.571 975 -253 c 0,77,78
 975 -133.223 975 -133.223 843 -92.5 c 0,79,80
 796 -78 796 -78 727 -78 c 2,81,-1
 446 -78 l 1,82,83
 381.059 -95.1902 381.059 -95.1902 340.5 -150 c 0,84,85
 303 -200.676 303 -200.676 303 -262 c 0,71,72
EndSplineSet
EndChar

StartChar: a
Encoding: 97 97 23
Width: 1195
Flags: HW
LayerCount: 2
Fore
SplineSet
1002 161 m 2,0,1
 1002 78 1002 78 1042.77 78 c 128,-1,2
 1083.54 78 1083.54 78 1122 128 c 1,3,-1
 1174 85 l 1,4,5
 1126.81 14.2162 1126.81 14.2162 1036 -10 c 0,6,7
 1006 -18 1006 -18 952 -18 c 128,-1,8
 898 -18 898 -18 842.5 16 c 128,-1,9
 787 50 787 50 765 113 c 1,10,11
 688.076 25.087 688.076 25.087 564 -8 c 0,12,13
 519 -20 519 -20 453.5 -20 c 128,-1,14
 388 -20 388 -20 319.5 1 c 128,-1,15
 251 22 251 22 200.5 61 c 0,16,17
 92 144.792 92 144.792 92 282 c 0,18,19
 92 411.66 92 411.66 200 490.5 c 0,20,21
 302.055 565 302.055 565 467.299 565 c 128,-1,22
 632.543 565 632.543 565 744 482 c 1,23,-1
 744 720 l 2,24,25
 744 841.091 744 841.091 714 884.045 c 128,-1,26
 684 927 684 927 643.5 944 c 128,-1,27
 603 961 603 961 553.5 961 c 128,-1,28
 504 961 504 961 474 955.5 c 128,-1,29
 444 950 444 950 419.5 942 c 0,30,31
 371.242 926.242 371.242 926.242 353 908 c 1,32,33
 398.752 894.274 398.752 894.274 423.5 837.5 c 0,34,35
 432 818 432 818 432 790.5 c 128,-1,36
 432 763 432 763 421 739 c 128,-1,37
 410 715 410 715 391 697.5 c 0,38,39
 352.457 662 352.457 662 312.229 662 c 128,-1,40
 272 662 272 662 247.5 671 c 128,-1,41
 223 680 223 680 204.5 697.5 c 0,42,43
 164 735.811 164 735.811 164 787.905 c 128,-1,44
 164 840 164 840 183 873.5 c 128,-1,45
 202 907 202 907 233.5 933.5 c 128,-1,46
 265 960 265 960 306 980 c 128,-1,47
 347 1000 347 1000 391.5 1013 c 0,48,49
 480.5 1039 480.5 1039 561 1039 c 0,50,51
 786 1039 786 1039 894 948 c 128,-1,52
 1002 857 1002 857 1002 694 c 2,53,-1
 1002 161 l 2,0,1
747 393 m 1,54,55
 661.757 476 661.757 476 560.878 476 c 128,-1,56
 460 476 460 476 409 428.5 c 128,-1,57
 358 381 358 381 358 276 c 0,58,59
 358 120.903 358 120.903 467 87.5 c 0,60,61
 498 78 498 78 530 78 c 256,62,63
 621.463 78 621.463 78 704 148.5 c 0,64,65
 728 169 728 169 747 193 c 1,66,-1
 747 393 l 1,54,55
EndSplineSet
EndChar

StartChar: b
Encoding: 98 98 24
Width: 1365
Flags: HW
LayerCount: 2
Fore
SplineSet
61 78 m 1,0,-1
 211 78 l 1,1,-1
 211 1604 l 1,2,-1
 81 1604 l 1,3,-1
 81 1684 l 1,4,-1
 471 1684 l 1,5,-1
 471 897 l 1,6,7
 552.422 993.227 552.422 993.227 695 1027.5 c 0,8,9
 747 1040 747 1040 825.5 1040 c 128,-1,10
 904 1040 904 1040 989.5 1009.5 c 128,-1,11
 1075 979 1075 979 1139.5 914 c 0,12,13
 1279 773.419 1279 773.419 1279 507 c 0,14,15
 1279 267.409 1279 267.409 1129.5 119 c 0,16,17
 989.478 -20 989.478 -20 780 -20 c 0,18,19
 645.368 -20 645.368 -20 533 41 c 0,20,21
 498 60 498 60 471 83 c 1,22,-1
 471 0 l 1,23,-1
 61 0 l 1,24,-1
 61 78 l 1,0,-1
738 66 m 0,25,26
 999 66 999 66 999 506 c 0,27,28
 999 833.414 999 833.414 858 918.5 c 0,29,30
 809.114 948 809.114 948 733.057 947 c 128,-1,31
 657 946 657 946 586.5 904 c 128,-1,32
 516 862 516 862 471 793 c 1,33,-1
 471 174 l 1,34,35
 564.103 66 564.103 66 738 66 c 0,25,26
EndSplineSet
EndChar

StartChar: d
Encoding: 100 100 25
Width: 1365
Flags: HW
LayerCount: 2
Fore
SplineSet
156.5 271.5 m 128,-1,1
 119 372 119 372 119 504.5 c 128,-1,2
 119 637 119 637 159.5 735 c 128,-1,3
 200 833 200 833 268.5 901 c 0,4,5
 408.522 1040 408.522 1040 618 1040 c 0,6,7
 749.735 1040 749.735 1040 862.5 986 c 0,8,9
 898 969 898 969 925 948 c 1,10,-1
 925 1606 l 1,11,-1
 718 1606 l 1,12,-1
 718 1684 l 1,13,-1
 1185 1684 l 1,14,-1
 1185 78 l 1,15,-1
 1333 78 l 1,16,-1
 1333 0 l 1,17,-1
 925 0 l 1,18,-1
 925 104 l 1,19,20
 844.798 20.3114 844.798 20.3114 700 -9.5 c 0,21,22
 649 -20 649 -20 571.5 -20 c 128,-1,23
 494 -20 494 -20 408.5 10.5 c 128,-1,24
 323 41 323 41 258.5 106 c 128,-1,0
 194 171 194 171 156.5 271.5 c 128,-1,1
660 954 m 0,25,26
 399 954 399 954 399 514 c 0,27,28
 399 186.586 399 186.586 540 101.5 c 0,29,30
 588.886 72 588.886 72 659 72 c 0,31,32
 828.183 74.0887 828.183 74.0887 925 213 c 1,33,-1
 925 849 l 1,34,35
 851.436 925.393 851.436 925.393 729 947.5 c 0,36,37
 693 954 693 954 660 954 c 0,25,26
EndSplineSet
EndChar

StartChar: v
Encoding: 118 118 26
Width: 1195
Flags: HW
LayerCount: 2
Fore
SplineSet
110 945 m 1,0,-1
 -1 945 l 1,1,-1
 -1 1023 l 1,2,-1
 526 1023 l 1,3,-1
 526 945 l 1,4,-1
 404 945 l 1,5,-1
 704 258 l 1,6,-1
 974 945 l 1,7,-1
 832 945 l 1,8,-1
 832 1023 l 1,9,-1
 1196 1023 l 1,10,-1
 1196 945 l 1,11,-1
 1073 945 l 1,12,-1
 677 -20 l 1,13,-1
 572 -20 l 1,14,-1
 110 945 l 1,0,-1
EndSplineSet
EndChar

StartChar: y
Encoding: 121 121 27
Width: 1195
Flags: HW
LayerCount: 2
Fore
SplineSet
144.5 -283.5 m 128,-1,1
 169 -273 169 -273 215.5 -273 c 128,-1,2
 262 -273 262 -273 295.5 -308.5 c 128,-1,3
 329 -344 329 -344 329 -380.5 c 0,4,5
 329 -427.625 329 -427.625 304 -462 c 1,6,7
 342 -456 342 -456 381 -403.5 c 128,-1,8
 420 -351 420 -351 473 -242 c 1,9,-1
 565 -20 l 1,10,-1
 103 945 l 1,11,-1
 -4 945 l 1,12,-1
 -4 1023 l 1,13,-1
 535 1023 l 1,14,-1
 535 945 l 1,15,-1
 396 945 l 1,16,-1
 698 259 l 1,17,-1
 968 945 l 1,18,-1
 793 945 l 1,19,-1
 793 1023 l 1,20,-1
 1168 1023 l 1,21,-1
 1168 945 l 1,22,-1
 1066 945 l 1,23,-1
 670 -20 l 1,24,-1
 549 -292 l 1,25,26
 478.324 -433.351 478.324 -433.351 428.662 -480.176 c 128,-1,27
 379 -527 379 -527 339 -543.5 c 128,-1,28
 299 -560 299 -560 256.5 -560 c 128,-1,29
 214 -560 214 -560 181 -549 c 128,-1,30
 148 -538 148 -538 122.5 -517 c 0,31,32
 67 -471.294 67 -471.294 67 -402 c 0,33,34
 67 -348.559 67 -348.559 93.5 -321.279 c 128,-1,0
 120 -294 120 -294 144.5 -283.5 c 128,-1,1
EndSplineSet
EndChar

StartChar: w
Encoding: 119 119 28
Width: 1706
Flags: HW
LayerCount: 2
Fore
SplineSet
72 945 m 1,0,-1
 -21 945 l 1,1,-1
 -21 1023 l 1,2,-1
 451 1023 l 1,3,-1
 451 945 l 1,4,-1
 355 945 l 1,5,-1
 631 317 l 1,6,-1
 909 1023 l 1,7,-1
 979 1023 l 1,8,-1
 1304 316 l 1,9,-1
 1542 945 l 1,10,-1
 1382 945 l 1,11,-1
 1382 1023 l 1,12,-1
 1728 1023 l 1,13,-1
 1728 945 l 1,14,-1
 1631 945 l 1,15,-1
 1266 -20 l 1,16,-1
 1186 -20 l 1,17,-1
 859 670 l 1,18,-1
 587 -20 l 1,19,-1
 508 -20 l 1,20,-1
 72 945 l 1,0,-1
EndSplineSet
EndChar

StartChar: x
Encoding: 120 120 29
Width: 1195
Flags: HW
LayerCount: 2
Fore
SplineSet
48 78 m 1,0,-1
 188 78 l 1,1,-1
 501 450 l 1,2,-1
 130 945 l 1,3,-1
 31 945 l 1,4,-1
 31 1023 l 1,5,-1
 565 1023 l 1,6,-1
 565 945 l 1,7,-1
 422 945 l 1,8,-1
 658 633 l 1,9,-1
 915 945 l 1,10,-1
 776 945 l 1,11,-1
 776 1023 l 1,12,-1
 1140 1023 l 1,13,-1
 1140 945 l 1,14,-1
 1026 945 l 1,15,-1
 709 566 l 1,16,-1
 1080 78 l 1,17,-1
 1181 78 l 1,18,-1
 1181 0 l 1,19,-1
 652 0 l 1,20,-1
 652 78 l 1,21,-1
 780 78 l 1,22,-1
 552 383 l 1,23,-1
 300 78 l 1,24,-1
 433 78 l 1,25,-1
 433 0 l 1,26,-1
 48 0 l 1,27,-1
 48 78 l 1,0,-1
EndSplineSet
EndChar

StartChar: two
Encoding: 50 50 30
Width: 1366
Flags: HW
LayerCount: 2
Fore
SplineSet
992 225 m 2,0,1
 1099.95 225 1099.95 225 1131 388 c 1,2,-1
 1205 388 l 1,3,-1
 1205 0 l 1,4,-1
 158 0 l 1,5,-1
 158 89 l 1,6,7
 496.039 331.109 496.039 331.109 676 564 c 0,8,9
 898 851.294 898 851.294 898 1146 c 0,10,11
 898 1404.55 898 1404.55 731.5 1455 c 0,12,13
 682 1470 682 1470 604 1470 c 128,-1,14
 526 1470 526 1470 455 1432.5 c 128,-1,15
 384 1395 384 1395 339 1330 c 1,16,17
 423.193 1321.29 423.193 1321.29 453.5 1237.5 c 0,18,19
 462 1214 462 1214 462 1187.5 c 128,-1,20
 462 1161 462 1161 450.5 1135 c 128,-1,21
 439 1109 439 1109 418.5 1090.5 c 0,22,23
 374.73 1051 374.73 1051 328.865 1051 c 128,-1,24
 283 1051 283 1051 255.5 1062 c 128,-1,25
 228 1073 228 1073 207.5 1093 c 0,26,27
 164 1135.44 164 1135.44 164 1204.72 c 128,-1,28
 164 1274 164 1274 205.5 1336 c 128,-1,29
 247 1398 247 1398 316.5 1445.5 c 0,30,31
 469.4 1550 469.4 1550 672 1550 c 0,32,33
 1031.16 1550 1031.16 1550 1144 1333 c 0,34,35
 1183 1258 1183 1258 1183 1158.5 c 128,-1,36
 1183 1059 1183 1059 1152 970 c 128,-1,37
 1121 881 1121 881 1067.5 798 c 128,-1,38
 1014 715 1014 715 942 637 c 128,-1,39
 870 559 870 559 789 487.5 c 128,-1,40
 708 416 708 416 622 350 c 1,41,-1
 453 225 l 1,42,-1
 992 225 l 2,0,1
EndSplineSet
EndChar

StartChar: A
Encoding: 65 65 31
Width: 1534
Flags: HW
LayerCount: 2
Fore
SplineSet
15 78 m 1,0,-1
 121 78 l 1,1,-1
 684 1530 l 1,2,-1
 800 1530 l 1,3,-1
 1404 78 l 1,4,-1
 1518 78 l 1,5,-1
 1518 0 l 1,6,-1
 953 0 l 1,7,-1
 953 78 l 1,8,-1
 1111 78 l 1,9,-1
 967 427 l 1,10,-1
 360 427 l 1,11,-1
 228 78 l 1,12,-1
 400 78 l 1,13,-1
 400 0 l 1,14,-1
 15 0 l 1,15,-1
 15 78 l 1,0,-1
935 505 m 1,16,-1
 650 1196 l 1,17,-1
 389 505 l 1,18,-1
 935 505 l 1,16,-1
EndSplineSet
EndChar

StartChar: B
Encoding: 66 66 32
Width: 1534
Flags: HW
LayerCount: 2
Fore
SplineSet
131 78 m 1,0,-1
 291 78 l 1,1,-1
 292 1452 l 1,2,-1
 131 1452 l 1,3,-1
 131 1530 l 1,4,-1
 885 1530 l 2,5,6
 1119.93 1530 1119.93 1530 1241 1416.5 c 0,7,8
 1349 1315.25 1349 1315.25 1349 1146 c 0,9,10
 1349 949.37 1349 949.37 1167 855 c 0,11,12
 1113 827 1113 827 1053 811 c 1,13,14
 1245.81 787.629 1245.81 787.629 1350.5 684 c 0,15,16
 1450 585.505 1450 585.505 1450 439 c 0,17,18
 1450 236.902 1450 236.902 1306.5 121.5 c 0,19,20
 1155.42 -2.78228e-05 1155.42 -2.78228e-05 881 0 c 2,21,-1
 131 0 l 1,22,-1
 131 78 l 1,0,-1
816 832 m 2,23,24
 1033.5 832 1033.5 832 1075.5 1018.5 c 0,25,26
 1088 1074 1088 1074 1088 1137.5 c 128,-1,27
 1088 1201 1088 1201 1079 1258 c 128,-1,28
 1070 1315 1070 1315 1039.5 1358 c 0,29,30
 972.826 1452 972.826 1452 789 1452 c 2,31,-1
 561 1452 l 1,32,-1
 561 832 l 1,33,-1
 816 832 l 2,23,24
803 78 m 2,34,35
 985 78 985 78 1081.5 165 c 128,-1,36
 1178 252 1178 252 1178 412 c 0,37,38
 1178 647.333 1178 647.333 990.5 726.5 c 0,39,40
 923 755 923 755 825 755 c 2,41,-1
 561 755 l 1,42,-1
 561 78 l 1,43,-1
 803 78 l 2,34,35
EndSplineSet
EndChar

StartChar: C
Encoding: 67 67 33
Width: 1534
Flags: HW
LayerCount: 2
Fore
SplineSet
882 78 m 0,0,1
 1244.97 78 1244.97 78 1390 317 c 1,2,-1
 1442 269 l 1,3,4
 1403.84 178.366 1403.84 178.366 1284 95 c 0,5,6
 1118.69 -20 1118.69 -20 870 -20 c 0,7,8
 517.36 -20 517.36 -20 303.5 204.5 c 0,9,10
 96 422.323 96 422.323 96 772 c 0,11,12
 96 1103.87 96 1103.87 299 1320.5 c 0,13,14
 514.056 1550 514.056 1550 888 1550 c 0,15,16
 1090.26 1550 1090.26 1550 1240 1468 c 0,17,18
 1282 1445 1282 1445 1307 1422 c 1,19,20
 1346.89 1468.93 1346.89 1468.93 1349 1530 c 1,21,-1
 1431 1530 l 1,22,-1
 1431 1111 l 1,23,-1
 1346 1111 l 1,24,25
 1317.32 1277.35 1317.32 1277.35 1182.5 1376 c 0,26,27
 1058.13 1467 1058.13 1467 906.067 1467 c 128,-1,28
 754 1467 754 1467 658.5 1411 c 128,-1,29
 563 1355 563 1355 506 1259 c 0,30,31
 401.784 1083.48 401.784 1083.48 404 760 c 1,32,33
 407.347 478.853 407.347 478.853 516 293 c 0,34,35
 641.692 78 641.692 78 882 78 c 0,0,1
EndSplineSet
EndChar

StartChar: one
Encoding: 49 49 34
Width: 1024
Flags: HW
LayerCount: 2
Fore
SplineSet
204 78 m 1,0,-1
 382 78 l 1,1,-1
 382 1446 l 1,2,-1
 210 1430 l 1,3,-1
 210 1507 l 1,4,-1
 648 1554 l 1,5,-1
 648 78 l 1,6,-1
 827 78 l 1,7,-1
 827 0 l 1,8,-1
 204 0 l 1,9,-1
 204 78 l 1,0,-1
EndSplineSet
EndChar

StartChar: three
Encoding: 51 51 35
Width: 1366
Flags: HW
LayerCount: 2
Fore
SplineSet
869 1185 m 0,0,1
 869 1467 869 1467 606 1467 c 0,2,3
 445 1467 445 1467 368 1390 c 1,4,5
 418.541 1378.34 418.541 1378.34 440.771 1348.17 c 0,6,7
 477 1299 477 1299 477 1261 c 128,-1,8
 477 1223 477 1223 466 1196 c 128,-1,9
 455 1169 455 1169 436 1149.5 c 0,10,11
 394.59 1107 394.59 1107 344.295 1107 c 128,-1,12
 294 1107 294 1107 266.5 1121.5 c 128,-1,13
 239 1136 239 1136 221.5 1158 c 0,14,15
 189 1198.86 189 1198.86 189 1248.43 c 128,-1,16
 189 1298 189 1298 209 1336 c 128,-1,17
 229 1374 229 1374 263.5 1406.5 c 128,-1,18
 298 1439 298 1439 344 1465.5 c 128,-1,19
 390 1492 390 1492 442 1511 c 0,20,21
 548.737 1550 548.737 1550 662.868 1550 c 128,-1,22
 777 1550 777 1550 869 1524.5 c 128,-1,23
 961 1499 961 1499 1022.5 1453 c 0,24,25
 1145 1361.37 1145 1361.37 1145 1199 c 0,26,27
 1145 1070.99 1145 1070.99 1055.5 964 c 0,28,29
 959.945 849.774 959.945 849.774 808 819 c 1,30,31
 999.146 804.766 999.146 804.766 1114.5 705 c 0,32,33
 1232 603.378 1232 603.378 1232 451 c 0,34,35
 1232 230.73 1232 230.73 1058.5 103 c 0,36,37
 891.425 -20 891.425 -20 618 -20 c 0,38,39
 430.091 -20 430.091 -20 300 59.5 c 0,40,41
 162 143.833 162 143.833 162 278 c 0,42,43
 162 339 162 339 204.5 381.5 c 128,-1,44
 247 424 247 424 293 424 c 128,-1,45
 339 424 339 424 365.5 412.5 c 128,-1,46
 392 401 392 401 412 381 c 0,47,48
 455 338 455 338 455 286 c 128,-1,49
 455 234 455 234 428.5 194 c 128,-1,50
 402 154 402 154 352 138 c 1,51,52
 423.122 79.8092 423.122 79.8092 523.5 68 c 0,53,54
 566 63 566 63 639.5 63 c 128,-1,55
 713 63 713 63 774.5 89.5 c 128,-1,56
 836 116 836 116 876 161.5 c 0,57,58
 953 249.087 953 249.087 953 398 c 0,59,60
 953 546.64 953 546.64 845 646 c 0,61,62
 739.565 743 739.565 743 581 743 c 0,63,64
 526 743 526 743 471 730 c 1,65,-1
 471 823 l 1,66,67
 662.418 823 662.418 823 769.5 929 c 0,68,69
 869 1027.49 869 1027.49 869 1185 c 0,0,1
EndSplineSet
EndChar

StartChar: H
Encoding: 72 72 36
Width: 1707
Flags: HW
LayerCount: 2
Fore
SplineSet
65 78 m 1,0,-1
 222 78 l 1,1,-1
 222 1452 l 1,2,-1
 65 1452 l 1,3,-1
 65 1530 l 1,4,-1
 649 1530 l 1,5,-1
 649 1452 l 1,6,-1
 491 1452 l 1,7,-1
 491 806 l 1,8,-1
 1215 806 l 1,9,-1
 1215 1452 l 1,10,-1
 1058 1452 l 1,11,-1
 1058 1530 l 1,12,-1
 1642 1530 l 1,13,-1
 1642 1452 l 1,14,-1
 1485 1452 l 1,15,-1
 1485 78 l 1,16,-1
 1642 78 l 1,17,-1
 1642 0 l 1,18,-1
 1057 0 l 1,19,-1
 1057 78 l 1,20,-1
 1215 78 l 1,21,-1
 1215 728 l 1,22,-1
 491 728 l 1,23,-1
 491 78 l 1,24,-1
 649 78 l 1,25,-1
 649 0 l 1,26,-1
 65 0 l 1,27,-1
 65 78 l 1,0,-1
EndSplineSet
EndChar

StartChar: I
Encoding: 73 73 37
Width: 854
Flags: HW
LayerCount: 2
Fore
SplineSet
95 78 m 1,0,-1
 292 78 l 1,1,-1
 293 1452 l 1,2,-1
 95 1452 l 1,3,-1
 95 1530 l 1,4,-1
 759 1530 l 1,5,-1
 759 1452 l 1,6,-1
 562 1452 l 1,7,-1
 562 78 l 1,8,-1
 759 78 l 1,9,-1
 759 0 l 1,10,-1
 95 0 l 1,11,-1
 95 78 l 1,0,-1
EndSplineSet
EndChar

StartChar: D
Encoding: 68 68 38
Width: 1707
Flags: HW
LayerCount: 2
Fore
SplineSet
143 78 m 1,0,-1
 292 78 l 1,1,-1
 292 1452 l 1,2,-1
 143 1452 l 1,3,-1
 143 1530 l 1,4,-1
 771 1530 l 2,5,6
 1368.37 1530 1368.37 1530 1541.5 1144.5 c 0,7,8
 1611 989.747 1611 989.747 1611 777 c 0,9,10
 1611 480.902 1611 480.902 1454 275 c 0,11,12
 1325.66 106.683 1325.66 106.683 1068 36.5 c 0,13,14
 934 0 934 0 753 0 c 2,15,-1
 143 0 l 1,16,-1
 143 78 l 1,0,-1
733 78 m 2,17,18
 1051.69 78 1051.69 78 1186.5 239 c 0,19,20
 1319 397.237 1319 397.237 1319 768 c 2,21,-1
 1319 801 l 1,22,23
 1310.53 1315.09 1310.53 1315.09 972.5 1418.5 c 0,24,25
 863 1452 863 1452 724 1452 c 2,26,-1
 561 1452 l 1,27,-1
 561 78 l 1,28,-1
 733 78 l 2,17,18
EndSplineSet
EndChar

StartChar: N
Encoding: 78 78 39
Width: 1707
Flags: HW
LayerCount: 2
Fore
SplineSet
88 78 m 1,0,-1
 262 78 l 1,1,-1
 262 1452 l 1,2,-1
 88 1452 l 1,3,-1
 88 1530 l 1,4,-1
 538 1530 l 1,5,-1
 1360 324 l 1,6,-1
 1360 1452 l 1,7,-1
 1166 1452 l 1,8,-1
 1166 1530 l 1,9,-1
 1641 1530 l 1,10,-1
 1641 1452 l 1,11,-1
 1458 1452 l 1,12,-1
 1458 0 l 1,13,-1
 1274 0 l 1,14,-1
 360 1329 l 1,15,-1
 360 78 l 1,16,-1
 563 78 l 1,17,-1
 563 0 l 1,18,-1
 88 0 l 1,19,-1
 88 78 l 1,0,-1
EndSplineSet
EndChar

StartChar: O
Encoding: 79 79 40
Width: 1711
Flags: HW
LayerCount: 2
Fore
SplineSet
119.5 565.5 m 128,-1,1
 98 664 98 664 98 764.5 c 128,-1,2
 98 865 98 865 119.5 961.5 c 128,-1,3
 141 1058 141 1058 183 1145 c 128,-1,4
 225 1232 225 1232 288.5 1306 c 128,-1,5
 352 1380 352 1380 436 1434.5 c 0,6,7
 614.018 1550 614.018 1550 855 1550 c 0,8,9
 1221.42 1550 1221.42 1550 1427.5 1306 c 0,10,11
 1613 1086.37 1613 1086.37 1613 767 c 0,12,13
 1613 437.824 1613 437.824 1426.5 218.5 c 0,14,15
 1298.31 67.7522 1298.31 67.7522 1089 9.5 c 0,16,17
 983 -20 983 -20 856.5 -20 c 128,-1,18
 730 -20 730 -20 625 9.5 c 128,-1,19
 520 39 520 39 436 92 c 128,-1,20
 352 145 352 145 288.5 218.5 c 128,-1,21
 225 292 225 292 183 379.5 c 128,-1,0
 141 467 141 467 119.5 565.5 c 128,-1,1
853 63 m 0,22,23
 939 63 939 63 1006.5 93 c 128,-1,24
 1074 123 1074 123 1126 175 c 128,-1,25
 1178 227 1178 227 1216 296 c 128,-1,26
 1254 365 1254 365 1278 443.5 c 0,27,28
 1325 597.229 1325 597.229 1325 724.615 c 128,-1,29
 1325 852 1325 852 1313.5 937.5 c 128,-1,30
 1302 1023 1302 1023 1277.5 1100.5 c 128,-1,31
 1253 1178 1253 1178 1215 1245 c 128,-1,32
 1177 1312 1177 1312 1125 1361.5 c 0,33,34
 1014.17 1467 1014.17 1467 855 1467 c 0,35,36
 607.44 1467 607.44 1467 486.5 1245 c 0,37,38
 382.62 1054.32 382.62 1054.32 386 767 c 0,39,40
 389.546 486.845 389.546 486.845 490.5 296 c 0,41,42
 613.754 63 613.754 63 853 63 c 0,22,23
EndSplineSet
EndChar

StartChar: E
Encoding: 69 69 41
Width: 1534
Flags: HW
LayerCount: 2
Fore
SplineSet
101 79 m 1,0,-1
 291 79 l 1,1,-1
 292 1452 l 1,2,-1
 101 1452 l 1,3,-1
 101 1530 l 1,4,-1
 1372 1530 l 1,5,-1
 1372 1094 l 1,6,-1
 1294 1094 l 1,7,8
 1289 1177 1289 1177 1280 1241.5 c 128,-1,9
 1271 1306 1271 1306 1242.5 1351 c 0,10,11
 1184.36 1442.81 1184.36 1442.81 1006 1452 c 1,12,-1
 561 1452 l 1,13,-1
 561 849 l 1,14,-1
 830 849 l 2,15,16
 915 849 915 849 960.5 876.5 c 128,-1,17
 1006 904 1006 904 1016 973 c 0,18,19
 1018 993 1018 993 1019.5 1015.5 c 128,-1,20
 1021 1038 1021 1038 1023 1060 c 1,21,-1
 1107 1060 l 1,22,-1
 1107 562 l 1,23,-1
 1023 562 l 1,24,25
 1021 585 1021 585 1019.5 606 c 128,-1,26
 1018 627 1018 627 1016 647 c 0,27,28
 1006 716 1006 716 959.5 743.5 c 128,-1,29
 913 771 913 771 830 771 c 2,30,-1
 561 771 l 1,31,-1
 561 78 l 1,32,-1
 989 78 l 2,33,34
 1252.46 78 1252.46 78 1308 321 c 0,35,36
 1324 391 1324 391 1329 465 c 1,37,-1
 1407 465 l 1,38,-1
 1407 0 l 1,39,-1
 101 0 l 1,40,-1
 101 79 l 1,0,-1
EndSplineSet
EndChar

StartChar: F
Encoding: 70 70 42
Width: 1364
Flags: HW
LayerCount: 2
Fore
SplineSet
102 78 m 1,0,-1
 291 78 l 1,1,-1
 292 1452 l 1,2,-1
 101 1452 l 1,3,-1
 101 1530 l 1,4,-1
 1322 1530 l 1,5,-1
 1322 1089 l 1,6,-1
 1244 1089 l 1,7,8
 1239 1172 1239 1172 1227 1237 c 128,-1,9
 1215 1302 1215 1302 1182.5 1348.5 c 0,10,11
 1116.67 1442.69 1116.67 1442.69 936 1452 c 1,12,-1
 561 1452 l 1,13,-1
 561 807 l 1,14,-1
 738 807 l 2,15,16
 822 807 822 807 872.5 835 c 128,-1,17
 923 863 923 863 933 931 c 0,18,19
 935 951 935 951 936.5 976.5 c 128,-1,20
 938 1002 938 1002 940 1024 c 1,21,-1
 1022 1024 l 1,22,-1
 1022 501 l 1,23,-1
 940 501 l 1,24,25
 938 524 938 524 936.5 554.5 c 128,-1,26
 935 585 935 585 933 605 c 0,27,28
 914.765 729 914.765 729 738 729 c 2,29,-1
 561 729 l 1,30,-1
 561 78 l 1,31,-1
 895 78 l 1,32,-1
 895 0 l 1,33,-1
 102 0 l 1,34,-1
 102 78 l 1,0,-1
EndSplineSet
EndChar

StartChar: R
Encoding: 82 82 43
Width: 1534
Flags: HW
LayerCount: 2
Fore
SplineSet
130 78 m 1,0,-1
 292 78 l 1,1,-1
 292 1452 l 1,2,-1
 130 1452 l 1,3,-1
 130 1530 l 1,4,-1
 779 1530 l 2,5,6
 1200.58 1530 1200.58 1530 1315 1325 c 0,7,8
 1357 1249.75 1357 1249.75 1357 1150.88 c 128,-1,9
 1357 1052 1357 1052 1327 978.5 c 128,-1,10
 1297 905 1297 905 1244 850 c 0,11,12
 1138.14 740.142 1138.14 740.142 960 707 c 1,13,14
 1195.22 670.812 1195.22 670.812 1284.5 476.5 c 0,15,16
 1310 421 1310 421 1328.5 365.5 c 2,17,-1
 1363 258 l 1,18,19
 1397.8 144.9 1397.8 144.9 1455 102 c 0,20,21
 1487 78 1487 78 1539 78 c 2,22,-1
 1554 78 l 1,23,-1
 1556 0 l 1,24,-1
 1422 0 l 2,25,26
 1244.56 0 1244.56 0 1177.5 50.5 c 0,27,28
 1137 81 1137 81 1110.5 138 c 128,-1,29
 1084 195 1084 195 1067 261 c 128,-1,30
 1050 327 1050 327 1037.5 371 c 128,-1,31
 1025 415 1025 415 1007 458.5 c 128,-1,32
 989 502 989 502 964 542 c 128,-1,33
 939 582 939 582 903.5 612.5 c 0,34,35
 824.934 680 824.934 680 714 680 c 2,36,-1
 561 680 l 1,37,-1
 561 78 l 1,38,-1
 795 78 l 1,39,-1
 795 0 l 1,40,-1
 130 0 l 1,41,-1
 130 78 l 1,0,-1
761 753 m 2,42,43
 942.144 753 942.144 753 1018.5 879.5 c 0,44,45
 1074 971.448 1074 971.448 1074 1131 c 0,46,47
 1074 1285.4 1074 1285.4 1009.5 1360.5 c 0,48,49
 930.918 1452 930.918 1452 743 1452 c 2,50,-1
 561 1452 l 1,51,-1
 561 753 l 1,52,-1
 761 753 l 2,42,43
EndSplineSet
EndChar

StartChar: P
Encoding: 80 80 44
Width: 1368
Flags: HW
LayerCount: 2
Fore
SplineSet
120 78 m 1,0,-1
 292 78 l 1,1,-1
 292 1452 l 1,2,-1
 121 1452 l 1,3,-1
 121 1530 l 1,4,-1
 730 1530 l 2,5,6
 1041.17 1530 1041.17 1530 1197.5 1396 c 0,7,8
 1340 1273.86 1340 1273.86 1340 1053 c 0,9,10
 1340 806.523 1340 806.523 1189.5 663 c 0,11,12
 1029.06 510 1029.06 510 734 510 c 2,13,-1
 561 510 l 1,14,-1
 561 78 l 1,15,-1
 814 78 l 1,16,-1
 814 0 l 1,17,-1
 120 0 l 1,18,-1
 120 78 l 1,0,-1
711 579 m 2,19,20
 898.284 579 898.284 579 989.5 742.5 c 0,21,22
 1061 870.66 1061 870.66 1061 1042 c 0,23,24
 1061 1331.86 1061 1331.86 868.5 1421.5 c 0,25,26
 803 1452 803 1452 713 1452 c 2,27,-1
 561 1452 l 1,28,-1
 561 579 l 1,29,-1
 711 579 l 2,19,20
EndSplineSet
EndChar

StartChar: L
Encoding: 76 76 45
Width: 1367
Flags: HW
LayerCount: 2
Fore
SplineSet
71 79 m 1,0,-1
 285 78 l 1,1,-1
 286 1453 l 1,2,-1
 118 1453 l 1,3,-1
 118 1530 l 1,4,-1
 733 1530 l 1,5,-1
 733 1453 l 1,6,-1
 555 1453 l 1,7,-1
 555 78 l 1,8,-1
 861 78 l 2,9,10
 1124.46 78 1124.46 78 1180 321 c 0,11,12
 1196 391 1196 391 1201 465 c 1,13,-1
 1279 465 l 1,14,-1
 1279 0 l 1,15,-1
 71 0 l 1,16,-1
 71 79 l 1,0,-1
EndSplineSet
EndChar

StartChar: K
Encoding: 75 75 46
Width: 1707
Flags: HW
LayerCount: 2
Fore
SplineSet
101 78 m 1,0,-1
 291 78 l 1,1,-1
 292 1452 l 1,2,-1
 101 1452 l 1,3,-1
 101 1530 l 1,4,-1
 766 1530 l 1,5,-1
 766 1452 l 1,6,-1
 561 1452 l 1,7,-1
 561 724 l 1,8,-1
 1310 1452 l 1,9,-1
 1134 1452 l 1,10,-1
 1134 1530 l 1,11,-1
 1581 1530 l 1,12,-1
 1581 1452 l 1,13,-1
 1434 1452 l 1,14,-1
 869 904 l 1,15,-1
 1533 78 l 1,16,-1
 1668 78 l 1,17,-1
 1668 0 l 1,18,-1
 1048 0 l 1,19,-1
 1048 78 l 1,20,-1
 1199 78 l 1,21,-1
 694 734 l 1,22,-1
 561 604 l 1,23,-1
 561 78 l 1,24,-1
 766 78 l 1,25,-1
 766 0 l 1,26,-1
 101 0 l 1,27,-1
 101 78 l 1,0,-1
EndSplineSet
EndChar

StartChar: J
Encoding: 74 74 47
Width: 854
Flags: HW
LayerCount: 2
Fore
SplineSet
213.5 -240 m 128,-1,1
 248 -190 248 -190 264.5 -108.5 c 0,2,3
 289 12.5152 289 12.5152 289 381 c 2,4,-1
 289 1452 l 1,5,-1
 101 1452 l 1,6,-1
 101 1530 l 1,7,-1
 756 1530 l 1,8,-1
 756 1452 l 1,9,-1
 559 1452 l 1,10,-1
 559 135 l 2,11,12
 559 -81.2973 559 -81.2973 437.5 -222.5 c 0,13,14
 332.107 -344.984 332.107 -344.984 159 -391 c 1,15,-1
 118 -318 l 1,16,0
 179 -290 179 -290 213.5 -240 c 128,-1,1
EndSplineSet
EndChar

StartChar: T
Encoding: 84 84 48
Width: 1535
Flags: HW
LayerCount: 2
Fore
SplineSet
433 78 m 1,0,-1
 632 78 l 1,1,-1
 632 1453 l 1,2,-1
 486 1453 l 2,3,4
 297.083 1453 297.083 1453 222.5 1338.5 c 0,5,6
 164.152 1248.92 164.152 1248.92 155 1043 c 1,7,-1
 77 1043 l 1,8,-1
 77 1530 l 1,9,-1
 1458 1530 l 1,10,-1
 1458 1043 l 1,11,-1
 1380 1043 l 1,12,13
 1370.85 1248.93 1370.85 1248.93 1312.5 1338.5 c 0,14,15
 1237.92 1453 1237.92 1453 1049 1453 c 2,16,-1
 903 1453 l 1,17,-1
 903 78 l 1,18,-1
 1102 78 l 1,19,-1
 1102 0 l 1,20,-1
 433 0 l 1,21,-1
 433 78 l 1,0,-1
EndSplineSet
EndChar

StartChar: M
Encoding: 77 77 49
Width: 2049
Flags: HW
LayerCount: 2
Fore
SplineSet
62 78 m 1,0,-1
 249 78 l 1,1,-1
 249 1452 l 1,2,-1
 59 1452 l 1,3,-1
 59 1530 l 1,4,-1
 517 1530 l 1,5,-1
 517 1529 l 1,6,-1
 520 1530 l 1,7,-1
 582 1530 l 1,8,-1
 1042 414 l 1,9,-1
 1484 1523 l 1,10,-1
 1481 1530 l 1,11,-1
 1986 1530 l 1,12,-1
 1986 1452 l 1,13,-1
 1797 1452 l 1,14,-1
 1797 78 l 1,15,-1
 1990 78 l 1,16,-1
 1990 0 l 1,17,-1
 1339 0 l 1,18,-1
 1339 78 l 1,19,-1
 1527 78 l 1,20,-1
 1528 1408 l 1,21,-1
 976 21 l 1,22,-1
 936 21 l 1,23,-1
 340 1423 l 1,24,-1
 340 78 l 1,25,-1
 518 78 l 1,26,-1
 518 0 l 1,27,-1
 62 0 l 1,28,-1
 62 78 l 1,0,-1
EndSplineSet
EndChar

StartChar: U
Encoding: 85 85 50
Width: 1539
Flags: HW
LayerCount: 2
Fore
SplineSet
183 1452 m 1,0,-1
 46 1452 l 1,1,-1
 46 1530 l 1,2,-1
 598 1530 l 1,3,-1
 598 1452 l 1,4,-1
 452 1452 l 1,5,-1
 452 545 l 2,6,7
 452 175.518 452 175.518 667.5 98 c 0,8,9
 737 73 737 73 801.5 73 c 128,-1,10
 866 73 866 73 914 79 c 128,-1,11
 962 85 962 85 1010 102.5 c 128,-1,12
 1058 120 1058 120 1103 152 c 128,-1,13
 1148 184 1148 184 1182.5 236 c 0,14,15
 1258 349.797 1258 349.797 1258 543 c 2,16,-1
 1258 1452 l 1,17,-1
 1079 1452 l 1,18,-1
 1079 1530 l 1,19,-1
 1493 1530 l 1,20,-1
 1493 1452 l 1,21,-1
 1356 1452 l 1,22,-1
 1356 529 l 2,23,24
 1356 252.26 1356 252.26 1201 110 c 0,25,26
 1059.36 -20.0001 1059.36 -20.0001 811 -20 c 0,27,28
 585.053 -20 585.053 -20 424 70 c 0,29,30
 279.027 151.015 279.027 151.015 216 331.5 c 0,31,32
 183 426 183 426 183 559 c 2,33,-1
 183 1452 l 1,0,-1
EndSplineSet
EndChar

StartChar: Q
Encoding: 81 81 51
Width: 1711
Flags: HW
LayerCount: 2
Fore
SplineSet
363 -387 m 1,0,1
 385.614 -324.812 385.614 -324.812 479.5 -244.5 c 0,2,3
 566.455 -170.116 566.455 -170.116 657 -127 c 2,4,-1
 887 -19 l 1,5,6
 879 -20 879 -20 871 -20 c 128,-1,7
 863 -20 863 -20 855 -20 c 0,8,9
 494.551 -20 494.551 -20 288.5 218.5 c 0,10,11
 98 439 98 439 98 767 c 0,12,13
 98 1084 98 1084 288.5 1306 c 0,14,15
 497.878 1550 497.878 1550 855 1550 c 0,16,17
 1221.42 1550 1221.42 1550 1427.5 1306 c 0,18,19
 1613 1086.37 1613 1086.37 1613 767 c 0,20,21
 1613 522.5 1613 522.5 1505 331.5 c 0,22,23
 1389.28 126.84 1389.28 126.84 1177 40 c 1,24,-1
 835 -123 l 1,25,26
 884 -136 884 -136 928.5 -154.5 c 128,-1,27
 973 -173 973 -173 1020.5 -190 c 0,28,29
 1135.06 -231 1135.06 -231 1238 -231 c 0,30,31
 1315.47 -231 1315.47 -231 1404 -160.5 c 0,32,33
 1431 -139 1431 -139 1453 -115 c 1,34,-1
 1505 -149 l 1,35,36
 1476.22 -231.738 1476.22 -231.738 1385 -326 c 0,37,38
 1279.52 -435 1279.52 -435 1170 -435 c 0,39,40
 1099 -435 1099 -435 1030.5 -414.5 c 128,-1,41
 962 -394 962 -394 895 -370 c 128,-1,42
 828 -346 828 -346 762 -325.5 c 128,-1,43
 696 -305 696 -305 650 -305 c 128,-1,44
 604 -305 604 -305 576 -314 c 128,-1,45
 548 -323 548 -323 519.5 -338.5 c 0,46,47
 463.913 -368.732 463.913 -368.732 416 -421 c 1,48,-1
 363 -387 l 1,0,1
853 63 m 0,49,50
 939 63 939 63 1006.5 93 c 128,-1,51
 1074 123 1074 123 1126 175 c 128,-1,52
 1178 227 1178 227 1216 296 c 128,-1,53
 1254 365 1254 365 1278 443.5 c 0,54,55
 1325 597.229 1325 597.229 1325 724.615 c 128,-1,56
 1325 852 1325 852 1313.5 937.5 c 128,-1,57
 1302 1023 1302 1023 1277.5 1100.5 c 128,-1,58
 1253 1178 1253 1178 1215 1245 c 128,-1,59
 1177 1312 1177 1312 1125 1361.5 c 0,60,61
 1014.17 1467 1014.17 1467 855 1467 c 0,62,63
 607.44 1467 607.44 1467 486.5 1245 c 0,64,65
 382.62 1054.32 382.62 1054.32 386 767 c 0,66,67
 389.546 486.845 389.546 486.845 490.5 296 c 0,68,69
 613.754 63 613.754 63 853 63 c 0,49,50
EndSplineSet
EndChar

StartChar: S
Encoding: 83 83 52
Width: 1366
Flags: HW
LayerCount: 2
Fore
SplineSet
307 116 m 1,0,1
 266 70.4444 266 70.4444 266 0 c 1,2,-1
 177 0 l 1,3,-1
 177 408 l 1,4,-1
 280 408 l 1,5,6
 319.038 253.904 319.038 253.904 440.5 160 c 0,7,8
 565.967 63 565.967 63 741 63 c 0,9,10
 960 63 960 63 1033.5 184.5 c 0,11,12
 1058 225 1058 225 1058 276 c 128,-1,13
 1058 327 1058 327 1044 370 c 128,-1,14
 1030 413 1030 413 989 454.5 c 0,15,16
 903.861 540.677 903.861 540.677 717.431 609.339 c 128,-1,17
 531 678 531 678 435.5 735 c 128,-1,18
 340 792 340 792 285 855 c 0,19,20
 188 966.109 188 966.109 188 1138 c 0,21,22
 188 1325.56 188 1325.56 347 1441 c 0,23,24
 497.132 1550 497.132 1550 718 1550 c 0,25,26
 843 1550 843 1550 930.5 1521 c 128,-1,27
 1018 1492 1018 1492 1064 1453 c 1,28,29
 1088.09 1488.04 1088.09 1488.04 1090 1530 c 1,30,-1
 1183 1530 l 1,31,-1
 1183 1158 l 1,32,-1
 1087 1158 l 1,33,34
 1071.97 1306.37 1071.97 1306.37 957 1391.5 c 0,35,36
 855.026 1467 855.026 1467 707 1467 c 0,37,38
 570.364 1467 570.364 1467 481.5 1409.5 c 0,39,40
 390 1350.29 390 1350.29 390 1256 c 0,41,42
 390 1147.81 390 1147.81 469.5 1076 c 0,43,44
 558.059 996.011 558.059 996.011 817 882 c 1,45,46
 1060.08 782.822 1060.08 782.822 1159.5 677.5 c 0,47,48
 1252 579.505 1252 579.505 1252 431 c 0,49,50
 1252 220.586 1252 220.586 1099 96 c 0,51,52
 956.544 -20 956.544 -20 743 -20 c 0,53,54
 537.56 -20 537.56 -20 383 64 c 0,55,56
 337 89 337 89 307 116 c 1,0,1
EndSplineSet
EndChar

StartChar: period
Encoding: 46 46 53
Width: 683
Flags: HW
LayerCount: 2
Fore
SplineSet
182 141 m 256,0,1
 182 248.121 182 248.121 278 289.5 c 0,2,3
 307 302 307 302 341 302 c 256,4,5
 409 302 409 302 455.5 255.5 c 0,6,7
 501 210 501 210 501 141 c 256,8,9
 501 73 501 73 455.5 27.5 c 128,-1,10
 410 -18 410 -18 341 -18 c 256,11,12
 273 -18 273 -18 227.5 27.5 c 128,-1,13
 182 73 182 73 182 141 c 256,0,1
EndSplineSet
EndChar

StartChar: comma
Encoding: 44 44 54
Width: 683
Flags: HW
LayerCount: 2
Fore
SplineSet
184 157 m 0,0,1
 184 192 184 192 197 219.5 c 128,-1,2
 210 247 210 247 232.5 267 c 0,3,4
 280.875 310 280.875 310 330.438 310 c 128,-1,5
 380 310 380 310 410 298 c 128,-1,6
 440 286 440 286 463 260.5 c 0,7,8
 513 205.065 513 205.065 513 122.033 c 128,-1,9
 513 39 513 39 490 -31 c 128,-1,10
 467 -101 467 -101 431.5 -164 c 0,11,12
 355.579 -298.732 355.579 -298.732 275 -351 c 1,13,-1
 223 -313 l 1,14,15
 299.705 -249.079 299.705 -249.079 336 -94 c 0,16,17
 347 -47 347 -47 349 -2 c 1,18,19
 283.19 -2 283.19 -2 235 42 c 0,20,21
 184 88.5652 184 88.5652 184 157 c 0,0,1
EndSplineSet
EndChar

StartChar: G
Encoding: 71 71 57
Width: 1707
Flags: HW
LayerCount: 2
Fore
SplineSet
1382 1421 m 1,0,1
 1404.05 1446.2 1404.05 1446.2 1426 1530 c 1,2,-1
 1507 1530 l 1,3,-1
 1507 1111 l 1,4,-1
 1422 1111 l 1,5,6
 1373.78 1290.37 1373.78 1290.37 1234 1382.5 c 0,7,8
 1105.79 1467 1105.79 1467 917 1467 c 0,9,10
 565.968 1467 565.968 1467 450 1107.5 c 0,11,12
 380.425 891.818 380.425 891.818 416.5 601.5 c 0,13,14
 466.675 197.714 466.675 197.714 752 92.5 c 0,15,16
 832 63 832 63 922 63 c 128,-1,17
 1012 63 1012 63 1075 79 c 128,-1,18
 1138 95 1138 95 1184.5 118.5 c 128,-1,19
 1231 142 1231 142 1258 168.5 c 128,-1,20
 1285 195 1285 195 1288 216 c 1,21,-1
 1288 601 l 1,22,-1
 1027 601 l 1,23,-1
 1027 679 l 1,24,-1
 1651 679 l 1,25,-1
 1651 601 l 1,26,-1
 1530 601 l 1,27,-1
 1530 192 l 1,28,29
 1469.05 106.673 1469.05 106.673 1294 44 c 0,30,31
 1115.24 -20 1115.24 -20 926.621 -20 c 128,-1,32
 738 -20 738 -20 584.5 41.5 c 128,-1,33
 431 103 431 103 325 210 c 0,34,35
 107 430.057 107 430.057 107 768 c 0,36,37
 107 1088.77 107 1088.77 326.5 1314.5 c 0,38,39
 471.39 1463.5 471.39 1463.5 688.5 1521 c 0,40,41
 798 1550 798 1550 896.5 1550 c 128,-1,42
 995 1550 995 1550 1063 1541 c 128,-1,43
 1131 1532 1131 1532 1191 1515.5 c 0,44,45
 1315.8 1481.18 1315.8 1481.18 1382 1421 c 1,0,1
EndSplineSet
EndChar

StartChar: four
Encoding: 52 52 58
Width: 1366
Flags: HW
LayerCount: 2
Fore
SplineSet
40 466 m 1,0,-1
 816 1530 l 1,1,-1
 1003 1530 l 1,2,-1
 1003 485 l 1,3,-1
 1317 485 l 1,4,-1
 1315 399 l 1,5,-1
 1003 399 l 1,6,-1
 1003 78 l 1,7,-1
 1232 78 l 1,8,-1
 1232 0 l 1,9,-1
 469 0 l 1,10,-1
 469 78 l 1,11,-1
 737 78 l 1,12,-1
 737 399 l 1,13,-1
 40 399 l 1,14,-1
 40 466 l 1,0,-1
737 485 m 1,15,-1
 737 1267 l 1,16,-1
 177 485 l 1,17,-1
 737 485 l 1,15,-1
EndSplineSet
EndChar

StartChar: five
Encoding: 53 53 59
Width: 1365
Flags: HW
LayerCount: 2
Fore
SplineSet
295 761 m 1,0,-1
 230 761 l 1,1,-1
 277 1530 l 1,2,-1
 1151 1530 l 1,3,-1
 1100 1148 l 1,4,-1
 1022 1148 l 1,5,-1
 1016 1211 l 2,6,7
 1007.43 1293.87 1007.43 1293.87 925 1309.5 c 0,8,9
 896 1315 896 1315 855 1315 c 2,10,-1
 350 1315 l 1,11,-1
 313 848 l 1,12,13
 397.772 929.381 397.772 929.381 578 961 c 0,14,15
 635 971 635 971 726.5 971 c 128,-1,16
 818 971 818 971 913.5 936 c 128,-1,17
 1009 901 1009 901 1073.5 837 c 0,18,19
 1203 708.504 1203 708.504 1203 486 c 0,20,21
 1203 245.674 1203 245.674 1018 108 c 0,22,23
 846 -20 846 -20 568 -20 c 0,24,25
 413.026 -20 413.026 -20 285 59.5 c 0,26,27
 143 147.677 143 147.677 143 278 c 0,28,29
 143 339 143 339 185.5 381.5 c 128,-1,30
 228 424 228 424 274 424 c 128,-1,31
 320 424 320 424 346.5 412.5 c 128,-1,32
 373 401 373 401 393 381 c 0,33,34
 436 338 436 338 436 278 c 0,35,36
 436 201.415 436 201.415 372.5 156.5 c 0,37,38
 352 142 352 142 325 135 c 1,39,40
 408.824 60 408.824 60 538.912 60 c 128,-1,41
 669 60 669 60 742 95 c 128,-1,42
 815 130 815 130 857.5 186.5 c 0,43,44
 934 288.2 934 288.2 934 455 c 0,45,46
 934 634.5 934 634.5 846 744.5 c 0,47,48
 758.4 854 758.4 854 598.822 854 c 128,-1,49
 439.245 854 439.245 854 295 761 c 1,0,-1
EndSplineSet
EndChar

StartChar: V
Encoding: 86 86 60
Width: 1539
Flags: HW
LayerCount: 2
Fore
SplineSet
121 1452 m 1,0,-1
 -13 1452 l 1,1,-1
 -13 1530 l 1,2,-1
 627 1530 l 1,3,-1
 627 1452 l 1,4,-1
 434 1452 l 1,5,-1
 877 317 l 1,6,-1
 1293 1452 l 1,7,-1
 1105 1452 l 1,8,-1
 1105 1530 l 1,9,-1
 1555 1530 l 1,10,-1
 1555 1452 l 1,11,-1
 1401 1452 l 1,12,-1
 846 -20 l 1,13,-1
 761 -20 l 1,14,-1
 121 1452 l 1,0,-1
EndSplineSet
EndChar

StartChar: W
Encoding: 87 87 61
Width: 2220
Flags: HW
LayerCount: 2
Fore
SplineSet
98 1452 m 1,0,-1
 -49 1452 l 1,1,-1
 -49 1530 l 1,2,-1
 596 1530 l 1,3,-1
 596 1452 l 1,4,-1
 396 1452 l 1,5,-1
 773 343 l 1,6,-1
 1165 1530 l 1,7,-1
 1238 1530 l 1,8,-1
 1673 348 l 1,9,-1
 2034 1452 l 1,10,-1
 1843 1452 l 1,11,-1
 1843 1530 l 1,12,-1
 2293 1530 l 1,13,-1
 2293 1452 l 1,14,-1
 2138 1452 l 1,15,-1
 1642 -20 l 1,16,-1
 1550 -20 l 1,17,-1
 1115 1088 l 1,18,-1
 743 -20 l 1,19,-1
 653 -20 l 1,20,-1
 98 1452 l 1,0,-1
EndSplineSet
EndChar

StartChar: X
Encoding: 88 88 62
Width: 1538
Flags: HW
LayerCount: 2
Fore
SplineSet
17 78 m 1,0,-1
 187 78 l 1,1,-1
 655 705 l 1,2,-1
 161 1452 l 1,3,-1
 15 1452 l 1,4,-1
 15 1530 l 1,5,-1
 650 1530 l 1,6,-1
 650 1452 l 1,7,-1
 465 1452 l 1,8,-1
 831 906 l 1,9,-1
 1233 1452 l 1,10,-1
 1064 1452 l 1,11,-1
 1064 1531 l 1,12,-1
 1514 1531 l 1,13,-1
 1514 1452 l 1,14,-1
 1343 1452 l 1,15,-1
 883 828 l 1,16,-1
 1387 78 l 1,17,-1
 1523 78 l 1,18,-1
 1523 0 l 1,19,-1
 889 0 l 1,20,-1
 889 78 l 1,21,-1
 1071 78 l 1,22,-1
 707 626 l 1,23,-1
 301 78 l 1,24,-1
 484 78 l 1,25,-1
 484 0 l 1,26,-1
 17 0 l 1,27,-1
 17 78 l 1,0,-1
EndSplineSet
EndChar

StartChar: Y
Encoding: 89 89 63
Width: 1539
Flags: HW
LayerCount: 2
Fore
SplineSet
448 78 m 1,0,-1
 646 78 l 1,1,-1
 647 590 l 1,2,-1
 135 1452 l 1,3,-1
 10 1452 l 1,4,-1
 10 1530 l 1,5,-1
 654 1530 l 1,6,-1
 654 1452 l 1,7,-1
 451 1452 l 1,8,-1
 860 733 l 1,9,-1
 1266 1452 l 1,10,-1
 1082 1452 l 1,11,-1
 1082 1530 l 1,12,-1
 1524 1530 l 1,13,-1
 1524 1452 l 1,14,-1
 1373 1452 l 1,15,-1
 916 652 l 1,16,-1
 916 78 l 1,17,-1
 1115 78 l 1,18,-1
 1115 0 l 1,19,-1
 448 0 l 1,20,-1
 448 78 l 1,0,-1
EndSplineSet
EndChar

StartChar: Z
Encoding: 90 90 64
Width: 1538
Flags: HW
LayerCount: 2
Fore
SplineSet
140 117 m 1,0,-1
 1091 1452 l 1,1,-1
 646 1452 l 2,2,3
 453.318 1452 453.318 1452 381 1366 c 0,4,5
 318.987 1292.25 318.987 1292.25 304 1091 c 1,6,-1
 212 1091 l 1,7,-1
 212 1530 l 1,8,-1
 1375 1530 l 1,9,-1
 1375 1415 l 1,10,-1
 437 78 l 1,11,-1
 1010 78 l 2,12,13
 1201.76 78 1201.76 78 1268 179.5 c 0,14,15
 1315.25 251.905 1315.25 251.905 1320 437 c 1,16,-1
 1413 437 l 1,17,-1
 1413 0 l 1,18,-1
 140 0 l 1,19,-1
 140 117 l 1,0,-1
EndSplineSet
EndChar

StartChar: acute
Encoding: 180 180 65
Width: 1707
Flags: HW
LayerCount: 2
Fore
SplineSet
528 1218 m 1,0,-1
 748 1552 l 2,1,2
 768 1582 768 1582 788 1597.5 c 128,-1,3
 808 1613 808 1613 836 1616.5 c 128,-1,4
 864 1620 864 1620 885.5 1614.5 c 128,-1,5
 907 1609 907 1609 924.5 1596 c 0,6,7
 963.131 1567.3 963.131 1567.3 966.065 1527.15 c 0,8,9
 972.246 1442.59 972.246 1442.59 913 1406 c 2,10,-1
 559 1184 l 1,11,-1
 528 1218 l 1,0,-1
EndSplineSet
EndChar

StartChar: grave
Encoding: 96 96 66
Width: 1707
Flags: HW
LayerCount: 2
Fore
SplineSet
466 1406 m 2,0,1
 407.028 1442.42 407.028 1442.42 412 1517 c 1,2,3
 413.878 1565.82 413.878 1565.82 454.5 1596 c 0,4,5
 490.011 1622.38 490.011 1622.38 530.506 1617.69 c 128,-1,6
 571 1613 571 1613 591 1597.5 c 128,-1,7
 611 1582 611 1582 631 1552 c 2,8,-1
 851 1218 l 1,9,-1
 820 1184 l 1,10,-1
 466 1406 l 2,0,1
EndSplineSet
EndChar

StartChar: tilde
Encoding: 732 732 67
Width: 1707
Flags: HW
LayerCount: 2
Fore
SplineSet
1065 1475 m 1,0,1
 953.556 1239 953.556 1239 804 1239 c 0,2,3
 747.897 1239 747.897 1239 681.449 1274.5 c 128,-1,4
 615 1310 615 1310 580 1326 c 128,-1,5
 545 1342 545 1342 508 1342 c 128,-1,6
 471 1342 471 1342 438.5 1317.5 c 128,-1,7
 406 1293 406 1293 370 1253 c 1,8,-1
 324 1286 l 1,9,10
 379.676 1386.22 379.676 1386.22 418.838 1429.11 c 0,11,12
 499.087 1517 499.087 1517 580 1517 c 0,13,14
 636.861 1517 636.861 1517 702.931 1483.5 c 128,-1,15
 769 1450 769 1450 802 1434.5 c 128,-1,16
 835 1419 835 1419 866 1419 c 256,17,18
 944.75 1419 944.75 1419 992 1473 c 0,19,20
 1006 1489 1006 1489 1018 1506 c 1,21,-1
 1065 1475 l 1,0,1
EndSplineSet
EndChar

StartChar: asciitilde
Encoding: 126 126 68
Width: 1236
Flags: HW
LayerCount: 2
Fore
SplineSet
1022 850 m 1,0,1
 910.556 614 910.556 614 761 614 c 0,2,3
 682.59 614 682.59 614 594.295 649.5 c 128,-1,4
 506 685 506 685 459.5 701 c 128,-1,5
 413 717 413 717 370.5 717 c 128,-1,6
 328 717 328 717 293.5 689 c 128,-1,7
 259 661 259 661 223 621 c 1,8,-1
 181 651 l 1,9,10
 236.676 751.216 236.676 751.216 275.838 794.108 c 0,11,12
 356.087 882 356.087 882 425.043 882 c 128,-1,13
 494 882 494 882 545.5 866.5 c 128,-1,14
 597 851 597 851 644.5 833 c 2,15,-1
 736.5 799.5 l 2,16,17
 781 784 781 784 817.5 784 c 128,-1,18
 854 784 854 784 877.5 791.5 c 128,-1,19
 901 799 901 799 919 812 c 0,20,21
 948.64 833.407 948.64 833.407 978 875 c 1,22,-1
 1022 850 l 1,0,1
EndSplineSet
EndChar

StartChar: dieresis
Encoding: 168 168 69
Width: 1019
Flags: HW
LayerCount: 2
Fore
SplineSet
785 1253.5 m 128,-1,1
 762 1244 762 1244 736.5 1244 c 128,-1,2
 711 1244 711 1244 689 1253.5 c 128,-1,3
 667 1263 667 1263 650 1279 c 0,4,5
 614 1312.88 614 1312.88 614 1351.44 c 128,-1,6
 614 1390 614 1390 623.5 1412.5 c 128,-1,7
 633 1435 633 1435 650 1451.5 c 0,8,9
 686.576 1487 686.576 1487 724.288 1487 c 128,-1,10
 762 1487 762 1487 785 1477.5 c 128,-1,11
 808 1468 808 1468 824.5 1451.5 c 0,12,13
 861 1415 861 1415 861 1377 c 128,-1,14
 861 1339 861 1339 851 1317 c 128,-1,15
 841 1295 841 1295 824.5 1279 c 128,-1,0
 808 1263 808 1263 785 1253.5 c 128,-1,1
329 1253.5 m 128,-1,17
 306 1244 306 1244 280.5 1244 c 128,-1,18
 255 1244 255 1244 233 1253.5 c 128,-1,19
 211 1263 211 1263 194 1279 c 0,20,21
 158 1312.88 158 1312.88 158 1351.44 c 128,-1,22
 158 1390 158 1390 167.5 1412.5 c 128,-1,23
 177 1435 177 1435 194 1451.5 c 0,24,25
 230.576 1487 230.576 1487 268.288 1487 c 128,-1,26
 306 1487 306 1487 329 1477.5 c 128,-1,27
 352 1468 352 1468 368.5 1451.5 c 0,28,29
 405 1415 405 1415 405 1377 c 128,-1,30
 405 1339 405 1339 395 1317 c 128,-1,31
 385 1295 385 1295 368.5 1279 c 128,-1,16
 352 1263 352 1263 329 1253.5 c 128,-1,17
EndSplineSet
EndChar

StartChar: cedilla
Encoding: 184 184 70
Width: 1707
Flags: HW
LayerCount: 2
Fore
SplineSet
673 -332 m 0,0,1
 673 -247 673 -247 527 -247 c 0,2,3
 519 -247 519 -247 507.5 -247.5 c 2,4,-1
 483.5 -248.5 l 2,5,6
 461.625 -249.375 461.625 -249.375 438 -252 c 1,7,-1
 493 17 l 1,8,-1
 586 14 l 1,9,-1
 559 -127 l 1,10,11
 568 -126 568 -126 577 -126 c 2,12,-1
 596 -126 l 2,13,14
 763.484 -126 763.484 -126 825.5 -207 c 0,15,16
 850 -239 850 -239 850 -286 c 128,-1,17
 850 -333 850 -333 829 -369.5 c 128,-1,18
 808 -406 808 -406 773 -435.5 c 128,-1,19
 738 -465 738 -465 692 -488.5 c 128,-1,20
 646 -512 646 -512 595 -527.5 c 0,21,22
 488.065 -560 488.065 -560 394 -560 c 1,23,-1
 386 -485 l 1,24,25
 568.757 -471.293 568.757 -471.293 643 -402 c 0,26,27
 673 -374 673 -374 673 -332 c 0,0,1
EndSplineSet
EndChar

StartChar: circumflex
Encoding: 710 710 71
Width: 1707
Flags: HW
LayerCount: 2
Fore
SplineSet
276 1212 m 1,0,-1
 542 1535 l 1,1,2
 588.769 1599 588.769 1599 651 1599 c 0,3,4
 717.3 1599 717.3 1599 767 1528 c 1,5,-1
 1018 1210 l 1,6,-1
 985 1179 l 1,7,-1
 651 1383 l 1,8,-1
 307 1179 l 1,9,-1
 276 1212 l 1,0,-1
EndSplineSet
EndChar

StartChar: macron
Encoding: 175 175 72
Width: 1707
Flags: HW
LayerCount: 2
Fore
SplineSet
505 1414 m 1,0,-1
 1162 1414 l 1,1,-1
 1162 1291 l 1,2,-1
 505 1291 l 1,3,-1
 505 1414 l 1,0,-1
EndSplineSet
EndChar

StartChar: ogonek
Encoding: 731 731 73
Width: 1707
Flags: HW
LayerCount: 2
Fore
SplineSet
725 -555 m 0,0,1
 452 -555 452 -555 452 -352 c 0,2,3
 452 -194.827 452 -194.827 667.5 -48.5 c 0,4,5
 738.767 -0.108517 738.767 -0.108517 814 35 c 1,6,-1
 927 117 l 1,7,-1
 941 104 l 2,8,9
 942 103 942 103 954 105.5 c 128,-1,10
 966 108 966 108 978 109 c 128,-1,11
 990 110 990 110 996 108 c 128,-1,12
 1002 106 1002 106 991 97 c 0,13,14
 815.225 -51.8915 815.225 -51.8915 770.113 -108.946 c 128,-1,15
 725 -166 725 -166 710.5 -205 c 128,-1,16
 696 -244 696 -244 696 -283 c 128,-1,17
 696 -322 696 -322 704.5 -349.5 c 128,-1,18
 713 -377 713 -377 729.5 -397 c 0,19,20
 764.15 -439 764.15 -439 805.575 -439 c 128,-1,21
 847 -439 847 -439 874 -429.5 c 128,-1,22
 901 -420 901 -420 925.5 -405 c 0,23,24
 974.887 -374.763 974.887 -374.763 1003 -338 c 1,25,-1
 1050 -390 l 1,26,27
 1023.83 -434.492 1023.83 -434.492 957.414 -475.246 c 0,28,29
 827.444 -555 827.444 -555 725 -555 c 0,0,1
EndSplineSet
EndChar

StartChar: dotlessi
Encoding: 305 305 74
Width: 683
Flags: HW
LayerCount: 2
Fore
SplineSet
61 78 m 1,0,-1
 223 78 l 1,1,-1
 223 945 l 1,2,-1
 75 945 l 1,3,-1
 75 1023 l 1,4,-1
 488 1023 l 1,5,-1
 488 78 l 1,6,-1
 650 78 l 1,7,-1
 650 0 l 1,8,-1
 61 0 l 1,9,-1
 61 78 l 1,0,-1
EndSplineSet
EndChar

StartChar: breve
Encoding: 728 728 75
Width: 1707
Flags: HW
LayerCount: 2
Fore
SplineSet
1002 1576 m 1,0,1
 1007 1541 1007 1541 1007 1498 c 128,-1,2
 1007 1455 1007 1455 984.5 1400.5 c 128,-1,3
 962 1346 962 1346 919.5 1305 c 0,4,5
 828.281 1217 828.281 1217 681 1217 c 256,6,7
 533.719 1217 533.719 1217 442.5 1305 c 0,8,9
 355 1389.41 355 1389.41 355 1518 c 0,10,11
 355 1541 355 1541 360 1576 c 1,12,-1
 417 1576 l 1,13,14
 491 1389 491 1389 681 1389 c 256,15,16
 871 1389 871 1389 945 1576 c 1,17,-1
 1002 1576 l 1,0,1
EndSplineSet
EndChar

StartChar: germandbls
Encoding: 223 223 76
Width: 1366
Flags: HW
LayerCount: 2
Fore
SplineSet
689 1615 m 0,0,1
 461 1615 461 1615 461 1187 c 2,2,-1
 461 0 l 1,3,-1
 47 0 l 1,4,-1
 47 78 l 1,5,-1
 200 78 l 1,6,-1
 200 945 l 1,7,-1
 22 945 l 1,8,-1
 22 1023 l 1,9,-1
 200 1023 l 1,10,-1
 200 1105 l 2,11,12
 200 1367.46 200 1367.46 338 1524 c 0,13,14
 479.053 1684 479.053 1684 720 1684 c 0,15,16
 927.884 1684 927.884 1684 1050.5 1589 c 0,17,18
 1163 1501.84 1163 1501.84 1163 1374 c 0,19,20
 1163 1170.68 1163 1170.68 977.5 1065.5 c 0,21,22
 855.908 996.556 855.908 996.556 823.954 962.278 c 128,-1,23
 792 928 792 928 792 898.5 c 128,-1,24
 792 869 792 869 806.5 851 c 128,-1,25
 821 833 821 833 844.5 814 c 128,-1,26
 868 795 868 795 897.5 776 c 128,-1,27
 927 757 927 757 956.5 740 c 0,28,29
 1026.5 701.25 1026.5 701.25 1084.75 671.625 c 128,-1,30
 1143 642 1143 642 1197 602 c 128,-1,31
 1251 562 1251 562 1281.5 522.5 c 0,32,33
 1334 454.508 1334 454.508 1334 366.754 c 128,-1,34
 1334 279 1334 279 1307 211 c 128,-1,35
 1280 143 1280 143 1227.5 91.5 c 0,36,37
 1113.83 -20 1113.83 -20 926 -20 c 0,38,39
 796.532 -20 796.532 -20 696 32.5 c 0,40,41
 600.338 82.4571 600.338 82.4571 586 148 c 1,42,43
 587.978 179.643 587.978 179.643 610.489 203.821 c 0,44,45
 649.711 245.949 649.711 245.949 684 252 c 1,46,47
 744.411 135.205 744.411 135.205 859 83.5 c 0,48,49
 900 65 900 65 944 65 c 128,-1,50
 988 65 988 65 1027.5 75.5 c 128,-1,51
 1067 86 1067 86 1096 107.5 c 0,52,53
 1160 154.948 1160 154.948 1160 242 c 0,54,55
 1160 330.308 1160 330.308 1005.5 413.5 c 1,56,-1
 910 464 l 1,57,58
 783.578 528.501 783.578 528.501 732.789 576.751 c 0,59,60
 632 672.5 632 672.5 632 787 c 0,61,62
 632 885.607 632 885.607 703.5 970 c 0,63,64
 734 1006 734 1006 770 1040.5 c 128,-1,65
 806 1075 806 1075 836.5 1116 c 0,66,67
 908 1212.11 908 1212.11 908 1336 c 0,68,69
 908 1476.8 908 1476.8 842 1550.5 c 0,70,71
 784.239 1615 784.239 1615 689 1615 c 0,0,1
EndSplineSet
EndChar

StartChar: eth
Encoding: 240 240 77
Width: 1362
Flags: HW
LayerCount: 2
Fore
SplineSet
1217 598 m 1,0,-1
 1216 560 l 1,1,2
 1206.52 264.228 1206.52 264.228 1052 114 c 0,3,4
 914.171 -20 914.171 -20 680 -20 c 0,5,6
 452.714 -20 452.714 -20 301.5 126 c 0,7,8
 145 277.103 145 277.103 145 515 c 0,9,10
 145 747.603 145 747.603 302 896 c 0,11,12
 454.348 1040 454.348 1040 680 1040 c 0,13,14
 818 1040 818 1040 910 990 c 1,15,16
 855.112 1246.8 855.112 1246.8 667 1418 c 1,17,-1
 458 1237 l 1,18,-1
 397 1306 l 1,19,-1
 594 1477 l 1,20,21
 457.281 1574.95 457.281 1574.95 295 1605 c 1,22,-1
 315 1684 l 1,23,24
 518.714 1657.09 518.714 1657.09 688 1558 c 1,25,-1
 911 1751 l 1,26,-1
 971 1682 l 1,27,-1
 769 1506 l 1,28,29
 982.872 1352.4 982.872 1352.4 1102.5 1101.5 c 0,30,31
 1217 861.354 1217 861.354 1217 598 c 1,0,-1
680 65 m 256,32,33
 952 65 952 65 952 505 c 0,34,35
 952 851.776 952 851.776 780.5 934.5 c 0,36,37
 738 955 738 955 671.5 955 c 128,-1,38
 605 955 605 955 555.5 921.5 c 128,-1,39
 506 888 506 888 476.5 829.5 c 0,40,41
 423 723.407 423 723.407 423 515 c 0,42,43
 423 191.848 423 191.848 555.5 99.5 c 0,44,45
 605 65 605 65 680 65 c 256,32,33
EndSplineSet
EndChar

StartChar: ring
Encoding: 730 730 78
Width: 1707
Flags: HW
LayerCount: 2
Fore
SplineSet
690 1151 m 0,0,1
 629 1151 629 1151 578.5 1166.5 c 128,-1,2
 528 1182 528 1182 490.5 1210.5 c 0,3,4
 411 1270.92 411 1270.92 411 1370 c 0,5,6
 411 1467.08 411 1467.08 490.5 1527.5 c 0,7,8
 568.789 1587 568.789 1587 689 1587 c 0,9,10
 812.754 1587 812.754 1587 890 1527.5 c 0,11,12
 967 1468.19 967 1468.19 967 1370 c 0,13,14
 967 1269.81 967 1269.81 890 1210.5 c 0,15,16
 812.754 1151 812.754 1151 690 1151 c 0,0,1
563 1368 m 128,-1,18
 563 1218 563 1218 689.5 1218 c 128,-1,19
 816 1218 816 1218 816 1368 c 128,-1,20
 816 1518 816 1518 689.5 1518 c 128,-1,17
 563 1518 563 1518 563 1368 c 128,-1,18
EndSplineSet
EndChar

StartChar: caron
Encoding: 711 711 79
Width: 1707
Flags: HW
LayerCount: 2
Fore
SplineSet
542 1248 m 1,0,-1
 276 1571 l 1,1,-1
 307 1604 l 1,2,-1
 651 1392 l 1,3,-1
 985 1604 l 1,4,-1
 1018 1573 l 1,5,-1
 767 1255 l 1,6,7
 717.3 1184 717.3 1184 653.035 1184 c 128,-1,8
 588.769 1184 588.769 1184 542 1248 c 1,0,-1
EndSplineSet
EndChar

StartChar: commaaccent
Encoding: 63171 63171 80
Width: 682
Flags: HW
LayerCount: 2
Fore
SplineSet
187 -230.5 m 0,0,1
 187 -179 187 -179 227 -141.5 c 128,-1,2
 267 -104 267 -104 340.5 -104 c 128,-1,3
 414 -104 414 -104 455 -153.5 c 128,-1,4
 496 -203 496 -203 496 -290 c 0,5,6
 496 -360.456 496 -360.456 433.5 -440.5 c 0,7,8
 373.618 -517.191 373.618 -517.191 288 -560 c 1,9,-1
 240 -500 l 1,10,11
 291.698 -472.428 291.698 -472.428 328 -421 c 0,12,13
 340 -404 340 -404 346 -386 c 1,14,-1
 342 -386 l 2,15,16
 187 -386 187 -386 187 -230.5 c 0,0,1
EndSplineSet
EndChar

StartChar: dotaccent
Encoding: 729 729 81
Width: 879
Flags: HW
LayerCount: 2
Fore
SplineSet
478 1227 m 256,0,1
 424.571 1227 424.571 1227 396.286 1254.5 c 0,2,3
 348 1301.44 348 1301.44 348 1356 c 256,4,5
 348 1411 348 1411 376 1439 c 0,6,7
 425 1488 425 1488 478 1488 c 256,8,9
 532 1488 532 1488 571 1449 c 128,-1,10
 610 1410 610 1410 610 1356 c 256,11,12
 610 1302.42 610 1302.42 571 1264.5 c 0,13,14
 532.429 1227 532.429 1227 478 1227 c 256,0,1
EndSplineSet
EndChar

StartChar: thorn
Encoding: 254 254 82
Width: 1365
Flags: HW
LayerCount: 2
Fore
SplineSet
472 -482 m 1,0,-1
 652 -482 l 1,1,-1
 652 -560 l 1,2,-1
 61 -560 l 1,3,-1
 61 -482 l 1,4,-1
 211 -482 l 1,5,-1
 212 1604 l 1,6,-1
 62 1604 l 1,7,-1
 62 1684 l 1,8,-1
 472 1684 l 1,9,-1
 472 915 l 1,10,11
 591.792 1040 591.792 1040 807 1040 c 0,12,13
 1014.47 1040 1014.47 1040 1139.5 914 c 0,14,15
 1279 773.419 1279 773.419 1279 507 c 0,16,17
 1279 267.409 1279 267.409 1129.5 119 c 0,18,19
 989.478 -20 989.478 -20 780 -20 c 0,20,21
 647.265 -20 647.265 -20 534.5 34 c 0,22,23
 499 51 499 51 472 72 c 1,24,-1
 472 -482 l 1,0,-1
738 66 m 0,25,26
 999 66 999 66 999 506 c 0,27,28
 999 833.414 999 833.414 858 918.5 c 0,29,30
 809.114 948 809.114 948 733.557 947 c 128,-1,31
 658 946 658 946 588 904.5 c 128,-1,32
 518 863 518 863 472 794 c 1,33,-1
 472 179 l 1,34,35
 549.9 98.1043 549.9 98.1043 668 73.5 c 0,36,37
 704 66 704 66 738 66 c 0,25,26
EndSplineSet
EndChar

StartChar: six
Encoding: 54 54 83
Width: 1365
Flags: HW
LayerCount: 2
Fore
SplineSet
958 1431 m 1,0,1
 905.2 1479 905.2 1479 804.1 1479 c 128,-1,2
 703 1479 703 1479 630.5 1430.5 c 128,-1,3
 558 1382 558 1382 507.5 1293.5 c 0,4,5
 405.293 1114.39 405.293 1114.39 393 805 c 1,6,7
 486.996 922.495 486.996 922.495 661.5 966.5 c 0,8,9
 719 981 719 981 795.5 981 c 128,-1,10
 872 981 872 981 958.5 956 c 128,-1,11
 1045 931 1045 931 1112.5 876 c 0,12,13
 1262 754.185 1262 754.185 1262 525 c 0,14,15
 1262 291.129 1262 291.129 1093.5 133.5 c 0,16,17
 929.414 -20 929.414 -20 695 -20 c 0,18,19
 429.063 -20 429.063 -20 272.5 177 c 0,20,21
 114 376.437 114 376.437 114 712 c 0,22,23
 114 1053.32 114 1053.32 291.5 1291.5 c 0,24,25
 412.48 1453.84 412.48 1453.84 601.5 1517.5 c 0,26,27
 698 1550 698 1550 795 1550 c 128,-1,28
 892 1550 892 1550 957.5 1534 c 128,-1,29
 1023 1518 1023 1518 1070 1490 c 0,30,31
 1176 1426.85 1176 1426.85 1176 1326 c 0,32,33
 1176 1262 1176 1262 1140.5 1221 c 128,-1,34
 1105 1180 1105 1180 1056.5 1180 c 128,-1,35
 1008 1180 1008 1180 982.5 1192 c 128,-1,36
 957 1204 957 1204 939 1223.5 c 0,37,38
 902 1263.58 902 1263.58 902 1328.98 c 128,-1,39
 902 1394.38 902 1394.38 958 1431 c 1,0,1
1028 1450 m 1,40,-1
 1033 1450 l 1,41,-1
 1031 1452 l 1,42,-1
 1028 1450 l 1,40,-1
554.5 108.5 m 0,43,44
 613 63 613 63 690.5 63 c 128,-1,45
 768 63 768 63 824 96 c 128,-1,46
 880 129 880 129 918.5 187 c 0,47,48
 997 305.26 997 305.26 997 494.63 c 128,-1,49
 997 684 997 684 933.5 782.5 c 128,-1,50
 870 881 870 881 730 881 c 0,51,52
 627 881 627 881 538.5 828.5 c 128,-1,53
 450 776 450 776 390 676 c 1,54,55
 390 236.444 390 236.444 554.5 108.5 c 0,43,44
EndSplineSet
EndChar

StartChar: seven
Encoding: 55 55 84
Width: 1195
Flags: HW
LayerCount: 2
Fore
SplineSet
421 0 m 1,0,1
 419 30 419 30 419 101 c 128,-1,2
 419 172 419 172 443.5 291 c 128,-1,3
 468 410 468 410 510 528 c 128,-1,4
 552 646 552 646 606.5 759.5 c 128,-1,5
 661 873 661 873 721 975 c 0,6,7
 837.06 1172.3 837.06 1172.3 960 1315 c 1,8,-1
 411 1315 l 2,9,10
 328 1315 328 1315 275.5 1287.5 c 128,-1,11
 223 1260 223 1260 199 1191 c 0,12,13
 193 1171 193 1171 185 1141 c 2,14,-1
 171 1088 l 1,15,-1
 93 1088 l 1,16,-1
 158 1530 l 1,17,-1
 1126 1530 l 1,18,-1
 1126 1460 l 1,19,20
 844.658 1023.02 844.658 1023.02 764 481 c 0,21,22
 739 313 739 313 739 189.75 c 128,-1,23
 739 66.5 739 66.5 746 0 c 1,24,-1
 421 0 l 1,0,1
EndSplineSet
EndChar

StartChar: nine
Encoding: 57 57 85
Width: 1365
Flags: HW
LayerCount: 2
Fore
SplineSet
395 99 m 1,0,1
 450.2 51 450.2 51 553.6 51 c 128,-1,2
 657 51 657 51 728.5 97 c 128,-1,3
 800 143 800 143 849 229.5 c 0,4,5
 946.776 402.105 946.776 402.105 959 724 c 1,6,7
 861.544 606.381 861.544 606.381 691.5 563.5 c 0,8,9
 634 549 634 549 557.5 549 c 128,-1,10
 481 549 481 549 394.5 574 c 128,-1,11
 308 599 308 599 240.5 654 c 0,12,13
 91 775.815 91 775.815 91 1005 c 0,14,15
 91 1238.87 91 1238.87 259.5 1396.5 c 0,16,17
 423.586 1550 423.586 1550 658 1550 c 0,18,19
 924.629 1550 924.629 1550 1080.5 1358 c 0,20,21
 1239 1162.76 1239 1162.76 1239 828 c 0,22,23
 1239 482.2 1239 482.2 1068.5 243.5 c 0,24,25
 949.869 77.4163 949.869 77.4163 761.5 13 c 0,26,27
 665 -20 665 -20 566.5 -20 c 128,-1,28
 468 -20 468 -20 401.5 -4.5 c 128,-1,29
 335 11 335 11 286 39 c 0,30,31
 185.209 96.5948 185.209 96.5948 177 191 c 1,32,-1
 177 204 l 2,33,34
 177 268 177 268 212.5 309 c 128,-1,35
 248 350 248 350 296.5 350 c 128,-1,36
 345 350 345 350 370.5 338 c 128,-1,37
 396 326 396 326 414 306.5 c 0,38,39
 451 266.417 451 266.417 451 201.016 c 128,-1,40
 451 135.615 451 135.615 395 99 c 1,0,1
623 649 m 0,41,42
 726 649 726 649 814.5 701 c 128,-1,43
 903 753 903 753 963 853 c 1,44,45
 963 1293.56 963 1293.56 798.5 1421.5 c 0,46,47
 740 1467 740 1467 662.5 1467 c 128,-1,48
 585 1467 585 1467 529 1434 c 128,-1,49
 473 1401 473 1401 434.5 1343 c 0,50,51
 356 1224.74 356 1224.74 356 1035.37 c 128,-1,52
 356 846 356 846 419.5 747.5 c 128,-1,53
 483 649 483 649 623 649 c 0,41,42
322 78 m 1,54,-1
 324 80 l 1,55,-1
 319 80 l 1,56,-1
 322 78 l 1,54,-1
EndSplineSet
EndChar

StartChar: zero
Encoding: 48 48 86
Width: 1537
Flags: HW
LayerCount: 2
Fore
SplineSet
1018 35.5 m 128,-1,1
 903 -20 903 -20 770 -20 c 128,-1,2
 637 -20 637 -20 523 35.5 c 128,-1,3
 409 91 409 91 324.5 193 c 0,4,5
 142 413.296 142 413.296 142 761 c 0,6,7
 142 1109.37 142 1109.37 325 1332.5 c 0,8,9
 503.381 1550 503.381 1550 768 1550 c 0,10,11
 902 1550 902 1550 1017 1493 c 128,-1,12
 1132 1436 1132 1436 1216 1332.5 c 0,13,14
 1395 1111.95 1395 1111.95 1395 761 c 256,15,16
 1395 411.048 1395 411.048 1216.5 193 c 0,17,0
 1133 91 1133 91 1018 35.5 c 128,-1,1
768 63 m 256,18,19
 1058.42 63 1058.42 63 1093 576 c 0,20,21
 1099 665 1099 665 1099 790 c 128,-1,22
 1099 915 1099 915 1085 1044.5 c 128,-1,23
 1071 1174 1071 1174 1034 1268 c 0,24,25
 955.67 1467 955.67 1467 768 1467 c 0,26,27
 496.544 1467 496.544 1467 452.5 1044.5 c 0,28,29
 439 915 439 915 439 790 c 128,-1,30
 439 665 439 665 445 576 c 128,-1,31
 451 487 451 487 465 409.5 c 128,-1,32
 479 332 479 332 503 268 c 128,-1,33
 527 204 527 204 563.5 158.5 c 0,34,35
 640.11 63 640.11 63 768 63 c 256,18,19
EndSplineSet
EndChar

StartChar: eight
Encoding: 56 56 87
Width: 1366
Flags: HW
LayerCount: 2
Fore
SplineSet
193 374 m 0,0,1
 193 603.774 193 603.774 487 748 c 1,2,3
 218 911.321 218 911.321 218 1129 c 0,4,5
 218 1322.23 218 1322.23 384 1442.5 c 0,6,7
 532.38 1550 532.38 1550 706 1550 c 2,8,-1
 716 1550 l 2,9,10
 928.722 1550 928.722 1550 1058 1445.5 c 0,11,12
 1181 1346.07 1181 1346.07 1181 1186 c 0,13,14
 1181 1006.57 1181 1006.57 1002 892.5 c 0,15,16
 951 860 951 860 898 838 c 1,17,18
 1065.34 756.79 1065.34 756.79 1129.17 694.895 c 128,-1,19
 1193 633 1193 633 1223 572 c 128,-1,20
 1253 511 1253 511 1253 428.5 c 128,-1,21
 1253 346 1253 346 1214 264.5 c 128,-1,22
 1175 183 1175 183 1105 120 c 0,23,24
 949.444 -20 949.444 -20 728 -20 c 0,25,26
 478.676 -20 478.676 -20 334.5 90.5 c 0,27,28
 193 198.949 193 198.949 193 374 c 0,0,1
824 874 m 1,29,30
 987 975.875 987 975.875 987 1169 c 0,31,32
 987 1326.42 987 1326.42 901 1404.5 c 0,33,34
 829.957 1469 829.957 1469 718 1469 c 256,35,36
 538.33 1469 538.33 1469 469 1334.5 c 0,37,38
 444 1286 444 1286 444 1223 c 128,-1,39
 444 1160 444 1160 474 1114 c 128,-1,40
 504 1068 504 1068 554 1028 c 0,41,42
 617.333 977.333 617.333 977.333 824 874 c 1,29,30
407.5 508.5 m 128,-1,44
 394 463 394 463 394 394.5 c 128,-1,45
 394 326 394 326 421.5 264.5 c 128,-1,46
 449 203 449 203 495.5 161 c 0,47,48
 590.714 75 590.714 75 728 75 c 0,49,50
 861.616 75 861.616 75 942 156.5 c 0,51,52
 1014 229.5 1014 229.5 1014 333 c 0,53,54
 1014 472.559 1014 472.559 811 577.5 c 2,55,-1
 688 641 l 1,56,57
 623 672 623 672 559 707 c 1,58,59
 481.312 650.5 481.312 650.5 451.156 602.25 c 128,-1,43
 421 554 421 554 407.5 508.5 c 128,-1,44
EndSplineSet
EndChar

StartChar: at
Encoding: 64 64 88
Width: 2385
Flags: HW
LayerCount: 2
Fore
SplineSet
1838 -299 m 1,0,1
 1550.62 -420 1550.62 -420 1164 -420 c 0,2,3
 817.879 -420 817.879 -420 543.5 -238 c 0,4,5
 332.675 -98.1565 332.675 -98.1565 245.5 149 c 0,6,7
 200 278 200 278 200 444.5 c 128,-1,8
 200 611 200 611 245.5 750.5 c 128,-1,9
 291 890 291 890 370.5 1002 c 128,-1,10
 450 1114 450 1114 558 1198.5 c 128,-1,11
 666 1283 666 1283 791 1339.5 c 0,12,13
 1042.11 1453 1042.11 1453 1323 1453 c 0,14,15
 1696.14 1453 1696.14 1453 1934.5 1275 c 0,16,17
 2184 1088.68 2184 1088.68 2184 777 c 0,18,19
 2184 478.176 2184 478.176 2017 238.5 c 0,20,21
 1904.68 77.3039 1904.68 77.3039 1741 13 c 0,22,23
 1657 -20 1657 -20 1555.5 -20 c 128,-1,24
 1454 -20 1454 -20 1392 8.5 c 128,-1,25
 1330 37 1330 37 1317 108 c 1,26,27
 1176.46 -18 1176.46 -18 999 -18 c 0,28,29
 870.88 -18 870.88 -18 781 101.5 c 0,30,31
 684 230.466 684 230.466 684 444 c 0,32,33
 684 708.873 684 708.873 860.5 882 c 0,34,35
 939 959 939 959 1037.5 999.5 c 128,-1,36
 1136 1040 1136 1040 1241.65 1040 c 128,-1,37
 1347.31 1040 1347.31 1040 1429 981 c 1,38,-1
 1435 1020 l 1,39,-1
 1675 1020 l 1,40,-1
 1565 219 l 2,41,42
 1564 214 1564 214 1562.5 204 c 2,43,-1
 1559.5 183.5 l 2,44,45
 1556 159 1556 159 1556 153 c 0,46,47
 1556 71 1556 71 1608 71 c 0,48,49
 1732.91 71 1732.91 71 1850 180.5 c 0,50,51
 2018.13 337.735 2018.13 337.735 2076 611 c 0,52,53
 2094 696 2094 696 2094 807.5 c 128,-1,54
 2094 919 2094 919 2040 1028.5 c 128,-1,55
 1986 1138 1986 1138 1886 1214 c 0,56,57
 1679.42 1371 1679.42 1371 1323 1371 c 0,58,59
 1036.68 1371 1036.68 1371 799.5 1255 c 0,60,61
 565.505 1140.56 565.505 1140.56 431.5 933 c 0,62,63
 293 718.481 293 718.481 293 444 c 0,64,65
 293 173.539 293 173.539 432 -16.5 c 0,66,67
 551.167 -179.424 551.167 -179.424 765 -266.5 c 0,68,69
 950.405 -342 950.405 -342 1167 -342 c 0,70,71
 1520.04 -342 1520.04 -342 1807 -222 c 1,72,-1
 1838 -299 l 1,0,1
1417 895 m 1,73,74
 1359.48 944 1359.48 944 1283.74 944 c 128,-1,75
 1208 944 1208 944 1161 923 c 128,-1,76
 1114 902 1114 902 1078 867 c 128,-1,77
 1042 832 1042 832 1016.5 785 c 128,-1,78
 991 738 991 738 974.5 686.5 c 0,79,80
 942 585.061 942 585.061 942 514.53 c 128,-1,81
 942 444 942 444 945.5 404 c 128,-1,82
 949 364 949 364 957.5 324.5 c 128,-1,83
 966 285 966 285 980 248.5 c 128,-1,84
 994 212 994 212 1014.5 184 c 0,85,86
 1059.16 123 1059.16 123 1130 123 c 0,87,88
 1232.18 123 1232.18 123 1323 234 c 1,89,-1
 1417 895 l 1,73,74
EndSplineSet
EndChar

StartChar: quotesingle
Encoding: 39 39 89
Width: 855
Flags: HW
LayerCount: 2
Fore
SplineSet
301 1559 m 2,0,1
 293.056 1606.67 293.056 1606.67 333 1645.5 c 0,2,3
 372.6 1684 372.6 1684 432 1684 c 0,4,5
 484.455 1684 484.455 1684 511.727 1659 c 0,6,7
 563.169 1611.85 563.169 1611.85 552 1556 c 1,8,-1
 463 1020 l 1,9,-1
 385 1020 l 1,10,-1
 301 1559 l 2,0,1
EndSplineSet
EndChar

StartChar: quoteright
Encoding: 8217 8217 91
Width: 684
Flags: HW
LayerCount: 2
Fore
SplineSet
223 1108 m 1,0,1
 299.853 1162.44 299.853 1162.44 342 1290.5 c 0,2,3
 355 1330 355 1330 358 1369 c 1,4,-1
 349 1369 l 2,5,6
 246.542 1369 246.542 1369 206.5 1463.5 c 0,7,8
 194 1493 194 1493 194 1528 c 128,-1,9
 194 1563 194 1563 205.5 1590.5 c 128,-1,10
 217 1618 217 1618 237.5 1638 c 0,11,12
 281.575 1681 281.575 1681 330.788 1681 c 128,-1,13
 380 1681 380 1681 408.5 1669 c 128,-1,14
 437 1657 437 1657 458 1631.5 c 0,15,16
 503 1576.86 503 1576.86 503 1495.93 c 128,-1,17
 503 1415 503 1415 481.5 1349.5 c 128,-1,18
 460 1284 460 1284 426.5 1225 c 0,19,20
 355.575 1100.09 355.575 1100.09 275 1050 c 1,21,-1
 223 1108 l 1,0,1
EndSplineSet
EndChar

StartChar: hungarumlaut
Encoding: 733 733 92
Width: 1381
Flags: HW
LayerCount: 2
Fore
SplineSet
908 1213 m 1,0,-1
 1126 1572 l 1,1,2
 1167.35 1637.78 1167.35 1637.78 1225 1640 c 1,3,4
 1291.59 1640 1291.59 1640 1322 1577.5 c 0,5,6
 1342.13 1536.13 1342.13 1536.13 1325.56 1501.57 c 128,-1,7
 1309 1467 1309 1467 1280 1445 c 2,8,-1
 941 1182 l 1,9,-1
 908 1213 l 1,0,-1
536 1206 m 1,10,-1
 738 1565 l 2,11,12
 775.573 1630.75 775.573 1630.75 834 1633 c 1,13,14
 875.286 1633 875.286 1633 899.643 1611 c 0,15,16
 965.608 1551.42 965.608 1551.42 936.5 1483.5 c 0,17,18
 926 1459 926 1459 898 1438 c 1,19,-1
 571 1175 l 1,20,-1
 536 1206 l 1,10,-1
EndSplineSet
EndChar

StartChar: fi
Encoding: 64257 64257 96
Width: 1370
Flags: HW
LayerCount: 2
Fore
SplineSet
1011 1545 m 1,0,1
 947.667 1621 947.667 1621 791 1621 c 0,2,3
 670.422 1621 670.422 1621 616 1542 c 0,4,5
 551 1447.65 551 1447.65 551 1216 c 2,6,-1
 551 1023 l 1,7,-1
 1210 1023 l 1,8,-1
 1210 78 l 1,9,-1
 1372 78 l 1,10,-1
 1372 0 l 1,11,-1
 783 0 l 1,12,-1
 783 78 l 1,13,-1
 945 78 l 1,14,-1
 945 945 l 1,15,-1
 550 945 l 1,16,-1
 550 78 l 1,17,-1
 712 78 l 1,18,-1
 712 0 l 1,19,-1
 128 0 l 1,20,-1
 128 78 l 1,21,-1
 290 78 l 1,22,-1
 290 945 l 1,23,-1
 128 945 l 1,24,-1
 128 1023 l 1,25,-1
 290 1023 l 1,26,-1
 290 1235 l 2,27,28
 290 1465.88 290 1465.88 445.5 1590.5 c 0,29,30
 582.133 1700 582.133 1700 797 1700 c 0,31,32
 941.609 1700 941.609 1700 1065 1634 c 0,33,34
 1155.03 1585.85 1155.03 1585.85 1194 1504 c 0,35,36
 1214 1462 1214 1462 1214 1420 c 128,-1,37
 1214 1378 1214 1378 1201.5 1351.5 c 128,-1,38
 1189 1325 1189 1325 1168 1305.5 c 0,39,40
 1123.31 1264 1123.31 1264 1064 1264 c 256,41,42
 1005.61 1264 1005.61 1264 959 1309.5 c 0,43,44
 913 1354.4 913 1354.4 913 1412 c 0,45,46
 913 1483.75 913 1483.75 970 1526.5 c 0,47,48
 988 1540 988 1540 1011 1545 c 1,0,1
1028 1548 m 1,49,50
 1026 1550 1026 1550 1026 1548 c 1,51,-1
 1028 1548 l 1,49,50
EndSplineSet
EndChar

StartChar: fl
Encoding: 64258 64258 97
Width: 1534
Flags: HW
LayerCount: 2
Fore
SplineSet
1011 1598 m 1,0,1
 909.867 1635 909.867 1635 815.433 1635 c 128,-1,2
 721 1635 721 1635 677 1616 c 128,-1,3
 633 1597 633 1597 605.5 1549 c 0,4,5
 553 1457.36 553 1457.36 553 1216 c 2,6,-1
 553 1023 l 1,7,-1
 814 1023 l 1,8,-1
 814 945 l 1,9,-1
 552 945 l 1,10,-1
 552 78 l 1,11,-1
 724 78 l 1,12,-1
 724 0 l 1,13,-1
 130 0 l 1,14,-1
 130 78 l 1,15,-1
 292 78 l 1,16,-1
 292 945 l 1,17,-1
 130 945 l 1,18,-1
 130 1023 l 1,19,-1
 292 1023 l 1,20,-1
 292 1235 l 2,21,22
 292 1700 292 1700 775 1700 c 1,23,-1
 1011 1684 l 1,24,-1
 1276 1684 l 1,25,-1
 1276 78 l 1,26,-1
 1424 78 l 1,27,-1
 1424 0 l 1,28,-1
 835 0 l 1,29,-1
 835 78 l 1,30,-1
 1011 78 l 1,31,-1
 1011 1598 l 1,0,1
EndSplineSet
EndChar

StartChar: ff
Encoding: 64256 64256 98
Width: 1534
Flags: HW
LayerCount: 2
Fore
SplineSet
125 78 m 1,0,-1
 287 78 l 1,1,-1
 287 945 l 1,2,-1
 125 945 l 1,3,-1
 125 1023 l 1,4,-1
 287 1023 l 1,5,-1
 287 1246 l 2,6,7
 287 1454.44 287 1454.44 397 1565.5 c 0,8,9
 500.505 1670 500.505 1670 678 1670 c 0,10,11
 808.242 1670 808.242 1670 890 1599 c 0,12,13
 970 1529.53 970 1529.53 970 1427 c 0,14,15
 970 1337.96 970 1337.96 889 1304.5 c 0,16,17
 866 1295 866 1295 842 1295 c 256,18,19
 792.133 1295 792.133 1295 766.067 1318 c 0,20,21
 720 1358.65 720 1358.65 720 1399.32 c 128,-1,22
 720 1440 720 1440 729.5 1461.5 c 128,-1,23
 739 1483 739 1483 754 1498 c 0,24,25
 782.062 1526.06 782.062 1526.06 826 1533 c 1,26,27
 815 1557 815 1557 782 1574 c 128,-1,28
 749 1591 749 1591 703.5 1591 c 128,-1,29
 658 1591 658 1591 628 1571.5 c 128,-1,30
 598 1552 598 1552 580 1514 c 0,31,32
 548 1446.44 548 1446.44 548 1295 c 2,33,-1
 548 1023 l 1,34,-1
 995 1023 l 1,35,-1
 995 1276 l 2,36,37
 995 1483.28 995 1483.28 1111.5 1595.5 c 0,38,39
 1219.98 1700 1219.98 1700 1396 1700 c 0,40,41
 1538 1700 1538 1700 1629 1622 c 0,42,43
 1717 1546.57 1717 1546.57 1717 1436 c 0,44,45
 1717 1379 1717 1379 1677.5 1339.5 c 0,46,47
 1641 1303 1641 1303 1590 1303 c 256,48,49
 1540.65 1303 1540.65 1303 1514.32 1327 c 0,50,51
 1468 1369.24 1468 1369.24 1468 1409.62 c 128,-1,52
 1468 1450 1468 1450 1477.5 1472 c 128,-1,53
 1487 1494 1487 1494 1502 1509 c 0,54,55
 1531.53 1538.53 1531.53 1538.53 1574 1543 c 1,56,57
 1561 1576 1561 1576 1519.5 1598.5 c 128,-1,58
 1478 1621 1478 1621 1425.5 1621 c 128,-1,59
 1373 1621 1373 1621 1341 1601.5 c 128,-1,60
 1309 1582 1309 1582 1290 1544 c 0,61,62
 1256 1476 1256 1476 1256 1325 c 2,63,-1
 1256 1023 l 1,64,-1
 1477 1023 l 1,65,-1
 1477 945 l 1,66,-1
 1255 945 l 1,67,-1
 1255 78 l 1,68,-1
 1427 78 l 1,69,-1
 1427 0 l 1,70,-1
 833 0 l 1,71,-1
 833 78 l 1,72,-1
 995 78 l 1,73,-1
 995 945 l 1,74,-1
 547 945 l 1,75,-1
 547 78 l 1,76,-1
 747 78 l 1,77,-1
 747 0 l 1,78,-1
 125 0 l 1,79,-1
 125 78 l 1,0,-1
EndSplineSet
EndChar

StartChar: Ldot
Encoding: 319 319 99
Width: 1367
Flags: HW
LayerCount: 2
Fore
SplineSet
1106 843 m 256,0,1
 1106 898 1106 898 1134 926 c 0,2,3
 1183 975 1183 975 1236 975 c 256,4,5
 1290 975 1290 975 1329 936 c 128,-1,6
 1368 897 1368 897 1368 843 c 256,7,8
 1368 790 1368 790 1329 751 c 0,9,10
 1291 713 1291 713 1236 713 c 256,11,12
 1182 713 1182 713 1154 741 c 0,13,14
 1106 789 1106 789 1106 843 c 256,0,1
71 79 m 1,15,-1
 285 78 l 1,16,-1
 286 1453 l 1,17,-1
 118 1453 l 1,18,-1
 118 1530 l 1,19,-1
 733 1530 l 1,20,-1
 733 1453 l 1,21,-1
 555 1453 l 1,22,-1
 555 78 l 1,23,-1
 861 78 l 2,24,25
 1124.46 78 1124.46 78 1180 321 c 0,26,27
 1196 391 1196 391 1201 465 c 1,28,-1
 1279 465 l 1,29,-1
 1279 0 l 1,30,-1
 71 0 l 1,31,-1
 71 79 l 1,15,-1
EndSplineSet
EndChar

StartChar: Hbar
Encoding: 294 294 100
Width: 1707
Flags: HW
LayerCount: 2
Fore
SplineSet
65 78 m 1,0,-1
 222 78 l 1,1,-1
 222 1069 l 1,2,-1
 56 1069 l 1,3,-1
 56 1147 l 1,4,-1
 222 1147 l 1,5,-1
 222 1452 l 1,6,-1
 65 1452 l 1,7,-1
 65 1530 l 1,8,-1
 649 1530 l 1,9,-1
 649 1452 l 1,10,-1
 491 1452 l 1,11,-1
 491 1147 l 1,12,-1
 1215 1147 l 1,13,-1
 1215 1452 l 1,14,-1
 1058 1452 l 1,15,-1
 1058 1530 l 1,16,-1
 1642 1530 l 1,17,-1
 1642 1452 l 1,18,-1
 1485 1452 l 1,19,-1
 1485 1147 l 1,20,-1
 1648 1147 l 1,21,-1
 1648 1069 l 1,22,-1
 1485 1069 l 1,23,-1
 1485 78 l 1,24,-1
 1642 78 l 1,25,-1
 1642 0 l 1,26,-1
 1057 0 l 1,27,-1
 1057 78 l 1,28,-1
 1215 78 l 1,29,-1
 1215 728 l 1,30,-1
 491 728 l 1,31,-1
 491 78 l 1,32,-1
 649 78 l 1,33,-1
 649 0 l 1,34,-1
 65 0 l 1,35,-1
 65 78 l 1,0,-1
1215 806 m 1,36,-1
 1215 1069 l 1,37,-1
 491 1069 l 1,38,-1
 491 806 l 1,39,-1
 1215 806 l 1,36,-1
EndSplineSet
EndChar

StartChar: Tbar
Encoding: 358 358 101
Width: 1535
Flags: HW
LayerCount: 2
Fore
SplineSet
433 78 m 1,0,-1
 632 78 l 1,1,-1
 632 743 l 1,2,-1
 320 743 l 1,3,-1
 320 821 l 1,4,-1
 632 821 l 1,5,-1
 632 1453 l 1,6,-1
 486 1453 l 2,7,8
 297.083 1453 297.083 1453 222.5 1338.5 c 0,9,10
 164.152 1248.92 164.152 1248.92 155 1043 c 1,11,-1
 77 1043 l 1,12,-1
 77 1530 l 1,13,-1
 1458 1530 l 1,14,-1
 1458 1043 l 1,15,-1
 1380 1043 l 1,16,17
 1370.85 1248.93 1370.85 1248.93 1312.5 1338.5 c 0,18,19
 1237.92 1453 1237.92 1453 1049 1453 c 2,20,-1
 903 1453 l 1,21,-1
 903 821 l 1,22,-1
 1210 821 l 1,23,-1
 1210 743 l 1,24,-1
 903 743 l 1,25,-1
 903 78 l 1,26,-1
 1102 78 l 1,27,-1
 1102 0 l 1,28,-1
 433 0 l 1,29,-1
 433 78 l 1,0,-1
EndSplineSet
EndChar

StartChar: tbar
Encoding: 359 359 102
Width: 853
Flags: HW
LayerCount: 2
Fore
SplineSet
535 -20 m 0,0,1
 178 -20 178 -20 178 312 c 2,2,-1
 178 601 l 1,3,-1
 50 601 l 1,4,-1
 50 678 l 1,5,-1
 178 678 l 1,6,-1
 178 945 l 1,7,-1
 57 945 l 1,8,-1
 57 1023 l 1,9,-1
 178 1023 l 1,10,-1
 178 1329 l 1,11,12
 269.182 1329 269.182 1329 399.5 1376 c 0,13,14
 430 1387 430 1387 443 1395 c 1,15,-1
 443 1023 l 1,16,-1
 772 1023 l 1,17,-1
 772 945 l 1,18,-1
 443 945 l 1,19,-1
 443 678 l 1,20,-1
 764 678 l 1,21,-1
 764 601 l 1,22,-1
 443 601 l 1,23,-1
 443 240 l 2,24,25
 443 148 443 148 481.5 107.5 c 128,-1,26
 520 67 520 67 584 67 c 0,27,28
 684 67 684 67 764 156 c 1,29,-1
 817 109 l 1,30,31
 744.601 20.1465 744.601 20.1465 621 -10 c 0,32,33
 580 -20 580 -20 535 -20 c 0,0,1
EndSplineSet
EndChar

StartChar: eng
Encoding: 331 331 104
Width: 1365
Flags: HW
LayerCount: 2
Fore
SplineSet
774 945 m 0,0,1
 611.125 945 611.125 945 479 794 c 1,2,-1
 479 78 l 1,3,-1
 661 78 l 1,4,-1
 661 0 l 1,5,-1
 57 0 l 1,6,-1
 57 78 l 1,7,-1
 219 78 l 1,8,-1
 219 945 l 1,9,-1
 56 945 l 1,10,-1
 56 1023 l 1,11,-1
 479 1023 l 1,12,-1
 479 895 l 1,13,14
 628.833 1040 628.833 1040 822 1040 c 0,15,16
 955.078 1040 955.078 1040 1058.5 971.5 c 0,17,18
 1191 883.74 1191 883.74 1191 692 c 2,19,-1
 1190 -32 l 2,20,21
 1190 -261.943 1190 -261.943 1052.5 -390.5 c 0,22,23
 934.317 -500.997 934.317 -500.997 761 -510 c 1,24,-1
 740 -428 l 1,25,26
 912.245 -393.052 912.245 -393.052 927 -162.5 c 0,27,28
 931 -100 931 -100 931 -41 c 2,29,-1
 931 712 l 2,30,31
 931 829 931 829 906.5 871 c 128,-1,32
 882 913 882 913 851.5 929 c 128,-1,33
 821 945 821 945 774 945 c 0,0,1
EndSplineSet
EndChar

StartChar: Eng
Encoding: 330 330 105
Width: 1707
Flags: HW
LayerCount: 2
Fore
SplineSet
73 78 m 1,0,-1
 267 78 l 1,1,-1
 267 1452 l 1,2,-1
 93 1452 l 1,3,-1
 93 1530 l 1,4,-1
 546 1530 l 1,5,-1
 1356 344 l 1,6,-1
 1356 1452 l 1,7,-1
 1162 1452 l 1,8,-1
 1162 1530 l 1,9,-1
 1637 1530 l 1,10,-1
 1637 1452 l 1,11,-1
 1454 1452 l 1,12,-1
 1454 0 l 2,13,14
 1454 -326.243 1454 -326.243 1096 -423 c 1,15,-1
 1074 -342 l 1,16,17
 1356 -270.381 1356 -270.381 1356 0 c 1,18,-1
 1282 0 l 1,19,-1
 365 1330 l 1,20,-1
 365 78 l 1,21,-1
 568 78 l 1,22,-1
 568 0 l 1,23,-1
 73 0 l 1,24,-1
 73 78 l 1,0,-1
EndSplineSet
EndChar

StartChar: dcroat
Encoding: 273 273 106
Width: 1365
Flags: HW
LayerCount: 2
Fore
SplineSet
156.5 271.5 m 128,-1,1
 119 372 119 372 119 504.5 c 128,-1,2
 119 637 119 637 159.5 735 c 128,-1,3
 200 833 200 833 268.5 901 c 0,4,5
 408.522 1040 408.522 1040 618 1040 c 0,6,7
 749.735 1040 749.735 1040 862.5 986 c 0,8,9
 898 969 898 969 925 948 c 1,10,-1
 925 1247 l 1,11,-1
 685 1247 l 1,12,-1
 685 1325 l 1,13,-1
 925 1325 l 1,14,-1
 925 1606 l 1,15,-1
 718 1606 l 1,16,-1
 718 1684 l 1,17,-1
 1185 1684 l 1,18,-1
 1185 1325 l 1,19,-1
 1332 1325 l 1,20,-1
 1332 1247 l 1,21,-1
 1185 1247 l 1,22,-1
 1185 78 l 1,23,-1
 1333 78 l 1,24,-1
 1333 0 l 1,25,-1
 925 0 l 1,26,-1
 925 104 l 1,27,28
 844.798 20.3114 844.798 20.3114 700 -9.5 c 0,29,30
 649 -20 649 -20 571.5 -20 c 128,-1,31
 494 -20 494 -20 408.5 10.5 c 128,-1,32
 323 41 323 41 258.5 106 c 128,-1,0
 194 171 194 171 156.5 271.5 c 128,-1,1
660 954 m 0,33,34
 399 954 399 954 399 514 c 0,35,36
 399 186.586 399 186.586 540 101.5 c 0,37,38
 588.886 72 588.886 72 659 72 c 0,39,40
 828.183 74.0887 828.183 74.0887 925 213 c 1,41,-1
 925 849 l 1,42,43
 851.436 925.393 851.436 925.393 729 947.5 c 0,44,45
 693 954 693 954 660 954 c 0,33,34
EndSplineSet
EndChar

StartChar: hbar
Encoding: 295 295 107
Width: 1363
Flags: HW
LayerCount: 2
Fore
SplineSet
55 78 m 1,0,-1
 217 78 l 1,1,-1
 217 1190 l 1,2,-1
 45 1190 l 1,3,-1
 45 1267 l 1,4,-1
 217 1267 l 1,5,-1
 217 1606 l 1,6,-1
 75 1606 l 1,7,-1
 75 1684 l 1,8,-1
 477 1684 l 1,9,-1
 477 1267 l 1,10,-1
 692 1267 l 1,11,-1
 692 1190 l 1,12,-1
 477 1190 l 1,13,-1
 477 899 l 1,14,15
 622.7 1040 622.7 1040 821 1040 c 0,16,17
 954.078 1040 954.078 1040 1057.5 971.5 c 0,18,19
 1190 883.74 1190 883.74 1190 692 c 2,20,-1
 1190 78 l 1,21,-1
 1352 78 l 1,22,-1
 1352 0 l 1,23,-1
 768 0 l 1,24,-1
 768 78 l 1,25,-1
 930 78 l 1,26,-1
 930 712 l 2,27,28
 930 829 930 829 905.5 871 c 128,-1,29
 881 913 881 913 850.5 929 c 128,-1,30
 820 945 820 945 757.5 945 c 128,-1,31
 695 945 695 945 617 907 c 128,-1,32
 539 869 539 869 477 793 c 1,33,-1
 477 78 l 1,34,-1
 639 78 l 1,35,-1
 639 0 l 1,36,-1
 55 0 l 1,37,-1
 55 78 l 1,0,-1
EndSplineSet
EndChar

StartChar: ldot
Encoding: 320 320 109
Width: 856
Flags: HW
LayerCount: 2
Fore
SplineSet
781 735 m 256,0,1
 727 735 727 735 699 763 c 0,2,3
 651 811 651 811 651 865 c 256,4,5
 651 920 651 920 679 948 c 0,6,7
 728 997 728 997 781 997 c 256,8,9
 835 997 835 997 874 958 c 128,-1,10
 913 919 913 919 913 865 c 256,11,12
 913 812 913 812 874 773 c 0,13,14
 836 735 836 735 781 735 c 256,0,1
60 78 m 1,15,-1
 216 78 l 1,16,-1
 216 1605 l 1,17,-1
 83 1605 l 1,18,-1
 83 1684 l 1,19,-1
 481 1684 l 1,20,-1
 481 78 l 1,21,-1
 649 78 l 1,22,-1
 649 0 l 1,23,-1
 60 0 l 1,24,-1
 60 78 l 1,15,-1
EndSplineSet
EndChar

StartChar: lslash
Encoding: 322 322 110
Width: 683
Flags: HW
LayerCount: 2
Fore
SplineSet
60 78 m 1,0,-1
 216 78 l 1,1,-1
 216 749 l 1,2,-1
 67 671 l 1,3,-1
 27 745 l 1,4,-1
 216 844 l 1,5,-1
 216 1605 l 1,6,-1
 83 1605 l 1,7,-1
 83 1684 l 1,8,-1
 481 1684 l 1,9,-1
 481 984 l 1,10,-1
 645 1071 l 1,11,-1
 689 999 l 1,12,-1
 481 889 l 1,13,-1
 481 78 l 1,14,-1
 649 78 l 1,15,-1
 649 0 l 1,16,-1
 60 0 l 1,17,-1
 60 78 l 1,0,-1
EndSplineSet
EndChar

StartChar: oslash
Encoding: 248 248 116
Width: 1194
Flags: HW
LayerCount: 2
Fore
SplineSet
235 115 m 1,0,-1
 126 3 l 1,1,-1
 61 66 l 1,2,-1
 177 179 l 1,3,4
 72 317.6 72 317.6 72 515 c 0,5,6
 72 748.282 72 748.282 224 896 c 0,7,8
 372.174 1040 372.174 1040 582.51 1040 c 128,-1,9
 792.846 1040 792.846 1040 932 932 c 1,10,-1
 1040 1039 l 1,11,-1
 1114 976 l 1,12,-1
 999 868 l 1,13,14
 1122 726.237 1122 726.237 1122 515 c 0,15,16
 1122 275.568 1122 275.568 973.5 126 c 0,17,18
 828.543 -20 828.543 -20 605.502 -20 c 128,-1,19
 382.462 -20 382.462 -20 235 115 c 1,0,-1
802 814 m 1,20,21
 746.061 956 746.061 956 597 956 c 0,22,23
 394.981 956 394.981 956 360.5 690 c 0,24,25
 350 609 350 609 350 537.5 c 0,26,27
 350 412 350 412 361 335 c 1,28,-1
 559 543 l 1,29,-1
 802 814 l 1,20,21
382 238 m 1,30,31
 436.012 63 436.012 63 597 63 c 0,32,33
 798.564 63 798.564 63 833.5 337.5 c 0,34,35
 844 420 844 420 844 495 c 0,36,37
 844 631.625 844 631.625 829 716 c 1,38,-1
 608 485 l 1,39,-1
 382 238 l 1,30,31
EndSplineSet
EndChar

StartChar: hungarumlaut.cap
Encoding: 65537 -1 117
Width: 870
Flags: HW
LayerCount: 2
Fore
SplineSet
459 1630 m 1,0,-1
 735 1948 l 1,1,2
 786.021 2004.69 786.021 2004.69 844 1998 c 1,3,4
 885.391 1992.09 885.391 1992.09 904.696 1965.54 c 0,5,6
 956.561 1894.23 956.561 1894.23 913.5 1834.5 c 0,7,8
 898 1813 898 1813 866 1796 c 2,9,-1
 488 1594 l 1,10,-1
 459 1630 l 1,0,-1
90 1624 m 1,11,-1
 349 1944 l 2,12,13
 416.534 2027.12 416.534 2027.12 492 1981 c 0,14,15
 553.633 1943.34 553.633 1943.34 547 1877 c 0,16,17
 542.434 1824.5 542.434 1824.5 485 1793 c 2,18,-1
 119 1588 l 1,19,-1
 90 1624 l 1,11,-1
EndSplineSet
EndChar

StartChar: ae
Encoding: 230 230 118
Width: 1707
Flags: HW
LayerCount: 2
Fore
SplineSet
1248 75 m 0,0,1
 1421.95 75 1421.95 75 1566 223 c 1,2,-1
 1619 175 l 1,3,4
 1510.17 39.7849 1510.17 39.7849 1337 -5 c 0,5,6
 1279 -20 1279 -20 1206.5 -20 c 128,-1,7
 1134 -20 1134 -20 1067 -9.5 c 128,-1,8
 1000 1 1000 1 946.5 22.5 c 0,9,10
 845.024 63.28 845.024 63.28 779 152 c 1,11,12
 746.429 78.7143 746.429 78.7143 649 30 c 0,13,14
 549 -20 549 -20 450 -20 c 128,-1,15
 351 -20 351 -20 283 1 c 128,-1,16
 215 22 215 22 166 61 c 0,17,18
 64 142.184 64 142.184 64 282 c 0,19,20
 64 411.66 64 411.66 172 490.5 c 0,21,22
 274.055 565 274.055 565 428.277 565 c 128,-1,23
 582.5 565 582.5 565 686 502 c 1,24,-1
 686 720 l 2,25,26
 686 841.091 686 841.091 656 884.045 c 128,-1,27
 626 927 626 927 585.5 944 c 128,-1,28
 545 961 545 961 495.5 961 c 128,-1,29
 446 961 446 961 416 955.5 c 128,-1,30
 386 950 386 950 361.5 942 c 0,31,32
 313.242 926.242 313.242 926.242 295 908 c 1,33,34
 340.752 894.274 340.752 894.274 365.5 837.5 c 0,35,36
 374 818 374 818 374 790.5 c 128,-1,37
 374 763 374 763 363 739 c 128,-1,38
 352 715 352 715 333 697.5 c 0,39,40
 294.457 662 294.457 662 254.229 662 c 128,-1,41
 214 662 214 662 189.5 671 c 128,-1,42
 165 680 165 680 146.5 697.5 c 0,43,44
 106 735.811 106 735.811 106 787.905 c 128,-1,45
 106 840 106 840 125 873.5 c 128,-1,46
 144 907 144 907 175.5 933.5 c 128,-1,47
 207 960 207 960 248 980 c 128,-1,48
 289 1000 289 1000 333.5 1013 c 0,49,50
 422.5 1039 422.5 1039 503 1039 c 0,51,52
 759.35 1039 759.35 1039 868 916 c 1,53,54
 991 1039 991 1039 1194 1039 c 0,55,56
 1414.03 1039 1414.03 1039 1528.5 907 c 0,57,58
 1639 779.577 1639 779.577 1639 544 c 1,59,-1
 944 544 l 1,60,-1
 944 495 l 1,61,62
 950.48 200.166 950.48 200.166 1117 106.5 c 0,63,64
 1173 75 1173 75 1248 75 c 0,0,1
1372 626 m 1,65,66
 1370 787 1370 787 1325.5 871 c 128,-1,67
 1281 955 1281 955 1184 955 c 0,68,69
 979.303 955 979.303 955 949 626 c 1,70,-1
 1372 626 l 1,65,66
330 276 m 0,71,72
 330 119.864 330 119.864 430.5 87.5 c 0,73,74
 460 78 460 78 501.5 78 c 128,-1,75
 543 78 543 78 579 88.5 c 128,-1,76
 615 99 615 99 638.5 112.5 c 0,77,78
 678.488 135.472 678.488 135.472 689 160 c 1,79,-1
 689 407 l 1,80,-1
 686 420 l 1,81,82
 610.615 476 610.615 476 521.308 476 c 128,-1,83
 432 476 432 476 381 428.5 c 128,-1,84
 330 381 330 381 330 276 c 0,71,72
EndSplineSet
EndChar

StartChar: oe
Encoding: 339 339 119
Width: 1878
Flags: HW
LayerCount: 2
Fore
SplineSet
979 166 m 1,0,1
 834.798 -20 834.798 -20 598 -20 c 0,2,3
 372.086 -20 372.086 -20 224 126 c 0,4,5
 72 275.859 72 275.859 72 515 c 0,6,7
 72 748.852 72 748.852 224 895.5 c 0,8,9
 372.737 1039 372.737 1039 604.016 1039 c 128,-1,10
 835.295 1039 835.295 1039 978 857 c 1,11,12
 1124.02 1039 1124.02 1039 1355 1039 c 0,13,14
 1579.44 1039 1579.44 1039 1697 907 c 0,15,16
 1810 780.123 1810 780.123 1810 544 c 1,17,-1
 1103 544 l 1,18,-1
 1103 514 l 2,19,20
 1103 318 1103 318 1179 200 c 0,21,22
 1259.51 75.0001 1259.51 75.0001 1408 75 c 0,23,24
 1588.03 75 1588.03 75 1738 223 c 1,25,-1
 1791 175 l 1,26,27
 1682.68 40.4199 1682.68 40.4199 1501 -5 c 0,28,29
 1441 -20 1441 -20 1378 -20 c 0,30,31
 1124.84 -20 1124.84 -20 979 166 c 1,0,1
1543 626 m 1,32,33
 1541 786 1541 786 1491.5 870.5 c 128,-1,34
 1442 955 1442 955 1335 955 c 0,35,36
 1132.97 955 1132.97 955 1107 626 c 1,37,-1
 1543 626 l 1,32,33
598 63 m 256,38,39
 798.564 63 798.564 63 833.5 337.5 c 0,40,41
 844 420 844 420 844 514.5 c 128,-1,42
 844 609 844 609 833.5 690 c 128,-1,43
 823 771 823 771 796 829.5 c 0,44,45
 738.077 955 738.077 955 598 955 c 256,46,47
 394.852 955 394.852 955 360.5 690 c 0,48,49
 350 609 350 609 350 514.5 c 128,-1,50
 350 420 350 420 360.5 337.5 c 128,-1,51
 371 255 371 255 399 194 c 0,52,53
 459.131 63 459.131 63 598 63 c 256,38,39
EndSplineSet
EndChar

StartChar: quotesinglbase
Encoding: 8218 8218 120
Width: 684
Flags: HW
LayerCount: 2
Fore
SplineSet
206.5 94.5 m 0,0,1
 194 124 194 124 194 159 c 128,-1,2
 194 194 194 194 205.5 221.5 c 128,-1,3
 217 249 217 249 237.5 269 c 0,4,5
 281.575 312 281.575 312 330.788 312 c 128,-1,6
 380 312 380 312 408.5 300 c 128,-1,7
 437 288 437 288 458 262.5 c 0,8,9
 503 207.857 503 207.857 503 126.929 c 128,-1,10
 503 46 503 46 481.5 -19.5 c 128,-1,11
 460 -85 460 -85 426.5 -144 c 0,12,13
 355.575 -268.913 355.575 -268.913 275 -319 c 1,14,-1
 223 -261 l 1,15,16
 300.333 -203 300.333 -203 342 -78 c 0,17,18
 355 -39 355 -39 358 0 c 1,19,-1
 349 0 l 2,20,21
 246.542 0 246.542 0 206.5 94.5 c 0,0,1
EndSplineSet
EndChar

StartChar: Thorn
Encoding: 222 222 121
Width: 1364
Flags: HW
LayerCount: 2
Fore
SplineSet
51 78 m 1,0,-1
 222 78 l 1,1,-1
 223 1452 l 1,2,-1
 51 1452 l 1,3,-1
 51 1530 l 1,4,-1
 705 1530 l 1,5,-1
 705 1452 l 1,6,-1
 492 1452 l 1,7,-1
 492 1226 l 1,8,-1
 671 1226 l 2,9,10
 1162.47 1226 1162.47 1226 1275 972 c 0,11,12
 1310 893 1310 893 1310 792.5 c 128,-1,13
 1310 692 1310 692 1272 604 c 128,-1,14
 1234 516 1234 516 1155.5 452 c 0,15,16
 989.914 317 989.914 317 675 317 c 2,17,-1
 492 317 l 1,18,-1
 492 78 l 1,19,-1
 705 78 l 1,20,-1
 705 0 l 1,21,-1
 51 0 l 1,22,-1
 51 78 l 1,0,-1
700 386 m 2,23,24
 931.742 386 931.742 386 1003 612.5 c 0,25,26
 1029 695.143 1029 695.143 1029 781.071 c 128,-1,27
 1029 867 1029 867 1010.5 935 c 128,-1,28
 992 1003 992 1003 952.5 1052.5 c 0,29,30
 869.111 1157 869.111 1157 702 1157 c 2,31,-1
 492 1157 l 1,32,-1
 492 386 l 1,33,-1
 700 386 l 2,23,24
EndSplineSet
EndChar

StartChar: Eth
Encoding: 208 208 122
Width: 1707
Flags: HW
LayerCount: 2
Fore
SplineSet
143 78 m 1,0,-1
 292 78 l 1,1,-1
 292 735 l 1,2,-1
 158 735 l 1,3,-1
 158 813 l 1,4,-1
 292 813 l 1,5,-1
 292 1452 l 1,6,-1
 143 1452 l 1,7,-1
 143 1530 l 1,8,-1
 771 1530 l 2,9,10
 1368.37 1530 1368.37 1530 1541.5 1144.5 c 0,11,12
 1611 989.747 1611 989.747 1611 777 c 0,13,14
 1611 480.902 1611 480.902 1454 275 c 0,15,16
 1325.66 106.683 1325.66 106.683 1068 36.5 c 0,17,18
 934 0 934 0 753 0 c 2,19,-1
 143 0 l 1,20,-1
 143 78 l 1,0,-1
733 78 m 2,21,22
 1051.69 78 1051.69 78 1186.5 239 c 0,23,24
 1319 397.237 1319 397.237 1319 768 c 2,25,-1
 1319 801 l 1,26,27
 1310.53 1315.09 1310.53 1315.09 972.5 1418.5 c 0,28,29
 863 1452 863 1452 724 1452 c 2,30,-1
 561 1452 l 1,31,-1
 561 813 l 1,32,-1
 988 813 l 1,33,-1
 988 735 l 1,34,-1
 561 735 l 1,35,-1
 561 78 l 1,36,-1
 733 78 l 2,21,22
EndSplineSet
EndChar

StartChar: grave.cap
Encoding: 65538 -1 123
Width: 1707
Flags: HW
LayerCount: 2
Fore
SplineSet
472 1774 m 1,0,1
 407.351 1796.12 407.351 1796.12 390 1868 c 1,2,3
 380.225 1916.88 380.225 1916.88 402.112 1944.44 c 0,4,5
 438.716 1990.53 438.716 1990.53 478.858 1996.77 c 128,-1,6
 519 2003 519 2003 543 1992.5 c 128,-1,7
 567 1982 567 1982 593 1959 c 2,8,-1
 892 1692 l 1,9,-1
 871 1651 l 1,10,-1
 472 1774 l 1,0,1
EndSplineSet
EndChar

StartChar: acute.cap
Encoding: 65539 -1 124
Width: 1707
Flags: HW
LayerCount: 2
Fore
SplineSet
503 1679 m 1,0,-1
 792 1956 l 2,1,2
 818 1980 818 1980 841.5 1991.5 c 128,-1,3
 865 2003 865 2003 893 1999.5 c 128,-1,4
 921 1996 921 1996 941 1985.5 c 128,-1,5
 961 1975 961 1975 975 1958.5 c 0,6,7
 1006 1921.97 1006 1921.97 999.498 1882.48 c 0,8,9
 985.974 1800.31 985.974 1800.31 920 1776 c 1,10,-1
 525 1639 l 1,11,-1
 503 1679 l 1,0,-1
EndSplineSet
EndChar

StartChar: circumflex.cap
Encoding: 65540 -1 125
Width: 1707
Flags: HW
LayerCount: 2
Fore
SplineSet
279 1646 m 1,0,-1
 542 1936 l 2,1,2
 563 1959 563 1959 588.5 1979.5 c 128,-1,3
 614 2000 614 2000 642.5 2000 c 128,-1,4
 671 2000 671 2000 688.5 1992.5 c 128,-1,5
 706 1985 706 1985 720.5 1974 c 128,-1,6
 735 1963 735 1963 747 1950.5 c 2,7,8
 1013 1647 l 1,9,-1
 985 1610 l 1,10,-1
 651 1794 l 1,11,-1
 307 1610 l 1,12,-1
 279 1646 l 1,0,-1
EndSplineSet
EndChar

StartChar: dieresis.cap
Encoding: 65541 -1 126
Width: 1707
Flags: HW
LayerCount: 2
Fore
SplineSet
943 1708.5 m 128,-1,1
 920 1699 920 1699 894.5 1699 c 128,-1,2
 869 1699 869 1699 847 1708.5 c 128,-1,3
 825 1718 825 1718 808 1735 c 0,4,5
 772 1771 772 1771 772 1809 c 128,-1,6
 772 1847 772 1847 781.5 1870 c 128,-1,7
 791 1893 791 1893 808 1909.5 c 0,8,9
 845.606 1946 845.606 1946 882.803 1946 c 128,-1,10
 920 1946 920 1946 943 1936 c 128,-1,11
 966 1926 966 1926 982.5 1909.5 c 0,12,13
 1019 1873 1019 1873 1019 1834.5 c 128,-1,14
 1019 1796 1019 1796 1009 1774 c 128,-1,15
 999 1752 999 1752 982.5 1735 c 128,-1,0
 966 1718 966 1718 943 1708.5 c 128,-1,1
527 1708.5 m 128,-1,17
 504 1699 504 1699 478.5 1699 c 128,-1,18
 453 1699 453 1699 431 1708.5 c 128,-1,19
 409 1718 409 1718 392 1735 c 0,20,21
 356 1771 356 1771 356 1809 c 128,-1,22
 356 1847 356 1847 365.5 1870 c 128,-1,23
 375 1893 375 1893 392 1909.5 c 0,24,25
 429.606 1946 429.606 1946 466.803 1946 c 128,-1,26
 504 1946 504 1946 527 1936 c 128,-1,27
 550 1926 550 1926 566.5 1909.5 c 0,28,29
 603 1873 603 1873 603 1834.5 c 128,-1,30
 603 1796 603 1796 593 1774 c 128,-1,31
 583 1752 583 1752 566.5 1735 c 128,-1,16
 550 1718 550 1718 527 1708.5 c 128,-1,17
EndSplineSet
EndChar

StartChar: caron.cap
Encoding: 65542 -1 127
Width: 1019
Flags: HW
LayerCount: 2
Fore
SplineSet
401 1694 m 1,0,-1
 142 1964 l 1,1,-1
 170 2000 l 1,2,-1
 510 1836 l 1,3,-1
 848 2000 l 1,4,-1
 876 1963 l 1,5,-1
 626 1701 l 1,6,7
 583.128 1652.77 583.128 1652.77 556.564 1641.38 c 128,-1,8
 530 1630 530 1630 494.717 1630 c 128,-1,9
 459.435 1630 459.435 1630 401 1694 c 1,0,-1
EndSplineSet
EndChar

StartChar: ring.cap
Encoding: 65543 -1 128
Width: 680
Flags: HW
LayerCount: 2
Fore
SplineSet
341 1627 m 0,0,1
 294 1627 294 1627 254.5 1640.5 c 128,-1,2
 215 1654 215 1654 186 1678 c 0,3,4
 124 1729.31 124 1729.31 124 1813 c 0,5,6
 124 1893.69 124 1893.69 186 1945 c 0,7,8
 247.625 1996 247.625 1996 340 1996 c 0,9,10
 434.938 1996 434.938 1996 495.5 1945 c 128,-1,11
 556 1894.05 556 1894.05 556 1813 c 0,12,13
 556 1728.95 556 1728.95 495.5 1678 c 128,-1,14
 434.938 1627 434.938 1627 341 1627 c 0,0,1
242 1811 m 128,-1,16
 242 1679 242 1679 340.5 1679 c 128,-1,17
 439 1679 439 1679 439 1811 c 128,-1,18
 439 1943 439 1943 340.5 1943 c 128,-1,15
 242 1943 242 1943 242 1811 c 128,-1,16
EndSplineSet
EndChar

StartChar: tilde.cap
Encoding: 65544 -1 129
Width: 1019
Flags: HW
LayerCount: 2
Fore
SplineSet
134 1734 m 1,0,1
 189.676 1834.22 189.676 1834.22 228.838 1877.11 c 0,2,3
 309.087 1965 309.087 1965 390 1965 c 0,4,5
 448.278 1965 448.278 1965 517.139 1931.5 c 2,6,-1
 620 1882.5 l 2,7,8
 654 1867 654 1867 690.5 1867 c 128,-1,9
 727 1867 727 1867 759.5 1891.5 c 128,-1,10
 792 1916 792 1916 828 1956 c 1,11,-1
 874 1923 l 1,12,13
 818.324 1822.78 818.324 1822.78 779.162 1779.89 c 0,14,15
 698.913 1692 698.913 1692 618 1692 c 1,16,17
 562.108 1689.13 562.108 1689.13 495.054 1723.57 c 128,-1,18
 428 1758 428 1758 392 1774 c 128,-1,19
 356 1790 356 1790 318.5 1790 c 128,-1,20
 281 1790 281 1790 248.5 1765.5 c 128,-1,21
 216 1741 216 1741 180 1701 c 1,22,-1
 134 1734 l 1,0,1
EndSplineSet
EndChar

StartChar: dotlessj
Encoding: 567 567 130
Width: 683
Flags: HW
LayerCount: 2
Fore
SplineSet
241 945 m 1,0,-1
 94 945 l 1,1,-1
 94 1023 l 1,2,-1
 506 1023 l 1,3,-1
 506 -32 l 2,4,5
 506 -260.661 506 -260.661 366 -390.5 c 0,6,7
 246.888 -500.967 246.888 -500.967 73 -510 c 1,8,-1
 52 -428 l 1,9,10
 224.593 -392.981 224.593 -392.981 237.5 -162.5 c 0,11,12
 241 -100 241 -100 241 -41 c 2,13,-1
 241 945 l 1,0,-1
EndSplineSet
EndChar

StartChar: jcircumflex
Encoding: 309 309 131
Width: 683
Flags: HW
LayerCount: 2
Fore
SplineSet
18 1217 m 1,0,-1
 264 1540 l 1,1,2
 310.769 1604 310.769 1604 373 1604 c 0,3,4
 439.3 1604 439.3 1604 489 1533 c 1,5,-1
 720 1215 l 1,6,-1
 687 1184 l 1,7,-1
 373 1388 l 1,8,-1
 49 1184 l 1,9,-1
 18 1217 l 1,0,-1
241 945 m 1,10,-1
 94 945 l 1,11,-1
 94 1023 l 1,12,-1
 506 1023 l 1,13,-1
 506 -32 l 2,14,15
 506 -260.661 506 -260.661 366 -390.5 c 0,16,17
 246.888 -500.967 246.888 -500.967 73 -510 c 1,18,-1
 52 -428 l 1,19,20
 224.593 -392.981 224.593 -392.981 237.5 -162.5 c 0,21,22
 241 -100 241 -100 241 -41 c 2,23,-1
 241 945 l 1,10,-1
EndSplineSet
EndChar

StartChar: dotaccent.cap
Encoding: 65545 -1 132
Width: 690
Flags: HW
LayerCount: 2
Fore
SplineSet
337 1700 m 256,0,1
 283 1700 283 1700 255 1728 c 0,2,3
 207 1776 207 1776 207 1830 c 256,4,5
 207 1885 207 1885 235 1913 c 0,6,7
 284 1962 284 1962 337 1962 c 256,8,9
 391 1962 391 1962 430 1923 c 128,-1,10
 469 1884 469 1884 469 1830 c 256,11,12
 469 1777 469 1777 430 1738 c 0,13,14
 392 1700 392 1700 337 1700 c 256,0,1
EndSplineSet
EndChar

StartChar: periodcentered
Encoding: 183 183 133
Width: 683
Flags: HW
LayerCount: 2
Fore
SplineSet
341 608 m 256,0,1
 273 608 273 608 227.5 653.5 c 128,-1,2
 182 699 182 699 182 767 c 256,3,4
 182 874.121 182 874.121 278 915.5 c 0,5,6
 307 928 307 928 341 928 c 256,7,8
 409 928 409 928 455.5 881.5 c 0,9,10
 501 836 501 836 501 767 c 256,11,12
 501 699 501 699 455.5 653.5 c 128,-1,13
 410 608 410 608 341 608 c 256,0,1
EndSplineSet
EndChar

StartChar: Eogonek
Encoding: 280 280 134
Width: 1534
Flags: HW
LayerCount: 2
Fore
SplineSet
1092 -555 m 0,0,1
 819 -555 819 -555 819 -352 c 256,2,3
 819 -252.289 819 -252.289 922 -147 c 0,4,5
 1004.92 -62.2364 1004.92 -62.2364 1127 0 c 1,6,-1
 101 0 l 1,7,-1
 101 79 l 1,8,-1
 291 79 l 1,9,-1
 292 1452 l 1,10,-1
 101 1452 l 1,11,-1
 101 1530 l 1,12,-1
 1372 1530 l 1,13,-1
 1372 1094 l 1,14,-1
 1294 1094 l 1,15,16
 1289 1177 1289 1177 1280 1241.5 c 128,-1,17
 1271 1306 1271 1306 1242.5 1351 c 0,18,19
 1184.36 1442.81 1184.36 1442.81 1006 1452 c 1,20,-1
 561 1452 l 1,21,-1
 561 849 l 1,22,-1
 830 849 l 2,23,24
 915 849 915 849 960.5 876.5 c 128,-1,25
 1006 904 1006 904 1016 973 c 0,26,27
 1018 993 1018 993 1019.5 1015.5 c 128,-1,28
 1021 1038 1021 1038 1023 1060 c 1,29,-1
 1107 1060 l 1,30,-1
 1107 562 l 1,31,-1
 1023 562 l 1,32,33
 1021 585 1021 585 1019.5 606 c 128,-1,34
 1018 627 1018 627 1016 647 c 0,35,36
 1006 716 1006 716 959.5 743.5 c 128,-1,37
 913 771 913 771 830 771 c 2,38,-1
 561 771 l 1,39,-1
 561 78 l 1,40,-1
 989 78 l 2,41,42
 1252.46 78 1252.46 78 1308 321 c 0,43,44
 1324 391 1324 391 1329 465 c 1,45,-1
 1407 465 l 1,46,-1
 1407 94 l 1,47,48
 1409 92 1409 92 1407 90 c 1,49,-1
 1407 0 l 1,50,-1
 1270 0 l 1,51,52
 1101.93 -119.644 1101.93 -119.644 1073 -218 c 0,53,54
 1063 -252 1063 -252 1063 -287 c 128,-1,55
 1063 -322 1063 -322 1071.5 -349.5 c 128,-1,56
 1080 -377 1080 -377 1096.5 -397 c 0,57,58
 1131.15 -439 1131.15 -439 1172.57 -439 c 128,-1,59
 1214 -439 1214 -439 1241 -429.5 c 128,-1,60
 1268 -420 1268 -420 1292.5 -405 c 0,61,62
 1341.89 -374.763 1341.89 -374.763 1370 -338 c 1,63,-1
 1417 -390 l 1,64,65
 1390.83 -434.492 1390.83 -434.492 1324.41 -475.246 c 0,66,67
 1194.44 -555 1194.44 -555 1092 -555 c 0,0,1
EndSplineSet
EndChar

StartChar: Iogonek
Encoding: 302 302 135
Width: 854
Flags: HW
LayerCount: 2
Fore
SplineSet
337 -555 m 0,0,1
 74 -555 74 -555 74 -352 c 256,2,3
 74 -251.747 74 -251.747 168.5 -147 c 0,4,5
 244.449 -62.8153 244.449 -62.8153 358 0 c 1,6,-1
 95 0 l 1,7,-1
 95 78 l 1,8,-1
 292 78 l 1,9,-1
 293 1452 l 1,10,-1
 95 1452 l 1,11,-1
 95 1530 l 1,12,-1
 759 1530 l 1,13,-1
 759 1452 l 1,14,-1
 562 1452 l 1,15,-1
 562 78 l 1,16,-1
 759 78 l 1,17,-1
 759 0 l 1,18,-1
 526 0 l 1,19,20
 383.664 -97.047 383.664 -97.047 334 -215 c 0,21,22
 318 -253 318 -253 318 -287.5 c 128,-1,23
 318 -322 318 -322 326 -349.5 c 128,-1,24
 334 -377 334 -377 349 -397 c 0,25,26
 380.5 -439 380.5 -439 418.75 -439 c 128,-1,27
 457 -439 457 -439 482.5 -429.5 c 128,-1,28
 508 -420 508 -420 531.5 -405 c 0,29,30
 579.196 -374.556 579.196 -374.556 605 -338 c 1,31,-1
 652 -390 l 1,32,33
 625.254 -435.469 625.254 -435.469 561.127 -475.734 c 0,34,35
 434.889 -555 434.889 -555 337 -555 c 0,0,1
EndSplineSet
EndChar

StartChar: iogonek
Encoding: 303 303 136
Width: 683
Flags: HW
LayerCount: 2
Fore
SplineSet
355 1227 m 256,0,1
 298.595 1227 298.595 1227 257 1267.5 c 0,2,3
 217 1306.45 217 1306.45 217 1350.72 c 128,-1,4
 217 1395 217 1395 227.5 1420 c 128,-1,5
 238 1445 238 1445 257 1464 c 0,6,7
 297 1504 297 1504 355 1504 c 256,8,9
 447.22 1504 447.22 1504 482.5 1420 c 0,10,11
 493 1395 493 1395 493 1365.5 c 128,-1,12
 493 1336 493 1336 482.5 1311 c 128,-1,13
 472 1286 472 1286 453.5 1267.5 c 0,14,15
 413 1227 413 1227 355 1227 c 256,0,1
297 -555 m 0,16,17
 34 -555 34 -555 34 -352 c 256,18,19
 34 -252.529 34 -252.529 131.5 -147 c 0,20,21
 209.916 -62.1262 209.916 -62.1262 327 0 c 1,22,-1
 61 0 l 1,23,-1
 61 78 l 1,24,-1
 223 78 l 1,25,-1
 223 945 l 1,26,-1
 75 945 l 1,27,-1
 75 1023 l 1,28,-1
 488 1023 l 1,29,-1
 488 78 l 1,30,-1
 650 78 l 1,31,-1
 650 0 l 1,32,-1
 495 0 l 1,33,34
 346.773 -94.6127 346.773 -94.6127 294.5 -215 c 0,35,36
 278 -253 278 -253 278 -287.5 c 128,-1,37
 278 -322 278 -322 286 -349.5 c 128,-1,38
 294 -377 294 -377 309 -397 c 0,39,40
 340.5 -439 340.5 -439 378.75 -439 c 128,-1,41
 417 -439 417 -439 442.5 -429.5 c 128,-1,42
 468 -420 468 -420 491.5 -405 c 0,43,44
 539.196 -374.556 539.196 -374.556 565 -338 c 1,45,-1
 612 -390 l 1,46,47
 585.254 -435.469 585.254 -435.469 521.127 -475.734 c 0,48,49
 394.889 -555 394.889 -555 297 -555 c 0,16,17
EndSplineSet
EndChar

StartChar: Aogonek
Encoding: 260 260 137
Width: 1534
Flags: HW
LayerCount: 2
Fore
SplineSet
1150 -555 m 0,0,1
 877 -555 877 -555 877 -352 c 256,2,3
 877 -252.289 877 -252.289 980 -147 c 0,4,5
 1062.92 -62.2364 1062.92 -62.2364 1185 0 c 1,6,-1
 953 0 l 1,7,-1
 953 78 l 1,8,-1
 1111 78 l 1,9,-1
 967 427 l 1,10,-1
 360 427 l 1,11,-1
 228 78 l 1,12,-1
 400 78 l 1,13,-1
 400 0 l 1,14,-1
 15 0 l 1,15,-1
 15 78 l 1,16,-1
 121 78 l 1,17,-1
 684 1530 l 1,18,-1
 800 1530 l 1,19,-1
 1404 78 l 1,20,-1
 1518 78 l 1,21,-1
 1518 0 l 1,22,-1
 1354 0 l 1,23,24
 1193.04 -96.5782 1193.04 -96.5782 1138.5 -215 c 0,25,26
 1121 -253 1121 -253 1121 -287.5 c 128,-1,27
 1121 -322 1121 -322 1129.5 -349.5 c 128,-1,28
 1138 -377 1138 -377 1154.5 -397 c 0,29,30
 1189.15 -439 1189.15 -439 1230.57 -439 c 128,-1,31
 1272 -439 1272 -439 1299 -429.5 c 128,-1,32
 1326 -420 1326 -420 1350.5 -405 c 0,33,34
 1399.89 -374.763 1399.89 -374.763 1428 -338 c 1,35,-1
 1475 -390 l 1,36,37
 1448.83 -434.492 1448.83 -434.492 1382.41 -475.246 c 0,38,39
 1252.44 -555 1252.44 -555 1150 -555 c 0,0,1
935 505 m 1,40,-1
 650 1196 l 1,41,-1
 389 505 l 1,42,-1
 935 505 l 1,40,-1
EndSplineSet
EndChar

StartChar: eogonek
Encoding: 281 281 138
Width: 1194
Flags: HW
LayerCount: 2
Fore
SplineSet
708 -16 m 1,0,1
 678 -20 678 -20 648 -20 c 0,2,3
 398 -20 398 -20 245 133 c 0,4,5
 96 282 96 282 96 518 c 0,6,7
 96 746.254 96 746.254 247 893 c 0,8,9
 397.232 1039 397.232 1039 625 1039 c 0,10,11
 849.438 1039 849.438 1039 967 907 c 0,12,13
 1080 780.123 1080 780.123 1080 544 c 1,14,-1
 373 544 l 1,15,-1
 373 514 l 2,16,17
 373 204.704 373 204.704 541.5 108 c 0,18,19
 599 75 599 75 679 75 c 0,20,21
 861 75 861 75 1009 223 c 1,22,-1
 1060 175 l 1,23,24
 1024 132 1024 132 982 98 c 1,25,-1
 839.5 -27.5 l 1,26,27
 727.959 -131.144 727.959 -131.144 700.5 -205 c 0,28,29
 686 -244 686 -244 686 -283 c 128,-1,30
 686 -322 686 -322 694.5 -349.5 c 128,-1,31
 703 -377 703 -377 719.5 -397 c 0,32,33
 754.15 -439 754.15 -439 795.575 -439 c 128,-1,34
 837 -439 837 -439 864 -429.5 c 128,-1,35
 891 -420 891 -420 915.5 -405 c 0,36,37
 964.887 -374.763 964.887 -374.763 993 -338 c 1,38,-1
 1040 -390 l 1,39,40
 1013.83 -434.492 1013.83 -434.492 947.414 -475.246 c 0,41,42
 817.444 -555 817.444 -555 715 -555 c 0,43,44
 442 -555 442 -555 442 -352 c 0,45,46
 442 -175.6 442 -175.6 708 -16 c 1,0,1
813 626 m 1,47,48
 808.812 961 808.812 961 615 961 c 0,49,50
 407.455 961 407.455 961 377 626 c 1,51,-1
 813 626 l 1,47,48
EndSplineSet
EndChar

StartChar: aogonek
Encoding: 261 261 139
Width: 1195
Flags: HW
LayerCount: 2
Fore
SplineSet
896 -7 m 1,0,1
 797.446 21.7448 797.446 21.7448 765 113 c 1,2,3
 688.076 25.087 688.076 25.087 564 -8 c 0,4,5
 519 -20 519 -20 453.5 -20 c 128,-1,6
 388 -20 388 -20 319.5 1 c 128,-1,7
 251 22 251 22 200.5 61 c 0,8,9
 92 144.792 92 144.792 92 282 c 0,10,11
 92 411.66 92 411.66 200 490.5 c 0,12,13
 302.055 565 302.055 565 467.299 565 c 128,-1,14
 632.543 565 632.543 565 744 482 c 1,15,-1
 744 720 l 2,16,17
 744 841.091 744 841.091 714 884.045 c 128,-1,18
 684 927 684 927 643.5 944 c 128,-1,19
 603 961 603 961 553.5 961 c 128,-1,20
 504 961 504 961 474 955.5 c 128,-1,21
 444 950 444 950 419.5 942 c 0,22,23
 371.242 926.242 371.242 926.242 353 908 c 1,24,25
 398.752 894.274 398.752 894.274 423.5 837.5 c 0,26,27
 432 818 432 818 432 790.5 c 128,-1,28
 432 763 432 763 421 739 c 128,-1,29
 410 715 410 715 391 697.5 c 0,30,31
 352.457 662 352.457 662 312.229 662 c 128,-1,32
 272 662 272 662 247.5 671 c 128,-1,33
 223 680 223 680 204.5 697.5 c 0,34,35
 164 735.811 164 735.811 164 787.905 c 128,-1,36
 164 840 164 840 183 873.5 c 128,-1,37
 202 907 202 907 233.5 933.5 c 128,-1,38
 265 960 265 960 306 980 c 128,-1,39
 347 1000 347 1000 391.5 1013 c 0,40,41
 480.5 1039 480.5 1039 561 1039 c 0,42,43
 786 1039 786 1039 894 948 c 128,-1,44
 1002 857 1002 857 1002 694 c 2,45,-1
 1002 161 l 2,46,47
 1002 78 1002 78 1042.77 78 c 128,-1,48
 1083.54 78 1083.54 78 1122 128 c 1,49,-1
 1174 85 l 1,50,51
 1150 48 1150 48 1105 20 c 1,52,-1
 1106 20 l 1,53,54
 994.449 -39.0563 994.449 -39.0563 932.725 -100.028 c 128,-1,55
 871 -161 871 -161 845.5 -204 c 128,-1,56
 820 -247 820 -247 820 -284.5 c 128,-1,57
 820 -322 820 -322 828.5 -349.5 c 128,-1,58
 837 -377 837 -377 853.5 -397 c 0,59,60
 888.15 -439 888.15 -439 929.575 -439 c 128,-1,61
 971 -439 971 -439 998 -429.5 c 128,-1,62
 1025 -420 1025 -420 1049.5 -405 c 0,63,64
 1098.89 -374.763 1098.89 -374.763 1127 -338 c 1,65,-1
 1174 -390 l 1,66,67
 1147.83 -434.492 1147.83 -434.492 1081.41 -475.246 c 0,68,69
 951.444 -555 951.444 -555 849 -555 c 0,70,71
 576 -555 576 -555 576 -352 c 0,72,73
 576 -255.419 576 -255.419 682.5 -153.5 c 0,74,75
 769.482 -70.2588 769.482 -70.2588 896 -7 c 1,0,1
747 393 m 1,76,77
 661.757 476 661.757 476 560.878 476 c 128,-1,78
 460 476 460 476 409 428.5 c 128,-1,79
 358 381 358 381 358 276 c 0,80,81
 358 120.903 358 120.903 467 87.5 c 0,82,83
 498 78 498 78 530 78 c 256,84,85
 621.463 78 621.463 78 704 148.5 c 0,86,87
 728 169 728 169 747 193 c 1,88,-1
 747 393 l 1,76,77
EndSplineSet
EndChar

StartChar: uogonek
Encoding: 371 371 140
Width: 1366
Flags: HW
LayerCount: 2
Fore
SplineSet
888 98 m 1,0,1
 754.704 -20 754.704 -20 584 -20 c 0,2,3
 446.143 -20 446.143 -20 339 42.5 c 0,4,5
 191 128.833 191 128.833 191 333 c 2,6,-1
 191 945 l 1,7,-1
 59 945 l 1,8,-1
 59 1023 l 1,9,-1
 451 1023 l 1,10,-1
 451 287 l 2,11,12
 451 76 451 76 646 76 c 0,13,14
 780.814 76 780.814 76 888 200 c 1,15,-1
 888 945 l 1,16,-1
 715 945 l 1,17,-1
 715 1023 l 1,18,-1
 1146 1023 l 1,19,-1
 1146 78 l 1,20,-1
 1275 78 l 1,21,-1
 1275 0 l 1,22,-1
 1018 0 l 1,23,24
 910.019 -97.5981 910.019 -97.5981 881.01 -142.799 c 0,25,26
 834 -216.047 834 -216.047 834 -289 c 0,27,28
 834 -392.556 834 -392.556 906.5 -428 c 0,29,30
 929 -439 929 -439 957 -439 c 128,-1,31
 985 -439 985 -439 1012 -429.5 c 128,-1,32
 1039 -420 1039 -420 1063.5 -405 c 0,33,34
 1112.89 -374.763 1112.89 -374.763 1141 -338 c 1,35,-1
 1188 -390 l 1,36,37
 1161.83 -434.492 1161.83 -434.492 1095.41 -475.246 c 0,38,39
 965.444 -555 965.444 -555 863 -555 c 0,40,41
 590 -555 590 -555 590 -352 c 0,42,43
 590 -179.548 590 -179.548 834 -30 c 1,44,-1
 888 2 l 1,45,-1
 888 98 l 1,0,1
EndSplineSet
EndChar

StartChar: Uogonek
Encoding: 370 370 141
Width: 1539
Flags: HW
LayerCount: 2
Fore
SplineSet
885 -16 m 1,0,1
 849 -20 849 -20 806 -20 c 128,-1,2
 763 -20 763 -20 697.5 -14 c 128,-1,3
 632 -8 632 -8 562 12 c 128,-1,4
 492 32 492 32 424 70 c 128,-1,5
 356 108 356 108 302.5 172.5 c 0,6,7
 183 316.57 183 316.57 183 559 c 2,8,-1
 183 1452 l 1,9,-1
 46 1452 l 1,10,-1
 46 1530 l 1,11,-1
 598 1530 l 1,12,-1
 598 1452 l 1,13,-1
 452 1452 l 1,14,-1
 452 545 l 2,15,16
 452 175.518 452 175.518 667.5 98 c 0,17,18
 737 73 737 73 801.5 73 c 128,-1,19
 866 73 866 73 914 79 c 128,-1,20
 962 85 962 85 1010 102.5 c 128,-1,21
 1058 120 1058 120 1103 152 c 128,-1,22
 1148 184 1148 184 1182.5 236 c 0,23,24
 1258 349.797 1258 349.797 1258 543 c 2,25,-1
 1258 1452 l 1,26,-1
 1079 1452 l 1,27,-1
 1079 1530 l 1,28,-1
 1493 1530 l 1,29,-1
 1493 1452 l 1,30,-1
 1356 1452 l 1,31,-1
 1356 529 l 2,32,33
 1356 166.831 1356 166.831 1100 41 c 1,34,35
 864 -162.523 864 -162.523 864 -289 c 0,36,37
 864 -392.556 864 -392.556 936.5 -428 c 0,38,39
 959 -439 959 -439 987 -439 c 128,-1,40
 1015 -439 1015 -439 1042 -429.5 c 128,-1,41
 1069 -420 1069 -420 1093.5 -405 c 0,42,43
 1142.89 -374.763 1142.89 -374.763 1171 -338 c 1,44,-1
 1218 -390 l 1,45,46
 1191.83 -434.492 1191.83 -434.492 1125.41 -475.246 c 0,47,48
 995.444 -555 995.444 -555 893 -555 c 0,49,50
 620 -555 620 -555 620 -352 c 0,51,52
 620 -248.438 620 -248.438 715 -147.5 c 0,53,54
 777.561 -81.0288 777.561 -81.0288 885 -16 c 1,0,1
EndSplineSet
EndChar

StartChar: kgreenlandic
Encoding: 312 312 142
Width: 1367
Flags: HW
LayerCount: 2
Fore
SplineSet
59 78 m 1,0,-1
 212 78 l 1,1,-1
 212 945 l 1,2,-1
 59 945 l 1,3,-1
 59 1023 l 1,4,-1
 472 1023 l 1,5,-1
 472 498 l 1,6,-1
 978 946 l 1,7,-1
 799 946 l 1,8,-1
 799 1023 l 1,9,-1
 1216 1023 l 1,10,-1
 1216 946 l 1,11,-1
 1107 946 l 1,12,-1
 779 662 l 1,13,-1
 1199 78 l 1,14,-1
 1332 78 l 1,15,-1
 1332 0 l 1,16,-1
 762 0 l 1,17,-1
 762 78 l 1,18,-1
 901 78 l 1,19,-1
 600 506 l 1,20,-1
 472 395 l 1,21,-1
 472 78 l 1,22,-1
 620 78 l 1,23,-1
 620 0 l 1,24,-1
 59 0 l 1,25,-1
 59 78 l 1,0,-1
EndSplineSet
EndChar

StartChar: lacute
Encoding: 314 314 145
Width: 683
Flags: HW
LayerCount: 2
Fore
SplineSet
54 78 m 1,0,-1
 216 78 l 1,1,-1
 216 1425 l 1,2,-1
 54 1425 l 1,3,-1
 54 1504 l 1,4,-1
 481 1504 l 1,5,-1
 481 78 l 1,6,-1
 643 78 l 1,7,-1
 643 0 l 1,8,-1
 54 0 l 1,9,-1
 54 78 l 1,0,-1
122 1678 m 1,10,-1
 411 1955 l 2,11,12
 437 1979 437 1979 460.5 1990.5 c 128,-1,13
 484 2002 484 2002 512 1998.5 c 128,-1,14
 540 1995 540 1995 560 1984.5 c 128,-1,15
 580 1974 580 1974 594 1957.5 c 0,16,17
 624.995 1920.97 624.995 1920.97 618.498 1881.48 c 0,18,19
 604.974 1799.31 604.974 1799.31 539 1775 c 1,20,-1
 144 1638 l 1,21,-1
 122 1678 l 1,10,-1
EndSplineSet
EndChar

StartChar: ellipsis
Encoding: 8230 8230 146
Width: 2049
Flags: HW
LayerCount: 2
Fore
SplineSet
1548 141 m 256,0,1
 1548 248.121 1548 248.121 1644 289.5 c 0,2,3
 1673 302 1673 302 1707 302 c 256,4,5
 1775 302 1775 302 1821.5 255.5 c 0,6,7
 1867 210 1867 210 1867 141 c 256,8,9
 1867 73 1867 73 1821.5 27.5 c 128,-1,10
 1776 -18 1776 -18 1707 -18 c 256,11,12
 1639 -18 1639 -18 1593.5 27.5 c 128,-1,13
 1548 73 1548 73 1548 141 c 256,0,1
865 141 m 256,14,15
 865 248.121 865 248.121 961 289.5 c 0,16,17
 990 302 990 302 1024 302 c 256,18,19
 1092 302 1092 302 1138.5 255.5 c 0,20,21
 1184 210 1184 210 1184 141 c 256,22,23
 1184 73 1184 73 1138.5 27.5 c 128,-1,24
 1093 -18 1093 -18 1024 -18 c 256,25,26
 956 -18 956 -18 910.5 27.5 c 128,-1,27
 865 73 865 73 865 141 c 256,14,15
182 141 m 256,28,29
 182 248.121 182 248.121 278 289.5 c 0,30,31
 307 302 307 302 341 302 c 256,32,33
 409 302 409 302 455.5 255.5 c 0,34,35
 501 210 501 210 501 141 c 256,36,37
 501 73 501 73 455.5 27.5 c 128,-1,38
 410 -18 410 -18 341 -18 c 256,39,40
 273 -18 273 -18 227.5 27.5 c 128,-1,41
 182 73 182 73 182 141 c 256,28,29
EndSplineSet
EndChar

StartChar: macron.cap
Encoding: 65546 -1 148
Width: 682
Flags: HW
LayerCount: 2
Fore
SplineSet
13 1870 m 1,0,-1
 670 1870 l 1,1,-1
 670 1747 l 1,2,-1
 13 1747 l 1,3,-1
 13 1870 l 1,0,-1
EndSplineSet
EndChar

StartChar: breve.cap
Encoding: 65547 -1 149
Width: 682
Flags: HW
LayerCount: 2
Fore
SplineSet
654 2000 m 1,0,1
 659 1965 659 1965 659 1923 c 128,-1,2
 659 1881 659 1881 636.5 1827 c 128,-1,3
 614 1773 614 1773 571.5 1733 c 0,4,5
 480.125 1647 480.125 1647 333 1647 c 256,6,7
 185.875 1647 185.875 1647 94.5 1733 c 0,8,9
 7 1815.35 7 1815.35 7 1943 c 0,10,11
 7 1965 7 1965 12 2000 c 1,12,-1
 69 2000 l 1,13,14
 141 1820 141 1820 333 1820 c 256,15,16
 525 1820 525 1820 597 2000 c 1,17,-1
 654 2000 l 1,0,1
EndSplineSet
EndChar

StartChar: caronvertical
Encoding: 65548 -1 151
Width: 511
Flags: HW
LayerCount: 2
Fore
SplineSet
145 1086 m 1,0,1
 250.649 1181.42 250.649 1181.42 273 1377 c 1,2,3
 268 1376 268 1376 264 1376 c 2,4,-1
 255 1376 l 2,5,6
 186.957 1376 186.957 1376 141.5 1427 c 0,7,8
 100 1473.56 100 1473.56 100 1545 c 0,9,10
 100 1651.57 100 1651.57 191 1691 c 0,11,12
 221 1704 221 1704 262 1704 c 0,13,14
 336 1704 336 1704 373.5 1654 c 128,-1,15
 411 1604 411 1604 411 1532 c 128,-1,16
 411 1460 411 1460 397.5 1393 c 128,-1,17
 384 1326 384 1326 358 1261 c 0,18,19
 300.618 1117.54 300.618 1117.54 201 1039 c 1,20,-1
 145 1086 l 1,0,1
EndSplineSet
EndChar

StartChar: asterisk
Encoding: 42 42 153
Width: 1193
Flags: HW
LayerCount: 2
Fore
SplineSet
470 902 m 2,0,1
 443.029 843 443.029 843 375 843 c 0,2,3
 328.897 843 328.897 843 309.448 866.5 c 0,4,5
 278 904.5 278 904.5 278 938.25 c 128,-1,6
 278 972 278 972 289 990.5 c 128,-1,7
 300 1009 300 1009 323 1029 c 2,8,-1
 543 1208 l 1,9,-1
 238 1251 l 2,10,11
 195.333 1256.33 195.333 1256.33 176.167 1282.17 c 0,12,13
 147 1321.48 147 1321.48 147 1349.74 c 128,-1,14
 147 1378 147 1378 155.5 1396 c 128,-1,15
 164 1414 164 1414 178.5 1426.5 c 0,16,17
 210.4 1454 210.4 1454 245.2 1454 c 128,-1,18
 280 1454 280 1454 313 1431 c 1,19,-1
 562 1267 l 1,20,-1
 500 1582 l 1,21,-1
 501 1581 l 1,22,23
 498 1593 498 1593 498 1609 c 128,-1,24
 498 1625 498 1625 507.5 1643.5 c 128,-1,25
 517 1662 517 1662 532 1675.5 c 0,26,27
 563.667 1704 563.667 1704 591.833 1704 c 128,-1,28
 620 1704 620 1704 638.5 1695 c 128,-1,29
 657 1686 657 1686 670.5 1671.5 c 0,30,31
 700 1639.81 700 1639.81 700 1616.91 c 0,32,33
 700 1592 700 1592 695 1567 c 2,34,-1
 626 1266 l 1,35,-1
 893 1434 l 1,36,37
 918 1448 918 1448 942 1448 c 128,-1,38
 966 1448 966 1448 985 1439 c 128,-1,39
 1004 1430 1004 1430 1017.5 1415.5 c 0,40,41
 1046 1384.89 1046 1384.89 1046 1353.94 c 128,-1,42
 1046 1323 1046 1323 1037 1304.5 c 128,-1,43
 1028 1286 1028 1286 1013 1273.5 c 0,44,45
 985.854 1250.88 985.854 1250.88 940 1244 c 2,46,-1
 645 1206 l 1,47,-1
 876 1013 l 2,48,49
 908 986.333 908 986.333 908 950.167 c 128,-1,50
 908 914 908 914 899.5 894.5 c 128,-1,51
 891 875 891 875 877 862.5 c 0,52,53
 848.44 837 848.44 837 807.72 837 c 128,-1,54
 767 837 767 837 745.5 859 c 128,-1,55
 724 881 724 881 710 911 c 2,56,-1
 592 1171 l 1,57,-1
 470 902 l 2,0,1
EndSplineSet
EndChar

StartChar: notequal
Encoding: 8800 8800 154
Width: 1536
Flags: HW
LayerCount: 2
Fore
SplineSet
591 340 m 1,0,-1
 270 340 l 1,1,-1
 270 440 l 1,2,-1
 651 440 l 1,3,-1
 796 680 l 1,4,-1
 270 680 l 1,5,-1
 270 780 l 1,6,-1
 857 780 l 1,7,-1
 1038 1080 l 1,8,-1
 1117 1028 l 1,9,-1
 967 780 l 1,10,-1
 1266 780 l 1,11,-1
 1266 680 l 1,12,-1
 907 680 l 1,13,-1
 762 440 l 1,14,-1
 1266 440 l 1,15,-1
 1266 340 l 1,16,-1
 701 340 l 1,17,-1
 500 6 l 1,18,-1
 421 58 l 1,19,-1
 591 340 l 1,0,-1
EndSplineSet
EndChar

StartChar: braceleft
Encoding: 123 123 156
Width: 1024
Flags: HW
LayerCount: 2
Fore
SplineSet
327 597 m 1,0,1
 652 556.375 652 556.375 652 206 c 0,2,3
 652 173 652 173 648.5 128 c 2,4,-1
 633.5 -55.5 l 2,5,6
 630 -100 630 -100 630 -149.5 c 128,-1,7
 630 -199 630 -199 643 -258 c 128,-1,8
 656 -317 656 -317 687.5 -364 c 0,9,10
 753.825 -462.961 753.825 -462.961 907 -497 c 1,11,-1
 887 -560 l 1,12,13
 635.399 -520.178 635.399 -520.178 512 -370.5 c 0,14,15
 415 -252.843 415 -252.843 415 -90 c 1,16,-1
 438 262 l 1,17,18
 438 401.339 438 401.339 390 462.5 c 0,19,20
 323.765 546.896 323.765 546.896 141 567 c 1,21,-1
 141 635 l 1,22,23
 402.079 663.719 402.079 663.719 429.5 810.5 c 0,24,25
 438 856 438 856 438 910 c 1,26,-1
 415 1294 l 1,27,28
 415 1556.2 415 1556.2 657 1690.5 c 0,29,30
 748 1741 748 1741 887 1764 c 1,31,-1
 907 1701 l 1,32,33
 684.78 1651.62 684.78 1651.62 643 1462 c 0,34,35
 630 1403 630 1403 630 1351.5 c 128,-1,36
 630 1300 630 1300 633.5 1251 c 2,37,-1
 641 1150.5 l 2,38,39
 652 1008.88 652 1008.88 652 966 c 0,40,41
 652 640.547 652 640.547 327 605 c 1,42,-1
 327 597 l 1,0,1
EndSplineSet
EndChar

StartChar: Lslash
Encoding: 321 321 157
Width: 1367
Flags: HW
LayerCount: 2
Fore
SplineSet
71 79 m 1,0,-1
 285 78 l 1,1,-1
 285 647 l 1,2,-1
 97 551 l 1,3,-1
 64 621 l 1,4,-1
 285 734 l 1,5,-1
 286 1453 l 1,6,-1
 118 1453 l 1,7,-1
 118 1530 l 1,8,-1
 733 1530 l 1,9,-1
 733 1453 l 1,10,-1
 555 1453 l 1,11,-1
 555 872 l 1,12,-1
 986 1093 l 1,13,-1
 1019 1023 l 1,14,-1
 555 785 l 1,15,-1
 555 78 l 1,16,-1
 861 78 l 2,17,18
 1124.46 78 1124.46 78 1180 321 c 0,19,20
 1196 391 1196 391 1201 465 c 1,21,-1
 1279 465 l 1,22,-1
 1279 0 l 1,23,-1
 71 0 l 1,24,-1
 71 79 l 1,0,-1
EndSplineSet
EndChar

StartChar: AE
Encoding: 198 198 158
Width: 2218
Flags: HW
LayerCount: 2
Fore
SplineSet
871 1452 m 1,0,-1
 748 1452 l 1,1,-1
 748 1530 l 1,2,-1
 2041 1530 l 1,3,-1
 2041 1094 l 1,4,-1
 1963 1094 l 1,5,6
 1958 1177 1958 1177 1949 1241.5 c 128,-1,7
 1940 1306 1940 1306 1911.5 1351 c 0,8,9
 1853.36 1442.81 1853.36 1442.81 1675 1452 c 1,10,-1
 1228 1452 l 1,11,-1
 1228 803 l 1,12,-1
 1468 803 l 2,13,14
 1553 803 1553 803 1598.5 830.5 c 128,-1,15
 1644 858 1644 858 1654 927 c 0,16,17
 1656 947 1656 947 1657.5 969.5 c 128,-1,18
 1659 992 1659 992 1661 1014 c 1,19,-1
 1745 1014 l 1,20,-1
 1745 498 l 1,21,-1
 1661 498 l 1,22,23
 1659 521 1659 521 1657.5 551 c 128,-1,24
 1656 581 1656 581 1654 601 c 0,25,26
 1644 670 1644 670 1597.5 697.5 c 128,-1,27
 1551 725 1551 725 1468 725 c 2,28,-1
 1228 725 l 1,29,-1
 1228 78 l 1,30,-1
 1646 78 l 2,31,32
 1909.46 78 1909.46 78 1965 321 c 0,33,34
 1981 391 1981 391 1986 465 c 1,35,-1
 2064 465 l 1,36,-1
 2064 0 l 1,37,-1
 748 0 l 1,38,-1
 748 79 l 1,39,-1
 958 79 l 1,40,-1
 958 725 l 1,41,-1
 541 725 l 1,42,-1
 154 78 l 1,43,-1
 340 78 l 1,44,-1
 340 0 l 1,45,-1
 -109 0 l 1,46,-1
 -109 78 l 1,47,-1
 37 78 l 1,48,-1
 871 1452 l 1,0,-1
958 804 m 1,49,-1
 959 1422 l 1,50,-1
 589 804 l 1,51,-1
 958 804 l 1,49,-1
EndSplineSet
EndChar

StartChar: OE
Encoding: 338 338 159
Width: 2390
Flags: HW
LayerCount: 2
Fore
SplineSet
176 460.5 m 128,-1,1
 125 604 125 604 125 738 c 128,-1,2
 125 872 125 872 147.5 970 c 128,-1,3
 170 1068 170 1068 214.5 1155 c 128,-1,4
 259 1242 259 1242 323.5 1314.5 c 128,-1,5
 388 1387 388 1387 472.5 1439.5 c 0,6,7
 650.352 1550 650.352 1550 882 1550 c 0,8,9
 980 1550 980 1550 1071 1530 c 1,10,-1
 2213 1530 l 1,11,-1
 2213 1094 l 1,12,-1
 2135 1094 l 1,13,14
 2130 1177 2130 1177 2121 1241.5 c 128,-1,15
 2112 1306 2112 1306 2083.5 1351 c 0,16,17
 2025.36 1442.81 2025.36 1442.81 1847 1452 c 1,18,-1
 1379 1452 l 1,19,-1
 1379 824 l 1,20,-1
 1640 824 l 2,21,22
 1725 824 1725 824 1770.5 851.5 c 128,-1,23
 1816 879 1816 879 1826 948 c 0,24,25
 1828 968 1828 968 1829.5 990.5 c 128,-1,26
 1831 1013 1831 1013 1833 1035 c 1,27,-1
 1917 1035 l 1,28,-1
 1917 519 l 1,29,-1
 1833 519 l 1,30,31
 1831 542 1831 542 1829.5 572 c 128,-1,32
 1828 602 1828 602 1826 622 c 0,33,34
 1816 691 1816 691 1769.5 718.5 c 128,-1,35
 1723 746 1723 746 1640 746 c 2,36,-1
 1379 746 l 1,37,-1
 1379 78 l 1,38,-1
 1818 78 l 2,39,40
 2081.46 78 2081.46 78 2137 321 c 0,41,42
 2153 391 2153 391 2158 465 c 1,43,-1
 2236 465 l 1,44,-1
 2236 0 l 1,45,-1
 1075 0 l 1,46,47
 983 -20 983 -20 882 -20 c 0,48,49
 530.93 -20 530.93 -20 323.5 210 c 0,50,0
 227 317 227 317 176 460.5 c 128,-1,1
1110 1387 m 1,51,52
 1011.3 1450 1011.3 1450 901.15 1450 c 128,-1,53
 791 1450 791 1450 721 1424 c 128,-1,54
 651 1398 651 1398 598.5 1352 c 128,-1,55
 546 1306 546 1306 510 1242.5 c 128,-1,56
 474 1179 474 1179 452 1103 c 0,57,58
 389.795 888.11 389.795 888.11 424 602.5 c 0,59,60
 471.343 207.186 471.343 207.186 722.5 106 c 0,61,62
 792 78 792 78 871 78 c 0,63,64
 1012.06 78 1012.06 78 1109 144 c 1,65,-1
 1110 1387 l 1,51,52
EndSplineSet
EndChar

StartChar: parenleft
Encoding: 40 40 161
Width: 1024
Flags: HW
LayerCount: 2
Fore
SplineSet
276 610 m 0,0,1
 276 761 276 761 302.5 895.5 c 128,-1,2
 329 1030 329 1030 376.5 1142.5 c 128,-1,3
 424 1255 424 1255 489.5 1347.5 c 128,-1,4
 555 1440 555 1440 632.5 1516 c 0,5,6
 768.266 1649.14 768.266 1649.14 975 1765 c 1,7,-1
 1023 1709 l 1,8,9
 613.096 1419 613.096 1419 535.5 926.5 c 0,10,11
 511 771 511 771 511 634.5 c 128,-1,12
 511 498 511 498 521.5 393.5 c 128,-1,13
 532 289 532 289 556.5 187.5 c 128,-1,14
 581 86 581 86 620 -11.5 c 128,-1,15
 659 -109 659 -109 715.5 -197 c 0,16,17
 836.013 -384.702 836.013 -384.702 1023 -503 c 1,18,-1
 975 -560 l 1,19,20
 683.338 -418.977 683.338 -418.977 489.5 -126 c 0,21,22
 276 196.695 276 196.695 276 610 c 0,0,1
EndSplineSet
EndChar

StartChar: guilsinglleft
Encoding: 8249 8249 165
Width: 1194
Flags: HW
LayerCount: 2
Fore
SplineSet
277 538 m 1,0,1
 569.162 715.491 569.162 715.491 685.581 804.745 c 128,-1,2
 802 894 802 894 871 956 c 1,3,-1
 917 906 l 1,4,5
 831 787 831 787 740.5 688.5 c 2,6,-1
 564 499 l 1,7,-1
 740.5 310 l 1,8,9
 831 211 831 211 917 91 c 1,10,-1
 871 41 l 1,11,12
 800 101 800 101 724.5 157.5 c 1,13,14
 526.589 299.423 526.589 299.423 436.294 357.212 c 2,15,-1
 277 459 l 1,16,-1
 277 538 l 1,0,1
EndSplineSet
EndChar

StartChar: exclam
Encoding: 33 33 169
Width: 852
Flags: HW
LayerCount: 2
Fore
SplineSet
268 1489 m 1,0,1
 265 1504 265 1504 265 1531 c 128,-1,2
 265 1558 265 1558 278 1587.5 c 128,-1,3
 291 1617 291 1617 313.5 1639 c 0,4,5
 360.545 1685 360.545 1685 426 1685 c 256,6,7
 491.455 1685 491.455 1685 538.5 1639 c 0,8,9
 587 1591.58 587 1591.58 587 1523 c 0,10,11
 587 1504 587 1504 584 1489 c 1,12,-1
 473 447 l 1,13,-1
 379 447 l 1,14,-1
 268 1489 l 1,0,1
267 141 m 256,15,16
 267 248.121 267 248.121 363 289.5 c 0,17,18
 392 302 392 302 426 302 c 256,19,20
 494 302 494 302 540.5 255.5 c 0,21,22
 586 210 586 210 586 141 c 256,23,24
 586 73 586 73 540.5 27.5 c 128,-1,25
 495 -18 495 -18 426 -18 c 256,26,27
 358 -18 358 -18 312.5 27.5 c 128,-1,28
 267 73 267 73 267 141 c 256,15,16
EndSplineSet
EndChar

StartChar: question
Encoding: 63 63 171
Width: 1364
Flags: HW
LayerCount: 2
Fore
SplineSet
509 750 m 1,0,1
 722.505 821.833 722.505 821.833 845.5 965.5 c 0,2,3
 969 1109.76 969 1109.76 969 1283 c 0,4,5
 969 1526 969 1526 783 1595 c 0,6,7
 721 1618 721 1618 631 1618 c 0,8,9
 457.529 1618 457.529 1618 362 1502 c 1,10,11
 414 1487 414 1487 446.5 1444 c 128,-1,12
 479 1401 479 1401 479 1354.5 c 128,-1,13
 479 1308 479 1308 466.5 1278.5 c 128,-1,14
 454 1249 454 1249 432 1226.5 c 0,15,16
 385.556 1179 385.556 1179 314 1179 c 256,17,18
 245 1179 245 1179 197.5 1226.5 c 128,-1,19
 150 1274 150 1274 150 1343 c 2,20,-1
 150 1353.5 l 2,21,22
 150 1359 150 1359 151 1364 c 1,23,24
 151 1423 151 1423 189 1483.5 c 128,-1,25
 227 1544 227 1544 293 1593 c 0,26,27
 442.51 1704 442.51 1704 646 1704 c 0,28,29
 892.828 1704 892.828 1704 1050.5 1586 c 0,30,31
 1218 1460.65 1218 1460.65 1218 1252 c 0,32,33
 1218 1055.61 1218 1055.61 1054 905 c 0,34,35
 906.405 769.454 906.405 769.454 719 730 c 1,36,-1
 666 447 l 1,37,-1
 569 447 l 1,38,-1
 509 750 l 1,0,1
460 141 m 256,39,40
 460 248.121 460 248.121 556 289.5 c 0,41,42
 585 302 585 302 619 302 c 256,43,44
 687 302 687 302 733.5 255.5 c 0,45,46
 779 210 779 210 779 141 c 256,47,48
 779 73 779 73 733.5 27.5 c 128,-1,49
 688 -18 688 -18 619 -18 c 256,50,51
 551 -18 551 -18 505.5 27.5 c 128,-1,52
 460 73 460 73 460 141 c 256,39,40
EndSplineSet
EndChar

StartChar: ordmasculine
Encoding: 186 186 173
Width: 1028
Flags: HW
LayerCount: 2
Fore
SplineSet
515 1040 m 0,0,1
 437 1040 437 1040 370.5 1064 c 128,-1,2
 304 1088 304 1088 255.5 1132 c 0,3,4
 151 1226.8 151 1226.8 151 1372 c 0,5,6
 151 1513.93 151 1513.93 255.5 1605.5 c 0,7,8
 358.776 1696 358.776 1696 514 1696 c 0,9,10
 670.224 1696 670.224 1696 773.5 1605.5 c 0,11,12
 876 1515.68 876 1515.68 876 1372 c 0,13,14
 876 1225.5 876 1225.5 774 1132 c 0,15,16
 673.636 1040 673.636 1040 515 1040 c 0,0,1
514 1102 m 256,17,18
 635.48 1102 635.48 1102 657.5 1268 c 0,19,20
 664 1317 664 1317 664 1371.5 c 128,-1,21
 664 1426 664 1426 657.5 1474 c 128,-1,22
 651 1522 651 1522 634.5 1557 c 0,23,24
 598.671 1633 598.671 1633 514 1633 c 256,25,26
 390.031 1633 390.031 1633 368.5 1474 c 0,27,28
 362 1426 362 1426 362 1371.5 c 128,-1,29
 362 1317 362 1317 368.5 1268 c 128,-1,30
 375 1219 375 1219 392 1182 c 0,31,32
 428.757 1102 428.757 1102 514 1102 c 256,17,18
EndSplineSet
EndChar

StartChar: ordfeminine
Encoding: 170 170 174
Width: 1028
Flags: HW
LayerCount: 2
Fore
SplineSet
649 1114 m 1,0,1
 567.071 1040 567.071 1040 427 1040 c 0,2,3
 331.286 1040 331.286 1040 267 1092.5 c 0,4,5
 203 1144.77 203 1144.77 203 1227 c 0,6,7
 203 1301.94 203 1301.94 274 1352.5 c 0,8,9
 343.511 1402 343.511 1402 449.533 1402 c 128,-1,10
 555.556 1402 555.556 1402 633 1361 c 1,11,-1
 633 1502 l 2,12,13
 633 1570.34 633 1570.34 609.5 1593.17 c 0,14,15
 566.441 1635 566.441 1635 476 1635 c 0,16,17
 423.8 1635 423.8 1635 377 1617 c 1,18,19
 430 1595.8 430 1595.8 430 1547 c 0,20,21
 430 1507.43 430 1507.43 407 1487.71 c 0,22,23
 368.833 1455 368.833 1455 337.917 1455 c 128,-1,24
 307 1455 307 1455 288.5 1461.5 c 128,-1,25
 270 1468 270 1468 256 1479.5 c 0,26,27
 226 1504.14 226 1504.14 226 1542.57 c 128,-1,28
 226 1581 226 1581 254.5 1609.5 c 128,-1,29
 283 1638 283 1638 325 1657.5 c 0,30,31
 407.923 1696 407.923 1696 505 1696 c 0,32,33
 665 1696 665 1696 741.5 1640 c 128,-1,34
 818 1584 818 1584 818 1487 c 2,35,-1
 818 1161 l 2,36,37
 818 1112 818 1112 846 1112 c 256,38,39
 872.333 1112 872.333 1112 894 1137 c 1,40,-1
 934 1103 l 1,41,42
 914 1077 914 1077 873 1058.5 c 128,-1,43
 832 1040 832 1040 787 1040 c 0,44,45
 684.943 1040 684.943 1040 649 1114 c 1,0,1
505 1334 m 0,46,47
 392 1334 392 1334 392 1223 c 0,48,49
 392 1141.67 392 1141.67 463.5 1116 c 0,50,51
 483 1109 483 1109 502 1109 c 0,52,53
 574.844 1109 574.844 1109 635 1186 c 1,54,-1
 635 1282 l 1,55,56
 573.545 1334 573.545 1334 505 1334 c 0,46,47
EndSplineSet
EndChar

StartChar: degree
Encoding: 176 176 175
Width: 1028
Flags: HW
LayerCount: 2
Fore
SplineSet
516 1023 m 0,0,1
 446 1023 446 1023 383.5 1047 c 128,-1,2
 321 1071 321 1071 273 1115 c 0,3,4
 169 1210.33 169 1210.33 169 1361 c 0,5,6
 169 1510.25 169 1510.25 273 1604.5 c 0,7,8
 373.966 1696 373.966 1696 515 1696 c 0,9,10
 658.138 1696 658.138 1696 757 1604.5 c 0,11,12
 859 1510.1 859 1510.1 859 1361 c 0,13,14
 859 1209.55 859 1209.55 758 1115 c 0,15,16
 659.727 1023 659.727 1023 516 1023 c 0,0,1
515 1126 m 256,17,18
 618.294 1126 618.294 1126 674.5 1204 c 0,19,20
 720 1267.14 720 1267.14 720 1361 c 0,21,22
 720 1513.31 720 1513.31 611 1572 c 0,23,24
 572 1593 572 1593 515 1593 c 256,25,26
 409.716 1593 409.716 1593 354.5 1517.5 c 0,27,28
 308 1453.92 308 1453.92 308 1361 c 0,29,30
 308 1209.54 308 1209.54 418.5 1148 c 0,31,32
 458 1126 458 1126 515 1126 c 256,17,18
EndSplineSet
EndChar

StartChar: paragraph
Encoding: 182 182 176
Width: 1707
Flags: HW
LayerCount: 2
Fore
SplineSet
798 666 m 1,0,1
 528.821 667.965 528.821 667.965 372.5 807.5 c 0,2,3
 220 943.624 220 943.624 220 1176 c 0,4,5
 220 1420.54 220 1420.54 387 1556.5 c 0,6,7
 543.614 1684 543.614 1684 804 1684 c 2,8,-1
 1520 1684 l 1,9,-1
 1520 1606 l 1,10,-1
 1349 1606 l 1,11,-1
 1349 -302 l 1,12,-1
 1189 -302 l 1,13,-1
 1190 1606 l 1,14,-1
 958 1606 l 1,15,-1
 958 -302 l 1,16,-1
 798 -302 l 1,17,-1
 798 666 l 1,0,1
EndSplineSet
EndChar

StartChar: bracketleft
Encoding: 91 91 177
Width: 1024
Flags: HW
LayerCount: 2
Fore
SplineSet
341 1767 m 1,0,-1
 809 1767 l 1,1,-1
 809 1689 l 1,2,-1
 544 1689 l 1,3,-1
 544 -482 l 1,4,-1
 808 -482 l 1,5,-1
 808 -560 l 1,6,-1
 341 -560 l 1,7,-1
 341 1767 l 1,0,-1
EndSplineSet
EndChar

StartChar: yen
Encoding: 165 165 179
Width: 1539
Flags: HW
LayerCount: 2
Fore
SplineSet
242 418 m 1,0,-1
 649 418 l 1,1,-1
 650 589 l 1,2,-1
 643 601 l 1,3,-1
 255 601 l 1,4,-1
 262 679 l 1,5,-1
 596 679 l 1,6,-1
 135 1452 l 1,7,-1
 10 1452 l 1,8,-1
 10 1530 l 1,9,-1
 654 1530 l 1,10,-1
 654 1452 l 1,11,-1
 451 1452 l 1,12,-1
 863 733 l 1,13,-1
 1266 1452 l 1,14,-1
 1082 1452 l 1,15,-1
 1082 1530 l 1,16,-1
 1524 1530 l 1,17,-1
 1524 1452 l 1,18,-1
 1374 1452 l 1,19,-1
 934 679 l 1,20,-1
 1303 679 l 1,21,-1
 1296 601 l 1,22,-1
 919 601 l 1,23,-1
 919 418 l 1,24,-1
 1283 418 l 1,25,-1
 1276 340 l 1,26,-1
 919 340 l 1,27,-1
 919 78 l 1,28,-1
 1068 78 l 1,29,-1
 1068 0 l 1,30,-1
 501 0 l 1,31,-1
 501 78 l 1,32,-1
 649 78 l 1,33,-1
 649 340 l 1,34,-1
 235 340 l 1,35,-1
 242 418 l 1,0,-1
EndSplineSet
EndChar

StartChar: Euro
Encoding: 8364 8364 180
Width: 1534
Flags: HW
LayerCount: 2
Fore
SplineSet
1178 1408 m 1,0,1
 1206.63 1455.03 1206.63 1455.03 1219 1507 c 1,2,-1
 1314 1507 l 1,3,-1
 1314 1118 l 1,4,-1
 1209 1118 l 1,5,6
 1170.84 1357.36 1170.84 1357.36 1015.5 1433 c 0,7,8
 958 1461 958 1461 876 1461 c 128,-1,9
 794 1461 794 1461 730.5 1421 c 128,-1,10
 667 1381 667 1381 622 1310 c 0,11,12
 534.167 1171.42 534.167 1171.42 513 928 c 1,13,-1
 1108 928 l 1,14,-1
 1101 850 l 1,15,-1
 508 850 l 1,16,17
 507 829 507 829 507 808 c 2,18,-1
 507 765 l 2,19,20
 507 721 507 721 510 679 c 1,21,-1
 1088 679 l 1,22,-1
 1081 601 l 1,23,-1
 516 601 l 1,24,25
 556.633 228.53 556.633 228.53 744.5 109.5 c 0,26,27
 810 68 810 68 895 69 c 0,28,29
 1019 71 1019 71 1095.5 160.5 c 128,-1,30
 1172 250 1172 250 1200 406 c 1,31,-1
 1314 406 l 1,32,33
 1278.22 196.992 1278.22 196.992 1146 83.5 c 0,34,35
 1027.94 -17.8388 1027.94 -17.8388 880.468 -19.9194 c 128,-1,36
 733 -22 733 -22 622 18 c 128,-1,37
 511 58 511 58 427.5 137.5 c 0,38,39
 255.745 301.027 255.745 301.027 218 601 c 1,40,-1
 40 601 l 1,41,-1
 47 679 l 1,42,-1
 211 679 l 1,43,44
 209 721 209 721 209 764.5 c 128,-1,45
 209 808 209 808 212 850 c 1,46,-1
 60 850 l 1,47,-1
 67 928 l 1,48,-1
 222 928 l 1,49,50
 265.353 1194.31 265.353 1194.31 435 1366 c 0,51,52
 613.845 1547 613.845 1547 868 1547 c 0,53,54
 1011.49 1547 1011.49 1547 1126 1456.5 c 0,55,56
 1157 1432 1157 1432 1178 1408 c 1,0,1
EndSplineSet
EndChar

StartChar: cent
Encoding: 162 162 181
Width: 1197
Flags: HW
LayerCount: 2
Fore
SplineSet
748 76 m 0,0,1
 930.377 76 930.377 76 1042 192 c 1,2,-1
 1094 144 l 1,3,4
 1011.43 37.8392 1011.43 37.8392 853 -4.5 c 0,5,6
 795 -20 795 -20 756.5 -20 c 2,7,-1
 711.5 -20 l 2,8,9
 705 -20 705 -20 698 -19 c 1,10,-1
 680 -255 l 1,11,-1
 602 -255 l 1,12,-1
 620 -12 l 1,13,14
 413.986 16.8419 413.986 16.8419 291.5 153.5 c 0,15,16
 163 296.868 163 296.868 163 519 c 0,17,18
 163 755.429 163 755.429 320.5 899 c 0,19,20
 470.652 1035.87 470.652 1035.87 710 1040 c 1,21,-1
 730 1255 l 1,22,-1
 809 1255 l 1,23,-1
 789 1035 l 1,24,25
 988.869 1013.2 988.869 1013.2 1066 897.5 c 0,26,27
 1093 857 1093 857 1093 815.5 c 128,-1,28
 1093 774 1093 774 1082.5 748 c 128,-1,29
 1072 722 1072 722 1054 702.5 c 0,30,31
 1015.69 661 1015.69 661 973.846 661 c 128,-1,32
 932 661 932 661 908 670.5 c 128,-1,33
 884 680 884 680 865.5 697.5 c 0,34,35
 825 735.811 825 735.811 825 791 c 0,36,37
 825 880.793 825 880.793 900 917 c 1,38,39
 885 928 885 928 840.5 941.5 c 128,-1,40
 796 955 796 955 727 955 c 0,41,42
 439 955 439 955 439 514 c 0,43,44
 439 198 439 198 613 106.5 c 0,45,46
 671 76 671 76 748 76 c 0,0,1
EndSplineSet
EndChar

StartChar: dollar
Encoding: 36 36 182
Width: 1366
Flags: HW
LayerCount: 2
Fore
SplineSet
307 116 m 1,0,1
 266 70.4444 266 70.4444 266 0 c 1,2,-1
 177 0 l 1,3,-1
 177 408 l 1,4,-1
 280 408 l 1,5,6
 307 299 307 299 378.5 217.5 c 128,-1,7
 450 136 450 136 556 95 c 1,8,-1
 590 580 l 1,9,10
 259.831 706.565 259.831 706.565 205.5 897.5 c 0,11,12
 188 959 188 959 188 1035 c 128,-1,13
 188 1111 188 1111 223.5 1177.5 c 128,-1,14
 259 1244 259 1244 320.5 1292.5 c 0,15,16
 444.515 1390.3 444.515 1390.3 647 1407 c 1,17,-1
 660 1596 l 1,18,-1
 739 1596 l 1,19,-1
 726 1410 l 1,20,-1
 772.5 1408 l 2,21,22
 795 1407 795 1407 816 1404 c 1,23,-1
 830 1596 l 1,24,-1
 909 1596 l 1,25,-1
 895 1391 l 1,26,27
 1003.81 1364.28 1003.81 1364.28 1064 1313 c 1,28,29
 1088.09 1348.04 1088.09 1348.04 1090 1390 c 1,30,-1
 1183 1390 l 1,31,-1
 1183 1018 l 1,32,-1
 1087 1018 l 1,33,34
 1064.37 1214.12 1064.37 1214.12 888 1291 c 1,35,-1
 853 788 l 1,36,37
 1078.53 702.932 1078.53 702.932 1167 613.5 c 0,38,39
 1252 527.576 1252 527.576 1252 416.288 c 128,-1,40
 1252 305 1252 305 1216 230 c 128,-1,41
 1180 155 1180 155 1117.5 102 c 0,42,43
 993.425 -3.2153 993.425 -3.2153 797 -18 c 1,44,-1
 787 -170 l 1,45,-1
 708 -170 l 1,46,-1
 718 -19 l 1,47,48
 661.234 -16.5319 661.234 -16.5319 628 -12 c 1,49,-1
 617 -170 l 1,50,-1
 538 -170 l 1,51,-1
 550 2 l 1,52,53
 391.571 40.1033 391.571 40.1033 307 116 c 1,0,1
688 857 m 1,54,-1
 776 819 l 1,55,-1
 810 1316 l 1,56,57
 764 1326 764 1326 720 1327 c 1,58,-1
 688 857 l 1,54,-1
641 1324 m 1,59,60
 466.372 1304.6 466.372 1304.6 409 1212.5 c 0,61,62
 390 1182 390 1182 390 1145.5 c 128,-1,63
 390 1109 390 1109 399 1077.5 c 128,-1,64
 408 1046 408 1046 432.5 1016 c 0,65,66
 479.085 958.958 479.085 958.958 611 893 c 1,67,-1
 641 1324 l 1,59,60
634 73 m 1,68,69
 675.408 65.1127 675.408 65.1127 724 63 c 1,70,-1
 755 522 l 1,71,-1
 679 548 l 2,72,73
 671 550 671 550 667 552 c 1,74,-1
 634 73 l 1,68,69
803 66 m 1,75,76
 982.174 82.2886 982.174 82.2886 1039 176.5 c 0,77,78
 1058 208 1058 208 1058 246.5 c 128,-1,79
 1058 285 1058 285 1049 316.5 c 128,-1,80
 1040 348 1040 348 1015 377 c 0,81,82
 963.238 437.044 963.238 437.044 833 491 c 1,83,-1
 803 66 l 1,75,76
EndSplineSet
EndChar

StartChar: currency
Encoding: 164 164 183
Width: 1368
Flags: HW
LayerCount: 2
Fore
SplineSet
904 263 m 1,0,1
 803.355 198 803.355 198 682.927 198 c 128,-1,2
 562.5 198 562.5 198 462 265 c 1,3,-1
 308 112 l 1,4,-1
 208 212 l 1,5,-1
 359 363 l 1,6,7
 282 472.083 282 472.083 282 601 c 256,8,9
 282 731.108 282 731.108 361 840 c 1,10,-1
 210 992 l 1,11,-1
 310 1093 l 1,12,-1
 464 938 l 1,13,14
 566.194 1004 566.194 1004 684 1004 c 256,15,16
 802.806 1004 802.806 1004 905 938 c 1,17,-1
 1060 1093 l 1,18,-1
 1160 992 l 1,19,-1
 1008 840 l 1,20,21
 1088 732.632 1088 732.632 1088 600 c 128,-1,22
 1088 467.368 1088 467.368 1008 360 c 1,23,-1
 1159 209 l 1,24,-1
 1059 108 l 1,25,-1
 904 263 l 1,0,1
423 601 m 256,26,27
 423 490.757 423 490.757 499 411.5 c 0,28,29
 574.274 333 574.274 333 684 333 c 0,30,31
 794.151 333 794.151 333 870.5 411.5 c 128,-1,32
 947 490.155 947 490.155 947 601 c 256,33,34
 947 710.845 947 710.845 870.5 789.5 c 128,-1,35
 794.151 868 794.151 868 684 868 c 0,36,37
 574.274 868 574.274 868 499 789.5 c 0,38,39
 423 710.243 423 710.243 423 601 c 256,26,27
EndSplineSet
EndChar

StartChar: copyright
Encoding: 169 169 184
Width: 2243
Flags: HW
LayerCount: 2
Fore
SplineSet
155 515 m 256,0,1
 155 783.234 155 783.234 289 1012.5 c 0,2,3
 419.127 1235.14 419.127 1235.14 642 1366 c 0,4,5
 871.922 1501 871.922 1501 1139 1501 c 256,6,7
 1404.52 1501 1404.52 1501 1635.5 1366 c 0,8,9
 1858.6 1235.6 1858.6 1235.6 1989 1012.5 c 0,10,11
 2124 781.523 2124 781.523 2124 515 c 256,12,13
 2124 247.922 2124 247.922 1989 18 c 0,14,15
 1859.03 -203.351 1859.03 -203.351 1635.5 -334 c 0,16,17
 1406.23 -468 1406.23 -468 1139 -468 c 256,18,19
 870.219 -468 870.219 -468 642 -334 c 0,20,21
 418.694 -202.884 418.694 -202.884 289 18 c 0,22,23
 155 246.219 155 246.219 155 515 c 256,0,1
261 512.5 m 0,24,25
 261 389 261 389 291.5 274 c 128,-1,26
 322 159 322 159 378.5 59.5 c 128,-1,27
 435 -40 435 -40 514.5 -122.5 c 128,-1,28
 594 -205 594 -205 691.5 -263.5 c 0,29,30
 895.667 -386 895.667 -386 1139 -386 c 256,31,32
 1383.33 -386 1383.33 -386 1587.5 -263.5 c 0,33,34
 1782.54 -146.477 1782.54 -146.477 1899.5 59.5 c 0,35,36
 2017 266.425 2017 266.425 2017 513 c 0,37,38
 2017 757.496 2017 757.496 1899.5 966.5 c 0,39,40
 1783.45 1172.92 1783.45 1172.92 1587.5 1292.5 c 0,41,42
 1383.49 1417 1383.49 1417 1139 1417 c 256,43,44
 895.513 1417 895.513 1417 691.5 1292.5 c 0,45,46
 494.023 1171.99 494.023 1171.99 378.5 966.5 c 0,47,48
 261 757.496 261 757.496 261 512.5 c 0,24,25
1206.03 1040 m 0,49,50
 1362.06 1040 1362.06 1040 1463 945 c 1,51,52
 1484 977 1484 977 1490 1023 c 1,53,-1
 1580 1023 l 1,54,-1
 1580 720 l 1,55,-1
 1490 720 l 1,56,57
 1472.3 799.663 1472.3 799.663 1401.5 856.5 c 0,58,59
 1321.16 921 1321.16 921 1232.58 921 c 128,-1,60
 1144 921 1144 921 1091.5 889.5 c 128,-1,61
 1039 858 1039 858 1004.5 802.5 c 0,62,63
 936 692.304 936 692.304 936 513 c 0,64,65
 936 235.838 936 235.838 1084.5 135.5 c 0,66,67
 1140 98 1140 98 1204 98 c 128,-1,68
 1268 98 1268 98 1308.5 112.5 c 128,-1,69
 1349 127 1349 127 1383.5 151 c 0,70,71
 1455.76 201.266 1455.76 201.266 1487 270 c 1,72,-1
 1573 219 l 1,73,74
 1516.59 65.8874 1516.59 65.8874 1339 4 c 0,75,76
 1273 -19 1273 -19 1163.5 -19 c 128,-1,77
 1054 -19 1054 -19 949.5 22.5 c 128,-1,78
 845 64 845 64 773 136 c 0,79,80
 625 284 625 284 625 513 c 0,81,82
 625 734.979 625 734.979 769.5 881.5 c 0,83,84
 925.814 1040 925.814 1040 1206.03 1040 c 0,49,50
EndSplineSet
EndChar

StartChar: registered
Encoding: 174 174 185
Width: 1695
Flags: HW
LayerCount: 2
Fore
SplineSet
842 339 m 256,0,1
 623.876 339 623.876 339 435.5 449.5 c 0,2,3
 254.08 555.919 254.08 555.919 148 738.5 c 0,4,5
 39 926.106 39 926.106 39 1146 c 256,6,7
 39 1366.35 39 1366.35 148 1555 c 0,8,9
 311.234 1837.52 311.234 1837.52 627.5 1927 c 0,10,11
 730 1956 730 1956 841.5 1956 c 128,-1,12
 953 1956 953 1956 1056 1927 c 128,-1,13
 1159 1898 1159 1898 1248 1845.5 c 128,-1,14
 1337 1793 1337 1793 1410 1719 c 128,-1,15
 1483 1645 1483 1645 1535 1555 c 0,16,17
 1644 1366.35 1644 1366.35 1644 1146 c 256,18,19
 1644 926.106 1644 926.106 1535 738.5 c 0,20,21
 1429.19 556.38 1429.19 556.38 1248 449.5 c 0,22,23
 1060.68 339 1060.68 339 842 339 c 256,0,1
842 421 m 256,24,25
 1139.57 421 1139.57 421 1344.5 634 c 0,26,27
 1548 845.512 1548 845.512 1548 1145 c 0,28,29
 1548 1445.39 1548 1445.39 1344.5 1658.5 c 0,30,31
 1215.82 1793.26 1215.82 1793.26 1033 1846.5 c 0,32,33
 942 1873 942 1873 842.5 1873 c 128,-1,34
 743 1873 743 1873 652 1846.5 c 128,-1,35
 561 1820 561 1820 482.5 1772.5 c 128,-1,36
 404 1725 404 1725 340 1658.5 c 128,-1,37
 276 1592 276 1592 230.5 1511 c 0,38,39
 136 1342.77 136 1342.77 136 1145 c 0,40,41
 136 844.375 136 844.375 340 634 c 0,42,43
 546.545 421 546.545 421 842 421 c 256,24,25
405 815 m 1,44,-1
 502 815 l 1,45,-1
 503 1499 l 1,46,-1
 419 1499 l 1,47,-1
 419 1577 l 1,48,-1
 828 1577 l 2,49,50
 1110.53 1577 1110.53 1577 1182 1431.5 c 0,51,52
 1205 1384.68 1205 1384.68 1205 1330.34 c 128,-1,53
 1205 1276 1205 1276 1189.5 1242 c 128,-1,54
 1174 1208 1174 1208 1147 1181.5 c 0,55,56
 1095.3 1130.76 1095.3 1130.76 1003 1105 c 1,57,58
 1131.42 1072.9 1131.42 1072.9 1167 936.5 c 0,59,60
 1188.62 853.609 1188.62 853.609 1210.81 830.804 c 128,-1,61
 1233 808 1233 808 1269 808 c 2,62,-1
 1294 808 l 1,63,-1
 1294 734 l 1,64,-1
 1180 734 l 2,65,66
 1081.5 734 1081.5 734 1055.25 755 c 128,-1,67
 1029 776 1029 776 1018 804 c 128,-1,68
 1007 832 1007 832 999 869 c 128,-1,69
 991 906 991 906 980 940 c 128,-1,70
 969 974 969 974 946.5 1004.5 c 0,71,72
 893.754 1076 893.754 1076 788 1076 c 2,73,-1
 676 1076 l 1,74,-1
 676 815 l 1,75,-1
 822 815 l 1,76,-1
 822 737 l 1,77,-1
 405 737 l 1,78,-1
 405 815 l 1,44,-1
819 1151 m 2,79,80
 928.367 1151 928.367 1151 980 1208.5 c 0,81,82
 1019 1251.93 1019 1251.93 1019 1302.97 c 128,-1,83
 1019 1354 1019 1354 1010 1388 c 128,-1,84
 1001 1422 1001 1422 977.5 1447 c 0,85,86
 928.62 1499 928.62 1499 809 1499 c 2,87,-1
 676 1499 l 1,88,-1
 676 1151 l 1,89,-1
 819 1151 l 2,79,80
EndSplineSet
EndChar

StartChar: section
Encoding: 167 167 186
Width: 1366
Flags: HW
LayerCount: 2
Fore
SplineSet
275 -204 m 1,0,1
 234 -249.556 234 -249.556 234 -320 c 1,2,-1
 145 -320 l 1,3,-1
 145 88 l 1,4,-1
 248 88 l 1,5,6
 287.148 -66.531 287.148 -66.531 405 -160 c 0,7,8
 527.304 -257 527.304 -257 699 -257 c 0,9,10
 924 -257 924 -257 1000.5 -152 c 0,11,12
 1026 -117 1026 -117 1026 -72 c 128,-1,13
 1026 -27 1026 -27 1012 10.5 c 128,-1,14
 998 48 998 48 957 83.5 c 0,15,16
 876.109 153.539 876.109 153.539 687.555 215.77 c 128,-1,17
 499 278 499 278 403.5 331 c 128,-1,18
 308 384 308 384 253 442.5 c 0,19,20
 156 545.673 156 545.673 156 708 c 0,21,22
 156 845.237 156 845.237 254.5 939.5 c 0,23,24
 345.471 1026.56 345.471 1026.56 506 1062 c 1,25,26
 219.325 1186.04 219.325 1186.04 171.5 1365 c 0,27,28
 156 1423 156 1423 156 1501 c 128,-1,29
 156 1579 156 1579 198.5 1650 c 128,-1,30
 241 1721 241 1721 314.5 1770 c 0,31,32
 466 1871 466 1871 690.895 1871 c 128,-1,33
 915.789 1871 915.789 1871 1032 1775 c 1,34,35
 1056.04 1807.78 1056.04 1807.78 1058 1851 c 1,36,-1
 1151 1851 l 1,37,-1
 1151 1479 l 1,38,-1
 1055 1479 l 1,39,40
 1039.83 1628.84 1039.83 1628.84 929 1712.5 c 0,41,42
 828.987 1788 828.987 1788 685 1788 c 0,43,44
 544.34 1788 544.34 1788 452.5 1739.5 c 0,45,46
 358 1689.6 358 1689.6 358 1607 c 0,47,48
 358 1508.68 358 1508.68 437.5 1442 c 0,49,50
 522.423 1370.77 522.423 1370.77 785 1263 c 1,51,52
 1027.26 1175.79 1027.26 1175.79 1127.5 1081.5 c 0,53,54
 1220 994.495 1220 994.495 1220 862 c 0,55,56
 1220 694 1220 694 1114.5 588.5 c 0,57,58
 1013.73 487.732 1013.73 487.732 841 461 c 1,59,60
 1052.81 378.63 1052.81 378.63 1139 289.5 c 0,61,62
 1220 205.739 1220 205.739 1220 91.8693 c 128,-1,63
 1220 -22 1220 -22 1177.5 -100.5 c 128,-1,64
 1135 -179 1135 -179 1064 -232.5 c 0,65,66
 921.336 -340 921.336 -340 701 -340 c 0,67,68
 499.02 -340 499.02 -340 349.5 -256 c 0,69,70
 305 -231 305 -231 275 -204 c 1,0,1
709 524 m 2,71,72
 928 524 928 524 1001.5 629 c 0,73,74
 1026 664 1026 664 1026 709 c 128,-1,75
 1026 754 1026 754 1012 791 c 128,-1,76
 998 828 998 828 957.5 863 c 0,77,78
 877.508 932.129 877.508 932.129 654 1006 c 1,79,80
 526.389 1001.95 526.389 1001.95 443 954 c 0,81,82
 358 905.125 358 905.125 358 826 c 0,83,84
 358 736.634 358 736.634 419.5 676 c 0,85,86
 487.117 609.335 487.117 609.335 683 524 c 1,87,-1
 709 524 l 2,71,72
EndSplineSet
EndChar

StartChar: Oslash
Encoding: 216 216 187
Width: 1711
Flags: HW
LayerCount: 2
Fore
SplineSet
855 -20 m 0,0,1
 573.254 -20 573.254 -20 381 130 c 1,2,-1
 266 -9 l 1,3,-1
 174 69 l 1,4,-1
 296 210 l 1,5,6
 98 427.8 98 427.8 98 767 c 0,7,8
 98 1084 98 1084 288.5 1306 c 0,9,10
 497.878 1550 497.878 1550 855 1550 c 0,11,12
 1130.09 1550 1130.09 1550 1322 1405 c 1,13,-1
 1433 1540 l 1,14,-1
 1525 1462 l 1,15,-1
 1408 1327 l 1,16,17
 1613 1106.23 1613 1106.23 1613 767 c 0,18,19
 1613 437.824 1613 437.824 1426.5 218.5 c 0,20,21
 1298.31 67.7522 1298.31 67.7522 1089 9.5 c 0,22,23
 983 -20 983 -20 855 -20 c 0,0,1
1200 1269 m 1,24,25
 1072.4 1467 1072.4 1467 855 1467 c 0,26,27
 607.44 1467 607.44 1467 486.5 1245 c 0,28,29
 382.62 1054.32 382.62 1054.32 386 767 c 0,30,31
 388.241 549.65 388.241 549.65 452 379 c 1,32,-1
 807 790 l 1,33,-1
 1200 1269 l 1,24,25
505 269 m 1,34,35
 630.391 63 630.391 63 855 63 c 0,36,37
 1087.68 63 1087.68 63 1216 296 c 0,38,39
 1325 493.921 1325 493.921 1325 767 c 0,40,41
 1325 985.514 1325 985.514 1256 1159 c 1,42,-1
 879 722 l 1,43,-1
 505 269 l 1,34,35
EndSplineSet
EndChar

StartChar: plus
Encoding: 43 43 188
Width: 1536
Flags: HW
LayerCount: 2
Fore
SplineSet
269 680 m 1,0,-1
 715 680 l 1,1,-1
 715 1149 l 1,2,-1
 819 1149 l 1,3,-1
 819 680 l 1,4,-1
 1265 680 l 1,5,-1
 1265 580 l 1,6,-1
 819 580 l 1,7,-1
 819 133 l 1,8,-1
 715 133 l 1,9,-1
 715 580 l 1,10,-1
 269 580 l 1,11,-1
 269 680 l 1,0,-1
EndSplineSet
EndChar

StartChar: plusminus
Encoding: 177 177 189
Width: 1536
Flags: HW
LayerCount: 2
Fore
SplineSet
270 100 m 1,0,-1
 716 100 l 1,1,-1
 716 580 l 1,2,-1
 270 580 l 1,3,-1
 270 680 l 1,4,-1
 716 680 l 1,5,-1
 716 1149 l 1,6,-1
 820 1149 l 1,7,-1
 820 680 l 1,8,-1
 1266 680 l 1,9,-1
 1266 580 l 1,10,-1
 820 580 l 1,11,-1
 820 100 l 1,12,-1
 1266 100 l 1,13,-1
 1266 0 l 1,14,-1
 270 0 l 1,15,-1
 270 100 l 1,0,-1
EndSplineSet
EndChar

StartChar: hyphen
Encoding: 45 45 190
Width: 1198
Flags: HW
LayerCount: 2
Fore
SplineSet
237 680 m 1,0,-1
 961 680 l 1,1,-1
 961 580 l 1,2,-1
 237 580 l 1,3,-1
 237 680 l 1,0,-1
EndSplineSet
EndChar

StartChar: equal
Encoding: 61 61 191
Width: 1536
Flags: HW
LayerCount: 2
Fore
SplineSet
270 780 m 1,0,-1
 1266 780 l 1,1,-1
 1266 680 l 1,2,-1
 270 680 l 1,3,-1
 270 780 l 1,0,-1
270 440 m 1,4,-1
 1266 440 l 1,5,-1
 1266 340 l 1,6,-1
 270 340 l 1,7,-1
 270 440 l 1,4,-1
EndSplineSet
EndChar

StartChar: multiply
Encoding: 215 215 192
Width: 1536
Flags: HW
LayerCount: 2
Fore
SplineSet
697 544 m 1,0,-1
 381 860 l 1,1,-1
 452 931 l 1,2,-1
 768 615 l 1,3,-1
 1085 931 l 1,4,-1
 1156 860 l 1,5,-1
 839 544 l 1,6,-1
 1156 228 l 1,7,-1
 1086 156 l 1,8,-1
 768 473 l 1,9,-1
 451 156 l 1,10,-1
 381 228 l 1,11,-1
 697 544 l 1,0,-1
EndSplineSet
EndChar

StartChar: divide
Encoding: 247 247 193
Width: 1536
Flags: HW
LayerCount: 2
Fore
SplineSet
767 868 m 256,0,1
 714.588 868 714.588 868 686.794 895 c 0,2,3
 640 940.457 640 940.457 640 996 c 256,4,5
 640 1050.54 640 1050.54 667 1076.77 c 0,6,7
 714.588 1123 714.588 1123 767 1123 c 256,8,9
 820 1123 820 1123 847 1096 c 0,10,11
 894 1049 894 1049 894 996 c 256,12,13
 894 911.478 894 911.478 817 878 c 0,14,15
 794 868 794 868 767 868 c 256,0,1
270 678 m 1,16,-1
 1266 678 l 1,17,-1
 1266 578 l 1,18,-1
 270 578 l 1,19,-1
 270 678 l 1,16,-1
641 255 m 256,20,21
 641 309.543 641 309.543 668 335.771 c 0,22,23
 715.588 382 715.588 382 768 382 c 256,24,25
 821 382 821 382 848 355 c 0,26,27
 895 308 895 308 895 255 c 256,28,29
 895 170.478 895 170.478 818 137 c 0,30,31
 795 127 795 127 768 127 c 256,32,33
 715.588 127 715.588 127 687.794 154 c 0,34,35
 641 199.457 641 199.457 641 255 c 256,20,21
EndSplineSet
EndChar

StartChar: endash
Encoding: 8211 8211 194
Width: 1368
Flags: HW
LayerCount: 2
Fore
SplineSet
186 681 m 1,0,-1
 1182 681 l 1,1,-1
 1182 581 l 1,2,-1
 186 581 l 1,3,-1
 186 681 l 1,0,-1
EndSplineSet
EndChar

StartChar: emdash
Encoding: 8212 8212 195
Width: 2051
Flags: HW
LayerCount: 2
Fore
SplineSet
194 680 m 1,0,-1
 1856 680 l 1,1,-1
 1856 580 l 1,2,-1
 194 580 l 1,3,-1
 194 680 l 1,0,-1
EndSplineSet
EndChar

StartChar: bar
Encoding: 124 124 196
Width: 512
Flags: HW
LayerCount: 2
Fore
SplineSet
192 1686 m 1,0,-1
 320 1686 l 1,1,-1
 320 -300 l 1,2,-1
 192 -300 l 1,3,-1
 192 1686 l 1,0,-1
EndSplineSet
EndChar

StartChar: slash
Encoding: 47 47 198
Width: 1025
Flags: HW
LayerCount: 2
Fore
SplineSet
862 1683 m 1,0,-1
 1019 1683 l 1,1,-1
 164 -554 l 1,2,-1
 6 -554 l 1,3,-1
 862 1683 l 1,0,-1
EndSplineSet
EndChar

StartChar: brokenbar
Encoding: 166 166 199
Width: 512
Flags: HW
LayerCount: 2
Fore
SplineSet
194 1684 m 1,0,-1
 322 1684 l 1,1,-1
 322 820 l 1,2,-1
 194 820 l 1,3,-1
 194 1684 l 1,0,-1
192 528 m 1,4,-1
 320 528 l 1,5,-1
 320 -300 l 1,6,-1
 192 -300 l 1,7,-1
 192 528 l 1,4,-1
EndSplineSet
EndChar

StartChar: logicalnot
Encoding: 172 172 268
Width: 1536
Flags: HW
LayerCount: 2
Fore
SplineSet
310 680 m 1,0,-1
 1179 680 l 1,1,-1
 1179 262 l 1,2,-1
 1075 262 l 1,3,-1
 1075 580 l 1,4,-1
 310 580 l 1,5,-1
 310 680 l 1,0,-1
EndSplineSet
EndChar

StartChar: underscore
Encoding: 95 95 271
Width: 1368
Flags: HW
LayerCount: 2
Fore
SplineSet
1378 -205 m 1,0,-1
 1378 -333 l 1,1,-1
 -10 -333 l 1,2,-1
 -10 -205 l 1,3,-1
 1378 -205 l 1,0,-1
EndSplineSet
EndChar

StartChar: numbersign
Encoding: 35 35 272
Width: 1707
Flags: HW
LayerCount: 2
Fore
SplineSet
458 392 m 1,0,-1
 201 392 l 1,1,-1
 201 510 l 1,2,-1
 490 510 l 1,3,-1
 595 902 l 1,4,-1
 271 902 l 1,5,-1
 271 1020 l 1,6,-1
 626 1020 l 1,7,-1
 770 1554 l 1,8,-1
 904 1521 l 1,9,-1
 769 1020 l 1,10,-1
 1074 1020 l 1,11,-1
 1218 1554 l 1,12,-1
 1352 1521 l 1,13,-1
 1217 1020 l 1,14,-1
 1506 1020 l 1,15,-1
 1506 902 l 1,16,-1
 1186 902 l 1,17,-1
 1081 510 l 1,18,-1
 1436 510 l 1,19,-1
 1436 392 l 1,20,-1
 1049 392 l 1,21,-1
 917 -102 l 1,22,-1
 783 -69 l 1,23,-1
 906 392 l 1,24,-1
 601 392 l 1,25,-1
 469 -102 l 1,26,-1
 335 -69 l 1,27,-1
 458 392 l 1,0,-1
938 510 m 1,28,-1
 1043 902 l 1,29,-1
 738 902 l 1,30,-1
 633 510 l 1,31,-1
 938 510 l 1,28,-1
EndSplineSet
EndChar

StartChar: less
Encoding: 60 60 273
Width: 1535
Flags: HW
LayerCount: 2
Fore
SplineSet
340 582 m 1,0,-1
 1159 1060 l 1,1,-1
 1159 946 l 1,2,-1
 468 545 l 1,3,-1
 1159 154 l 1,4,-1
 1159 30 l 1,5,-1
 340 508 l 1,6,-1
 340 582 l 1,0,-1
EndSplineSet
EndChar

StartChar: percent
Encoding: 37 37 275
Width: 1877
Flags: HW
LayerCount: 2
Fore
SplineSet
523 823 m 0,0,1
 454 823 454 823 395 849 c 128,-1,2
 336 875 336 875 292.5 923 c 0,3,4
 198 1027.28 198 1027.28 198 1189 c 256,5,6
 198 1351.68 198 1351.68 294 1457.5 c 0,7,8
 386.082 1559 386.082 1559 522 1559 c 0,9,10
 663.01 1559 663.01 1559 753 1457.5 c 0,11,12
 845 1353.73 845 1353.73 845 1189 c 256,13,14
 845 1024.58 845 1024.58 754 923 c 0,15,16
 664.417 823 664.417 823 523 823 c 0,0,1
522 897 m 0,17,18
 667 897 667 897 667 1189 c 0,19,20
 667 1326.91 667 1326.91 644.5 1382.45 c 128,-1,21
 622 1438 622 1438 593.5 1460.5 c 128,-1,22
 565 1483 565 1483 521.5 1483 c 128,-1,23
 478 1483 478 1483 450 1460.5 c 128,-1,24
 422 1438 422 1438 406 1398.5 c 0,25,26
 378 1329.38 378 1329.38 378 1229.69 c 128,-1,27
 378 1130 378 1130 384 1077 c 128,-1,28
 390 1024 390 1024 406 984 c 0,29,30
 440.8 897 440.8 897 522 897 c 0,17,18
1032 345 m 256,31,32
 1032 507.682 1032 507.682 1128 613.5 c 0,33,34
 1220.08 715 1220.08 715 1356 715 c 0,35,36
 1497.01 715 1497.01 715 1587 613.5 c 0,37,38
 1679 509.733 1679 509.733 1679 345 c 256,39,40
 1679 180.581 1679 180.581 1588 79 c 0,41,42
 1498.42 -21 1498.42 -21 1356 -21 c 0,43,44
 1217.12 -21 1217.12 -21 1126.5 79 c 0,45,46
 1032 183.276 1032 183.276 1032 345 c 256,31,32
1356 53 m 0,47,48
 1501 53 1501 53 1501 345 c 0,49,50
 1501 482.5 1501 482.5 1478.5 538.75 c 128,-1,51
 1456 595 1456 595 1427.5 617.5 c 128,-1,52
 1399 640 1399 640 1355.5 640 c 128,-1,53
 1312 640 1312 640 1284 617.5 c 128,-1,54
 1256 595 1256 595 1240 555 c 0,55,56
 1212 485 1212 485 1212 385.5 c 128,-1,57
 1212 286 1212 286 1218 233 c 128,-1,58
 1224 180 1224 180 1240 140 c 0,59,60
 1274.8 52.9999 1274.8 52.9999 1356 53 c 0,47,48
1436 1530 m 1,61,-1
 1535 1530 l 1,62,-1
 400 0 l 1,63,-1
 298 0 l 1,64,-1
 1436 1530 l 1,61,-1
EndSplineSet
EndChar

StartChar: mu
Encoding: 181 181 276
Width: 1366
Flags: HW
LayerCount: 2
Fore
SplineSet
830 96 m 1,0,1
 705.407 -20 705.407 -20 552 -20 c 0,2,3
 395.206 -20 395.206 -20 294 91 c 1,4,5
 348.876 -160.93 348.876 -160.93 445 -387 c 1,6,7
 451 -405 451 -405 451 -427 c 128,-1,8
 451 -449 451 -449 439.5 -474 c 128,-1,9
 428 -499 428 -499 409 -518 c 0,10,11
 367 -560 367 -560 331 -560 c 128,-1,12
 295 -560 295 -560 271.5 -553 c 128,-1,13
 248 -546 248 -546 228.5 -532 c 0,14,15
 184 -500.051 184 -500.051 184 -441 c 2,16,-1
 184 1023 l 1,17,-1
 444 1023 l 1,18,-1
 444 297 l 2,19,20
 444 76 444 76 614 76 c 0,21,22
 723.891 76 723.891 76 826 193 c 1,23,-1
 826 1023 l 1,24,-1
 1084 1023 l 1,25,-1
 1084 320 l 2,26,27
 1084 113 1084 113 1184 113 c 0,28,29
 1204.5 113 1204.5 113 1243 127 c 1,30,-1
 1266 65 l 1,31,32
 1118.37 -20 1118.37 -20 984.474 -20 c 128,-1,33
 850.581 -20 850.581 -20 830 96 c 1,0,1
EndSplineSet
EndChar

StartChar: ampersand
Encoding: 38 38 277
Width: 1708
Flags: HW
LayerCount: 2
Fore
SplineSet
1116 120 m 1,0,1
 963.826 -20 963.826 -20 740 -20 c 0,2,3
 322.348 -20 322.348 -20 190.5 204 c 0,4,5
 144 283 144 283 144 382.5 c 128,-1,6
 144 482 144 482 174 550 c 128,-1,7
 204 618 204 618 251.5 669 c 0,8,9
 340.243 764.281 340.243 764.281 476 808 c 1,10,11
 308 1012.32 308 1012.32 308 1164 c 0,12,13
 308 1338.98 308 1338.98 456.5 1441 c 0,14,15
 584.589 1529 584.589 1529 762 1529 c 0,16,17
 914.3 1529 914.3 1529 1018 1468 c 0,18,19
 1128.36 1403.08 1128.36 1403.08 1138 1297 c 1,20,21
 1142 1283 1142 1283 1142 1261.5 c 128,-1,22
 1142 1240 1142 1240 1131 1215 c 128,-1,23
 1120 1190 1120 1190 1100.5 1171 c 0,24,25
 1058.42 1130 1058.42 1130 1002 1130 c 256,26,27
 946 1130 946 1130 905 1171 c 128,-1,28
 864 1212 864 1212 864 1261 c 0,29,30
 864 1356.75 864 1356.75 945 1395 c 1,31,32
 882.818 1452 882.818 1452 758 1452 c 0,33,34
 659.641 1452 659.641 1452 601 1396.5 c 0,35,36
 543 1341.61 543 1341.61 543 1248 c 0,37,38
 543 1108.11 543 1108.11 748 866.5 c 1,39,40
 1128.11 445.026 1128.11 445.026 1191 380 c 1,41,42
 1263 542.514 1263 542.514 1263 769 c 1,43,-1
 1073 769 l 1,44,-1
 1073 847 l 1,45,-1
 1527 847 l 1,46,-1
 1527 769 l 1,47,-1
 1357 769 l 1,48,49
 1353.11 506.35 1353.11 506.35 1258 312 c 1,50,51
 1361.37 210.738 1361.37 210.738 1418.19 176.369 c 0,52,53
 1516.33 117 1516.33 117 1592 117 c 0,54,55
 1629.5 117 1629.5 117 1667 142 c 1,56,-1
 1704 91 l 1,57,58
 1614.72 -20 1614.72 -20 1445.96 -20 c 128,-1,59
 1277.21 -20 1277.21 -20 1116 120 c 1,0,1
399.5 518 m 0,60,61
 386 469 386 469 386 406 c 128,-1,62
 386 343 386 343 411 281.5 c 128,-1,63
 436 220 436 220 484.5 174.5 c 0,64,65
 590.56 75 590.56 75 765 75 c 0,66,67
 926.692 75 926.692 75 1049 181 c 1,68,69
 971 259 971 259 887.5 354.5 c 1,70,-1
 706 556 l 1,71,72
 581.283 687.168 581.283 687.168 538 736 c 1,73,74
 437.89 657.342 437.89 657.342 399.5 518 c 0,60,61
EndSplineSet
EndChar

StartChar: bullet
Encoding: 8226 8226 278
Width: 854
Flags: HW
LayerCount: 2
Fore
SplineSet
426.5 305 m 0,0,1
 376 305 376 305 332.5 323.5 c 128,-1,2
 289 342 289 342 257 374 c 0,3,4
 188 443 188 443 188 543 c 0,5,6
 188 644.422 188 644.422 257 714.5 c 0,7,8
 325.431 784 325.431 784 426 784 c 0,9,10
 528 784 528 784 597.5 714.5 c 0,11,12
 666 646 666 646 666 543 c 0,13,14
 666 441.446 666 441.446 597.5 374 c 0,15,16
 527.422 305 527.422 305 426.5 305 c 0,0,1
EndSplineSet
EndChar

StartChar: dagger
Encoding: 8224 8224 279
Width: 1197
Flags: HW
LayerCount: 2
Fore
SplineSet
557 1130 m 1,0,-1
 252 1077 l 1,1,-1
 253 1078 l 1,2,3
 242 1075 242 1075 225.5 1075 c 128,-1,4
 209 1075 209 1075 190.5 1084.5 c 128,-1,5
 172 1094 172 1094 158.5 1109 c 0,6,7
 130 1140.67 130 1140.67 130 1168.83 c 128,-1,8
 130 1197 130 1197 139 1215.5 c 128,-1,9
 148 1234 148 1234 162.5 1247.5 c 0,10,11
 194.185 1277 194.185 1277 217.093 1277 c 0,12,13
 240.5 1277 240.5 1277 268 1272 c 2,14,-1
 558 1213 l 1,15,-1
 504 1578 l 1,16,-1
 505 1576 l 1,17,18
 502 1588 502 1588 502 1604 c 128,-1,19
 502 1620 502 1620 511.5 1639 c 128,-1,20
 521 1658 521 1658 536 1671.5 c 0,21,22
 567.667 1700 567.667 1700 595.833 1700 c 128,-1,23
 624 1700 624 1700 642.5 1691 c 128,-1,24
 661 1682 661 1682 674.5 1667.5 c 0,25,26
 704 1635.81 704 1635.81 704 1612.41 c 0,27,28
 704 1587 704 1587 699 1562 c 2,29,-1
 641 1212 l 1,30,-1
 930 1272 l 2,31,32
 955 1277 955 1277 970 1277 c 128,-1,33
 985 1277 985 1277 1003 1269 c 128,-1,34
 1021 1261 1021 1261 1035 1247.5 c 0,35,36
 1067 1216.64 1067 1216.64 1067 1187.82 c 128,-1,37
 1067 1159 1067 1159 1059.5 1141.5 c 128,-1,38
 1052 1124 1052 1124 1039 1109 c 0,39,40
 1009.53 1075 1009.53 1075 966 1075 c 0,41,42
 956 1075 956 1075 944 1078 c 1,43,-1
 945 1077 l 1,44,-1
 641 1130 l 1,45,-1
 699 -90 l 2,46,47
 700 -100 700 -100 702 -108.5 c 128,-1,48
 704 -117 704 -117 704 -131 c 128,-1,49
 704 -145 704 -145 696 -163 c 128,-1,50
 688 -181 688 -181 674.5 -195.5 c 0,51,52
 644.241 -228 644.241 -228 615.121 -228 c 128,-1,53
 586 -228 586 -228 568.5 -220.5 c 128,-1,54
 551 -213 551 -213 536 -199.5 c 0,55,56
 502 -168.9 502 -168.9 502 -126 c 0,57,58
 502 -116 502 -116 505 -104 c 1,59,-1
 504 -105 l 1,60,-1
 557 1130 l 1,0,-1
EndSplineSet
EndChar

StartChar: daggerdbl
Encoding: 8225 8225 280
Width: 1197
Flags: HW
LayerCount: 2
Fore
SplineSet
252 207 m 1,0,1
 240 204 240 204 223.5 204 c 128,-1,2
 207 204 207 204 188.5 213.5 c 128,-1,3
 170 223 170 223 156.5 238 c 0,4,5
 128 269.667 128 269.667 128 297.833 c 128,-1,6
 128 326 128 326 137 344.5 c 128,-1,7
 146 363 146 363 160.5 376.5 c 0,8,9
 192.185 406 192.185 406 215.593 406 c 0,10,11
 241 406 241 406 266 401 c 2,12,-1
 556 343 l 1,13,-1
 501 732 l 1,14,-1
 556 1122 l 1,15,-1
 251 1069 l 1,16,-1
 252 1071 l 1,17,18
 241 1067 241 1067 224 1067 c 128,-1,19
 207 1067 207 1067 188.5 1076.5 c 128,-1,20
 170 1086 170 1086 156.5 1101 c 0,21,22
 128 1132.67 128 1132.67 128 1160.83 c 128,-1,23
 128 1189 128 1189 137 1208 c 128,-1,24
 146 1227 146 1227 160.5 1240.5 c 0,25,26
 192.185 1270 192.185 1270 219.093 1270 c 128,-1,27
 246 1270 246 1270 266 1264 c 1,28,-1
 556 1206 l 1,29,-1
 504 1577 l 1,30,-1
 505 1576 l 1,31,32
 501 1585 501 1585 501 1602.5 c 128,-1,33
 501 1620 501 1620 510.5 1638.5 c 128,-1,34
 520 1657 520 1657 535 1670.5 c 0,35,36
 566.667 1699 566.667 1699 595.333 1699 c 128,-1,37
 624 1699 624 1699 642.5 1690 c 128,-1,38
 661 1681 661 1681 674.5 1666.5 c 0,39,40
 704 1634.81 704 1634.81 704 1607.41 c 128,-1,41
 704 1580 704 1580 698 1561 c 1,42,-1
 640 1205 l 1,43,-1
 930 1263 l 2,44,45
 941 1265 941 1265 949.5 1267 c 128,-1,46
 958 1269 958 1269 972 1269 c 128,-1,47
 986 1269 986 1269 1003.5 1261 c 128,-1,48
 1021 1253 1021 1253 1035.5 1239.5 c 0,49,50
 1068 1209.24 1068 1209.24 1068 1179.62 c 128,-1,51
 1068 1150 1068 1150 1060.5 1132.5 c 128,-1,52
 1053 1115 1053 1115 1039.5 1100 c 0,53,54
 1008.9 1066 1008.9 1066 967 1066 c 0,55,56
 955 1066 955 1066 945 1069 c 1,57,-1
 946 1068 l 1,58,-1
 640 1123 l 1,59,-1
 704 732 l 1,60,-1
 640 341 l 1,61,-1
 930 400 l 2,62,63
 957.857 405 957.857 405 971.929 405 c 128,-1,64
 986 405 986 405 1003.5 397 c 128,-1,65
 1021 389 1021 389 1035.5 375.5 c 0,66,67
 1068 345.241 1068 345.241 1068 316.121 c 128,-1,68
 1068 287 1068 287 1060.5 269.5 c 128,-1,69
 1053 252 1053 252 1039.5 237 c 0,70,71
 1008.9 203 1008.9 203 967 203 c 0,72,73
 955 203 955 203 945 206 c 1,74,-1
 946 205 l 1,75,-1
 640 260 l 1,76,-1
 698 -96 l 1,77,78
 704 -117 704 -117 704 -134.5 c 128,-1,79
 704 -152 704 -152 696 -169.5 c 128,-1,80
 688 -187 688 -187 674.5 -201.5 c 0,81,82
 644.241 -234 644.241 -234 615.121 -234 c 128,-1,83
 586 -234 586 -234 568 -226.5 c 128,-1,84
 550 -219 550 -219 535 -205.5 c 0,85,86
 501 -174.9 501 -174.9 501 -133 c 0,87,88
 501 -122 501 -122 505 -111 c 1,89,-1
 504 -112 l 1,90,-1
 556 259 l 1,91,-1
 251 206 l 1,92,-1
 252 207 l 1,0,1
EndSplineSet
EndChar

StartChar: lozenge
Encoding: 9674 9674 281
Width: 1368
Flags: HW
LayerCount: 2
Fore
SplineSet
171 823 m 1,0,-1
 646 1647 l 1,1,-1
 721 1647 l 1,2,-1
 1196 823 l 1,3,-1
 721 -1 l 1,4,-1
 646 -1 l 1,5,-1
 171 823 l 1,0,-1
1086 823 m 1,6,-1
 681 1529 l 1,7,-1
 281 823 l 1,8,-1
 682 103 l 1,9,-1
 1086 823 l 1,6,-1
EndSplineSet
EndChar

StartChar: florin
Encoding: 402 402 282
Width: 1032
Flags: HW
LayerCount: 2
Fore
SplineSet
22 -163 m 256,0,1
 71.3548 -163 71.3548 -163 97.6774 -187 c 0,2,3
 144 -229.235 144 -229.235 144 -269.618 c 128,-1,4
 144 -310 144 -310 134.5 -332 c 128,-1,5
 125 -354 125 -354 110 -369 c 0,6,7
 80.4706 -398.529 80.4706 -398.529 38 -403 c 1,8,9
 51 -436 51 -436 92.5 -458.5 c 128,-1,10
 134 -481 134 -481 186.5 -481 c 128,-1,11
 239 -481 239 -481 266.5 -460 c 128,-1,12
 294 -439 294 -439 307.5 -399 c 0,13,14
 325.83 -344.689 325.83 -344.689 333 -175 c 2,15,-1
 383 945 l 1,16,-1
 221 945 l 1,17,-1
 225 1023 l 1,18,-1
 387 1023 l 1,19,-1
 399 1276 l 2,20,21
 408.655 1484.54 408.655 1484.54 517.5 1595.5 c 0,22,23
 620.01 1700 620.01 1700 794 1700 c 0,24,25
 945.083 1700 945.083 1700 1041.5 1622 c 0,26,27
 1135 1546.36 1135 1546.36 1135 1436 c 0,28,29
 1135 1379 1135 1379 1095.5 1339.5 c 0,30,31
 1059 1303 1059 1303 1008 1303 c 256,32,33
 958.645 1303 958.645 1303 932.323 1327 c 0,34,35
 886 1369.24 886 1369.24 886 1409.62 c 128,-1,36
 886 1450 886 1450 895.5 1472 c 128,-1,37
 905 1494 905 1494 920 1509 c 0,38,39
 949.529 1538.53 949.529 1538.53 992 1543 c 1,40,41
 968.717 1596.22 968.717 1596.22 879.5 1615 c 0,42,43
 851 1621 851 1621 811 1621 c 128,-1,44
 771 1621 771 1621 741.5 1601.5 c 128,-1,45
 712 1582 712 1582 695.5 1544 c 0,46,47
 668.64 1482.14 668.64 1482.14 662 1325 c 2,48,-1
 648 1023 l 1,49,-1
 869 1023 l 1,50,-1
 865 945 l 1,51,-1
 643 945 l 1,52,-1
 599 -51 l 2,53,54
 581.951 -445.976 581.951 -445.976 368 -532.5 c 0,55,56
 300 -560 300 -560 221.5 -560 c 128,-1,57
 143 -560 143 -560 84 -539 c 128,-1,58
 25 -518 25 -518 -17 -482 c 0,59,60
 -105 -406.571 -105 -406.571 -105 -296 c 0,61,62
 -105 -239 -105 -239 -65.5 -199.5 c 0,63,64
 -29 -163 -29 -163 22 -163 c 256,0,1
EndSplineSet
EndChar

StartChar: perthousand
Encoding: 8240 8240 283
Width: 2565
Flags: HW
LayerCount: 2
Fore
SplineSet
563 823 m 0,0,1
 494 823 494 823 435 849 c 128,-1,2
 376 875 376 875 332.5 923 c 0,3,4
 238 1027.28 238 1027.28 238 1189 c 256,5,6
 238 1351.68 238 1351.68 334 1457.5 c 0,7,8
 426.082 1559 426.082 1559 562 1559 c 0,9,10
 703.01 1559 703.01 1559 793 1457.5 c 0,11,12
 885 1353.73 885 1353.73 885 1189 c 256,13,14
 885 1024.58 885 1024.58 794 923 c 0,15,16
 704.417 823 704.417 823 563 823 c 0,0,1
562 897 m 0,17,18
 707 897 707 897 707 1189 c 0,19,20
 707 1326.91 707 1326.91 684.5 1382.45 c 128,-1,21
 662 1438 662 1438 633.5 1460.5 c 128,-1,22
 605 1483 605 1483 561.5 1483 c 128,-1,23
 518 1483 518 1483 490 1460.5 c 128,-1,24
 462 1438 462 1438 446 1398.5 c 0,25,26
 418 1329.38 418 1329.38 418 1229.69 c 128,-1,27
 418 1130 418 1130 424 1077 c 128,-1,28
 430 1024 430 1024 446 984 c 0,29,30
 480.8 897 480.8 897 562 897 c 0,17,18
1698 345 m 256,31,32
 1698 507.682 1698 507.682 1794 613.5 c 0,33,34
 1886.08 715 1886.08 715 2022 715 c 0,35,36
 2163.01 715 2163.01 715 2253 613.5 c 0,37,38
 2345 509.733 2345 509.733 2345 345 c 256,39,40
 2345 180.581 2345 180.581 2254 79 c 0,41,42
 2164.42 -20.9999 2164.42 -20.9999 2022 -21 c 0,43,44
 1883.12 -21 1883.12 -21 1792.5 79 c 0,45,46
 1698 183.276 1698 183.276 1698 345 c 256,31,32
929 345 m 256,47,48
 929 507.682 929 507.682 1025 613.5 c 0,49,50
 1117.08 715 1117.08 715 1253 715 c 0,51,52
 1394.01 715 1394.01 715 1484 613.5 c 0,53,54
 1576 509.733 1576 509.733 1576 345 c 256,55,56
 1576 180.581 1576 180.581 1485 79 c 0,57,58
 1395.42 -21 1395.42 -21 1253 -21 c 0,59,60
 1114.12 -21 1114.12 -21 1023.5 79 c 0,61,62
 929 183.276 929 183.276 929 345 c 256,47,48
2022 53 m 0,63,64
 2167 53 2167 53 2167 345 c 0,65,66
 2167 482.5 2167 482.5 2144.5 538.75 c 128,-1,67
 2122 595 2122 595 2093.5 617.5 c 128,-1,68
 2065 640 2065 640 2021.5 640 c 128,-1,69
 1978 640 1978 640 1950 617.5 c 128,-1,70
 1922 595 1922 595 1906 555 c 0,71,72
 1878 485 1878 485 1878 385.5 c 128,-1,73
 1878 286 1878 286 1884 233 c 128,-1,74
 1890 180 1890 180 1906 140 c 0,75,76
 1940.8 52.9999 1940.8 52.9999 2022 53 c 0,63,64
1253 53 m 0,77,78
 1398 53 1398 53 1398 345 c 0,79,80
 1398 482.5 1398 482.5 1375.5 538.75 c 128,-1,81
 1353 595 1353 595 1324.5 617.5 c 128,-1,82
 1296 640 1296 640 1252.5 640 c 128,-1,83
 1209 640 1209 640 1181 617.5 c 128,-1,84
 1153 595 1153 595 1137 555 c 0,85,86
 1109 485 1109 485 1109 385.5 c 128,-1,87
 1109 286 1109 286 1115 233 c 128,-1,88
 1121 180 1121 180 1137 140 c 0,89,90
 1171.8 52.9999 1171.8 52.9999 1253 53 c 0,77,78
1410 1530 m 1,91,-1
 1509 1530 l 1,92,-1
 374 0 l 1,93,-1
 272 0 l 1,94,-1
 1410 1530 l 1,91,-1
EndSplineSet
EndChar

StartChar: trademark
Encoding: 8482 8482 284
Width: 2051
Flags: HW
LayerCount: 2
Fore
SplineSet
946 912 m 1,0,-1
 1024 912 l 1,1,-1
 1024 1464 l 1,2,-1
 946 1464 l 1,3,-1
 946 1529 l 1,4,-1
 1229 1529 l 1,5,-1
 1423 1092 l 1,6,-1
 1615 1529 l 1,7,-1
 1879 1529 l 1,8,-1
 1879 1474 l 1,9,-1
 1799 1474 l 1,10,-1
 1799 912 l 1,11,-1
 1877 912 l 1,12,-1
 1877 856 l 1,13,-1
 1562 856 l 1,14,-1
 1562 912 l 1,15,-1
 1627 912 l 1,16,-1
 1627 1361 l 1,17,-1
 1418 866 l 1,18,-1
 1347 866 l 1,19,-1
 1109 1389 l 1,20,-1
 1109 912 l 1,21,-1
 1188 912 l 1,22,-1
 1188 856 l 1,23,-1
 946 856 l 1,24,-1
 946 912 l 1,0,-1
323 912 m 1,25,-1
 425 912 l 1,26,-1
 426 1470 l 1,27,-1
 376 1470 l 2,28,29
 290.595 1470 290.595 1470 261 1433.5 c 0,30,31
 236.365 1403.12 236.365 1403.12 232 1318 c 1,32,-1
 171 1318 l 1,33,-1
 171 1529 l 1,34,-1
 850 1529 l 1,35,-1
 850 1318 l 1,36,-1
 789 1318 l 1,37,38
 784.649 1400.67 784.649 1400.67 765.825 1425.33 c 0,39,40
 733.194 1468.09 733.194 1468.09 653 1470 c 1,41,-1
 596 1470 l 1,42,-1
 596 912 l 1,43,-1
 699 912 l 1,44,-1
 699 856 l 1,45,-1
 323 856 l 1,46,-1
 323 912 l 1,25,-1
EndSplineSet
EndChar

StartChar: fraction
Encoding: 8260 8260 285
Width: 1707
Flags: HW
LayerCount: 2
Fore
SplineSet
1373 1530 m 1,0,-1
 1472 1530 l 1,1,-1
 337 0 l 1,2,-1
 235 0 l 1,3,-1
 1373 1530 l 1,0,-1
EndSplineSet
EndChar

StartChar: minus
Encoding: 8722 8722 286
Width: 1198
Flags: HW
LayerCount: 2
Fore
SplineSet
237 680 m 1,0,-1
 961 680 l 1,1,-1
 961 580 l 1,2,-1
 237 580 l 1,3,-1
 237 680 l 1,0,-1
EndSplineSet
EndChar

StartChar: commaaccent.cap
Encoding: 65549 -1 312
Width: 801
Flags: HW
LayerCount: 2
Fore
SplineSet
232 -289 m 128,-1,1
 221 -265 221 -265 221 -237.5 c 128,-1,2
 221 -210 221 -210 231.5 -185.5 c 128,-1,3
 242 -161 242 -161 260 -143 c 0,4,5
 299 -104 299 -104 340 -104 c 128,-1,6
 381 -104 381 -104 406.5 -114.5 c 128,-1,7
 432 -125 432 -125 450.5 -145.5 c 0,8,9
 491 -190.378 491 -190.378 491 -262 c 0,10,11
 491 -483.71 491 -483.71 270 -556 c 1,12,-1
 230 -502 l 1,13,14
 309.074 -483.752 309.074 -483.752 350.5 -412.5 c 0,15,16
 363 -391 363 -391 368 -368 c 1,17,18
 362 -369 362 -369 357 -369 c 2,19,-1
 349 -369 l 2,20,21
 299 -369 299 -369 271 -341 c 128,-1,0
 243 -313 243 -313 232 -289 c 128,-1,1
EndSplineSet
EndChar

StartChar: cedilla.cap
Encoding: 65550 -1 337
Width: 869
Flags: HW
LayerCount: 2
Fore
SplineSet
673 -332 m 0,0,1
 673 -247 673 -247 527 -247 c 0,2,3
 503 -247 503 -247 458 -252 c 1,4,-1
 513 17 l 1,5,-1
 586 14 l 1,6,-1
 559 -127 l 1,7,8
 568 -126 568 -126 577 -126 c 2,9,-1
 596 -126 l 2,10,11
 763.484 -126 763.484 -126 825.5 -207 c 0,12,13
 850 -239 850 -239 850 -286 c 128,-1,14
 850 -333 850 -333 829 -369 c 128,-1,15
 808 -405 808 -405 773 -434.5 c 128,-1,16
 738 -464 738 -464 692 -486.5 c 128,-1,17
 646 -509 646 -509 595 -524.5 c 0,18,19
 494.645 -555 494.645 -555 394 -555 c 1,20,-1
 386 -500 l 1,21,22
 560.054 -486.946 560.054 -486.946 643 -404 c 0,23,24
 673 -374 673 -374 673 -332 c 0,0,1
EndSplineSet
EndChar

StartChar: infinity
Encoding: 8734 8734 359
Width: 1707
Flags: HW
LayerCount: 2
Fore
SplineSet
539 186 m 256,0,1
 406.612 186 406.612 186 317.5 291.5 c 0,2,3
 222 404.563 222 404.563 222 587 c 0,4,5
 222 749.816 222 749.816 329 859 c 0,6,7
 431.9 964 431.9 964 582 964 c 0,8,9
 747.96 964 747.96 964 856 793.5 c 0,10,11
 888 743 888 743 917 687 c 1,12,13
 981.525 869.187 981.525 869.187 1128 937 c 0,14,15
 1182 962 1182 962 1248.5 962 c 128,-1,16
 1315 962 1315 962 1372 937 c 128,-1,17
 1429 912 1429 912 1472 865 c 0,18,19
 1565 763.349 1565 763.349 1565 595 c 0,20,21
 1565 427.545 1565 427.545 1461.5 311.5 c 0,22,23
 1353.14 190 1353.14 190 1191 190 c 0,24,25
 1042.11 190 1042.11 190 929.5 329.5 c 0,26,27
 896 371 896 371 867 417 c 1,28,29
 789.325 261.651 789.325 261.651 654 207 c 0,30,31
 602 186 602 186 539 186 c 256,0,1
561 328 m 256,32,33
 705.797 328 705.797 328 780.5 430.5 c 0,34,35
 802 460 802 460 822 491 c 1,36,-1
 772 587 l 2,37,38
 708.079 708.23 708.079 708.23 667.039 750.615 c 0,39,40
 593.079 827 593.079 827 519 827 c 0,41,42
 436 827 436 827 382 765 c 0,43,44
 323 697.259 323 697.259 323 579 c 0,45,46
 323 478.867 323 478.867 385 405.5 c 0,47,48
 450.493 328 450.493 328 561 328 c 256,32,33
961 598 m 1,49,50
 1029.45 468.19 1029.45 468.19 1076.22 420.095 c 0,51,52
 1164.82 329 1164.82 329 1248 329 c 0,53,54
 1347.54 329 1347.54 329 1408 408.5 c 0,55,56
 1463 480.815 1463 480.815 1463 580 c 0,57,58
 1463 747.381 1463 747.381 1333 800 c 0,59,60
 1291 817 1291 817 1243 817 c 128,-1,61
 1195 817 1195 817 1156 804 c 128,-1,62
 1117 791 1117 791 1081 764 c 0,63,64
 1004.97 706.981 1004.97 706.981 961 598 c 1,49,50
EndSplineSet
EndChar

StartChar: lessequal
Encoding: 8804 8804 360
Width: 1535
Flags: HW
LayerCount: 2
Fore
SplineSet
340 800 m 1,0,-1
 1159 1227 l 1,1,-1
 1159 1111 l 1,2,-1
 481 761 l 1,3,-1
 1159 413 l 1,4,-1
 1159 307 l 1,5,-1
 340 726 l 1,6,-1
 340 800 l 1,0,-1
340 100 m 1,7,-1
 1161 100 l 1,8,-1
 1161 0 l 1,9,-1
 340 0 l 1,10,-1
 340 100 l 1,7,-1
EndSplineSet
EndChar

StartChar: partialdiff
Encoding: 8706 8706 361
Width: 1363
Flags: HW
LayerCount: 2
Fore
SplineSet
522 1382 m 1,0,1
 501.449 1346.94 501.449 1346.94 496 1287 c 1,2,-1
 348 1296 l 1,3,4
 371.705 1386.87 371.705 1386.87 449 1457.5 c 0,5,6
 550.226 1550 550.226 1550 712 1550 c 0,7,8
 886.34 1550 886.34 1550 1007 1445.5 c 0,9,10
 1109.25 1356.94 1109.25 1356.94 1165 1197.5 c 0,11,12
 1212 1063.08 1212 1063.08 1212 904.54 c 128,-1,13
 1212 746 1212 746 1186.5 617 c 128,-1,14
 1161 488 1161 488 1115.5 385 c 128,-1,15
 1070 282 1070 282 1006.5 206 c 128,-1,16
 943 130 943 130 867 80 c 0,17,18
 715 -20 715 -20 528 -20 c 0,19,20
 363 -20 363 -20 257 86 c 0,21,22
 144 199 144 199 144 389 c 0,23,24
 144 672.267 144 672.267 311.5 826.5 c 0,25,26
 458.656 962 458.656 962 669 962 c 0,27,28
 802.524 962 802.524 962 915.5 897 c 0,29,30
 952 876 952 876 978 848 c 1,31,32
 982 920 982 920 982 981 c 128,-1,33
 982 1042 982 1042 977.5 1100.5 c 128,-1,34
 973 1159 973 1159 961.5 1213 c 128,-1,35
 950 1267 950 1267 930.5 1314.5 c 128,-1,36
 911 1362 911 1362 881 1397 c 0,37,38
 816.714 1472 816.714 1472 715 1472 c 0,39,40
 574.941 1472 574.941 1472 522 1382 c 1,41,42
 561 1368 561 1368 586 1334 c 128,-1,43
 611 1300 611 1300 611 1263.5 c 128,-1,44
 611 1227 611 1227 600.5 1202.5 c 128,-1,45
 590 1178 590 1178 571.5 1160 c 0,46,47
 531.417 1121 531.417 1121 476 1121 c 256,48,49
 420 1121 420 1121 381 1160 c 128,-1,50
 342 1199 342 1199 342 1255 c 256,51,52
 342 1310.42 342 1310.42 381 1350.5 c 0,53,54
 419.432 1390 419.432 1390 476 1390 c 0,55,56
 498 1390 498 1390 522 1382 c 1,0,1
969 735 m 1,57,58
 869 875 869 875 715 875 c 0,59,60
 550.702 875 550.702 875 474 720.5 c 0,61,62
 411 593.6 411 593.6 411 366 c 0,63,64
 411 160.94 411 160.94 508.5 94 c 0,65,66
 542 71 542 71 596 71 c 128,-1,67
 650 71 650 71 699.5 98 c 128,-1,68
 749 125 749 125 788.5 172.5 c 128,-1,69
 828 220 828 220 858 284 c 128,-1,70
 888 348 888 348 910 422 c 0,71,72
 951.408 561.283 951.408 561.283 969 735 c 1,57,58
EndSplineSet
EndChar

StartChar: Delta
Encoding: 8710 8710 364
Width: 1613
Flags: HW
LayerCount: 2
Fore
SplineSet
115 79 m 1,0,-1
 716 1530 l 1,1,-1
 837 1530 l 1,2,-1
 1449 79 l 1,3,-1
 1449 0 l 1,4,-1
 115 0 l 1,5,-1
 115 79 l 1,0,-1
1169 78 m 1,6,-1
 695 1242 l 1,7,-1
 216 78 l 1,8,-1
 1169 78 l 1,6,-1
EndSplineSet
EndChar

StartChar: integral
Encoding: 8747 8747 365
Width: 1198
Flags: HW
LayerCount: 2
Fore
SplineSet
1010 1538 m 1,0,1
 977.303 1621 977.303 1621 898 1621 c 0,2,3
 807.652 1621 807.652 1621 771.5 1538.5 c 0,4,5
 734 1452.92 734 1452.92 734 1235 c 1,6,-1
 724 -6 l 1,7,8
 724 -444.603 724 -444.603 485 -533 c 0,9,10
 412 -560 412 -560 336 -560 c 128,-1,11
 260 -560 260 -560 204 -539 c 128,-1,12
 148 -518 148 -518 107.5 -482 c 0,13,14
 22 -406 22 -406 22 -296 c 0,15,16
 22 -239 22 -239 61.5 -199.5 c 0,17,18
 98 -163 98 -163 149 -163 c 256,19,20
 198.355 -163 198.355 -163 224.677 -187 c 0,21,22
 271 -229.235 271 -229.235 271 -280.118 c 128,-1,23
 271 -331 271 -331 245 -363 c 128,-1,24
 219 -395 219 -395 181 -400 c 1,25,26
 194 -433 194 -433 226 -457 c 128,-1,27
 258 -481 258 -481 303.5 -481 c 128,-1,28
 349 -481 349 -481 379 -465 c 128,-1,29
 409 -449 409 -449 428 -402.5 c 0,30,31
 463 -316.842 463 -316.842 463 -55 c 1,32,-1
 473 1186 l 1,33,34
 473 1590.66 473 1590.66 713 1674.5 c 0,35,36
 786 1700 786 1700 862.5 1700 c 128,-1,37
 939 1700 939 1700 994 1679 c 128,-1,38
 1049 1658 1049 1658 1089.5 1622 c 0,39,40
 1175 1546 1175 1546 1175 1436 c 0,41,42
 1175 1379 1175 1379 1135.5 1339.5 c 0,43,44
 1099 1303 1099 1303 1048 1303 c 256,45,46
 998.645 1303 998.645 1303 972.323 1327 c 0,47,48
 926 1369.24 926 1369.24 926 1409.62 c 128,-1,49
 926 1450 926 1450 935.5 1471.5 c 128,-1,50
 945 1493 945 1493 958.5 1507.5 c 0,51,52
 984.231 1535.14 984.231 1535.14 1010 1538 c 1,0,1
EndSplineSet
EndChar

StartChar: radical
Encoding: 8730 8730 366
Width: 1707
Flags: HW
LayerCount: 2
Fore
SplineSet
308 873 m 1,0,-1
 110 873 l 1,1,-1
 110 951 l 1,2,-1
 536 951 l 1,3,-1
 834 225 l 1,4,-1
 1533 1842 l 1,5,-1
 1623 1842 l 1,6,-1
 787 -116 l 1,7,-1
 712 -116 l 1,8,-1
 308 873 l 1,0,-1
EndSplineSet
EndChar

StartChar: Omega
Encoding: 8486 8486 367
Width: 1877
Flags: HW
LayerCount: 2
Fore
SplineSet
1489 205 m 2,0,1
 1596.95 205 1596.95 205 1628 368 c 1,2,-1
 1704 368 l 1,3,-1
 1704 0 l 1,4,-1
 1026 0 l 1,5,-1
 1026 79 l 1,6,-1
 1138.5 209 l 1,7,8
 1303.5 398.025 1303.5 398.025 1355 541.5 c 0,9,10
 1397 658.5 1397 658.5 1397 805.75 c 128,-1,11
 1397 953 1397 953 1372.5 1071.5 c 128,-1,12
 1348 1190 1348 1190 1294 1278.5 c 0,13,14
 1177.15 1470 1177.15 1470 945 1470 c 0,15,16
 714.684 1470 714.684 1470 600 1278.5 c 0,17,18
 500 1111.52 500 1111.52 500 820 c 0,19,20
 500 590.71 500 590.71 594 430 c 0,21,22
 651.697 331.357 651.697 331.357 730.848 240.679 c 2,23,-1
 871 79 l 1,24,-1
 871 0 l 1,25,-1
 173 0 l 1,26,-1
 173 368 l 1,27,-1
 249 368 l 1,28,29
 280.048 205 280.048 205 388 205 c 2,30,-1
 668 205 l 1,31,32
 458.91 338.419 458.91 338.419 340 522 c 0,33,34
 222 704.175 222 704.175 222 882 c 0,35,36
 222 1129.92 222 1129.92 406 1329 c 0,37,38
 532.58 1465.95 532.58 1465.95 726.5 1521.5 c 0,39,40
 826 1550 826 1550 946.5 1550 c 128,-1,41
 1067 1550 1067 1550 1168.5 1521.5 c 128,-1,42
 1270 1493 1270 1493 1351 1444 c 128,-1,43
 1432 1395 1432 1395 1493 1329 c 128,-1,44
 1554 1263 1554 1263 1594.5 1189 c 0,45,46
 1675 1041.91 1675 1041.91 1675 882 c 0,47,48
 1675 705.458 1675 705.458 1552 522 c 0,49,50
 1429.54 339.342 1429.54 339.342 1219 205 c 1,51,-1
 1489 205 l 2,0,1
EndSplineSet
EndChar

StartChar: pi
Encoding: 960 960 368
Width: 1533
Flags: HW
LayerCount: 2
Fore
SplineSet
1353 33 m 1,0,1
 1272.52 -20 1272.52 -20 1154 -20 c 0,2,3
 952.561 -20 952.561 -20 883.5 152 c 0,4,5
 857 218 857 218 857 322 c 2,6,-1
 857 884 l 1,7,-1
 510 884 l 1,8,-1
 510 252 l 2,9,10
 510 118 510 118 448.5 49 c 128,-1,11
 387 -20 387 -20 274 -20 c 0,12,13
 179.656 -20 179.656 -20 120 63 c 1,14,15
 93 95 93 95 93 128.5 c 128,-1,16
 93 162 93 162 102 183.5 c 128,-1,17
 111 205 111 205 127 221 c 0,18,19
 162 256 162 256 198.5 256 c 128,-1,20
 235 256 235 256 256.5 246.5 c 128,-1,21
 278 237 278 237 294 221 c 0,22,23
 328 187 328 187 328 143.136 c 128,-1,24
 328 99.2727 328 99.2727 305 70 c 1,25,26
 369 68 369 68 395.5 116 c 128,-1,27
 422 164 422 164 422 268 c 2,28,-1
 422 884 l 1,29,-1
 331 884 l 2,30,31
 247.8 884 247.8 884 226 829.5 c 0,32,33
 217 807 217 807 217 783.5 c 128,-1,34
 217 760 217 760 214 745 c 1,35,-1
 150 744 l 1,36,37
 130 834 130 834 130 875 c 128,-1,38
 130 916 130 916 144.5 945.5 c 128,-1,39
 159 975 159 975 188 992 c 0,40,41
 239.176 1022 239.176 1022 362 1022 c 2,42,-1
 1358 1022 l 1,43,-1
 1358 884 l 1,44,-1
 1112 884 l 1,45,-1
 1112 259 l 2,46,47
 1112 159 1112 159 1141 113 c 128,-1,48
 1170 67 1170 67 1223 67 c 128,-1,49
 1276 67 1276 67 1316 97 c 1,50,-1
 1353 33 l 1,0,1
EndSplineSet
EndChar

StartChar: product
Encoding: 8719 8719 369
Width: 1709
Flags: HW
LayerCount: 2
Fore
SplineSet
93 78 m 1,0,-1
 252 78 l 1,1,-1
 253 1452 l 1,2,-1
 93 1452 l 1,3,-1
 93 1530 l 1,4,-1
 1614 1530 l 1,5,-1
 1614 1452 l 1,6,-1
 1456 1452 l 1,7,-1
 1456 78 l 1,8,-1
 1616 78 l 1,9,-1
 1616 0 l 1,10,-1
 1020 0 l 1,11,-1
 1020 78 l 1,12,-1
 1186 78 l 1,13,-1
 1187 1452 l 1,14,-1
 522 1452 l 1,15,-1
 522 78 l 1,16,-1
 687 78 l 1,17,-1
 687 0 l 1,18,-1
 93 0 l 1,19,-1
 93 78 l 1,0,-1
EndSplineSet
EndChar

StartChar: summation
Encoding: 8721 8721 370
Width: 1707
Flags: HW
LayerCount: 2
Fore
SplineSet
1142 215 m 2,0,1
 1249.95 215 1249.95 215 1281 378 c 1,2,-1
 1357 378 l 1,3,-1
 1357 0 l 1,4,-1
 192 0 l 1,5,-1
 192 65 l 1,6,-1
 693 686 l 1,7,-1
 184 1433 l 1,8,-1
 184 1530 l 1,9,-1
 1351 1530 l 1,10,-1
 1351 1259 l 1,11,-1
 1275 1259 l 1,12,13
 1251.48 1453 1251.48 1453 1136 1453 c 2,14,-1
 500 1453 l 1,15,-1
 917 840 l 1,16,-1
 419 215 l 1,17,-1
 1142 215 l 2,0,1
EndSplineSet
EndChar

StartChar: onesuperior
Encoding: 185 185 371
Width: 854
Flags: HW
LayerCount: 2
Fore
SplineSet
205 1022 m 1,0,-1
 323 1022 l 1,1,-1
 323 1617 l 1,2,-1
 210 1619 l 1,3,-1
 210 1673 l 1,4,-1
 509 1683 l 1,5,-1
 509 1022 l 1,6,-1
 642 1022 l 1,7,-1
 642 963 l 1,8,-1
 205 963 l 1,9,-1
 205 1022 l 1,0,-1
EndSplineSet
EndChar

StartChar: twosuperior
Encoding: 178 178 372
Width: 854
Flags: HW
LayerCount: 2
Fore
SplineSet
610 1102 m 2,0,1
 651.889 1102 651.889 1102 667 1170 c 1,2,-1
 719 1170 l 1,3,-1
 719 963 l 1,4,-1
 153 963 l 1,5,-1
 153 1018 l 1,6,-1
 274 1118 l 2,7,8
 508 1311.14 508 1311.14 508 1485 c 0,9,10
 508 1593.4 508 1593.4 423 1624 c 0,11,12
 398 1633 398 1633 372.5 1633 c 0,13,14
 316.545 1633 316.545 1633 282 1613 c 1,15,16
 328 1594.6 328 1594.6 328 1543 c 0,17,18
 328 1486.48 328 1486.48 279.5 1461.5 c 0,19,20
 263 1453 263 1453 239.5 1453 c 128,-1,21
 216 1453 216 1453 198 1460.5 c 128,-1,22
 180 1468 180 1468 169 1480.5 c 0,23,24
 147 1505.5 147 1505.5 147 1543.25 c 128,-1,25
 147 1581 147 1581 173 1611 c 128,-1,26
 199 1641 199 1641 237 1659.5 c 0,27,28
 307.865 1694 307.865 1694 382.432 1694 c 128,-1,29
 457 1694 457 1694 508 1683 c 128,-1,30
 559 1672 559 1672 598 1646.5 c 0,31,32
 683 1590.92 683 1590.92 683 1476 c 0,33,34
 683 1344 683 1344 483.5 1201.5 c 0,35,36
 417 1154 417 1154 330 1102 c 1,37,-1
 610 1102 l 2,0,1
EndSplineSet
EndChar

StartChar: threesuperior
Encoding: 179 179 373
Width: 854
Flags: HW
LayerCount: 2
Fore
SplineSet
283 1615 m 1,0,1
 326 1596.3 326 1596.3 326 1539 c 0,2,3
 326 1488.53 326 1488.53 277 1462.5 c 0,4,5
 261 1454 261 1454 237.5 1454 c 128,-1,6
 214 1454 214 1454 195.5 1464 c 128,-1,7
 177 1474 177 1474 165.5 1488.5 c 0,8,9
 145 1514.35 145 1514.35 145 1551.67 c 128,-1,10
 145 1589 145 1589 169.5 1617.5 c 128,-1,11
 194 1646 194 1646 232 1663 c 0,12,13
 301.294 1694 301.294 1694 389.647 1694 c 128,-1,14
 478 1694 478 1694 527 1681.5 c 128,-1,15
 576 1669 576 1669 608 1646.5 c 0,16,17
 672 1601.5 672 1601.5 672 1535.25 c 0,18,19
 672 1411.42 672 1411.42 521 1354 c 1,20,21
 601.229 1349.89 601.229 1349.89 656.5 1304 c 0,22,23
 714 1256.26 714 1256.26 714 1180 c 0,24,25
 714 1092.25 714 1092.25 635.5 1027 c 0,26,27
 550.078 956 550.078 956 410 956 c 0,28,29
 219.933 956 219.933 956 148 1039 c 0,30,31
 122 1069 122 1069 122 1096.5 c 128,-1,32
 122 1124 122 1124 127 1138.5 c 128,-1,33
 132 1153 132 1153 143 1166 c 0,34,35
 169.231 1197 169.231 1197 203.615 1197 c 128,-1,36
 238 1197 238 1197 254 1188.5 c 128,-1,37
 270 1180 270 1180 281 1167 c 0,38,39
 303 1141 303 1141 303 1100.21 c 128,-1,40
 303 1059.42 303 1059.42 266 1038 c 1,41,42
 312.75 1021 312.75 1021 356.875 1021 c 128,-1,43
 401 1021 401 1021 433 1032.5 c 128,-1,44
 465 1044 465 1044 489.5 1065 c 0,45,46
 545 1112.57 545 1112.57 545 1175 c 0,47,48
 545 1262.71 545 1262.71 443.5 1295.5 c 0,49,50
 411 1306 411 1306 370 1306 c 128,-1,51
 329 1306 329 1306 286 1296 c 1,52,-1
 285 1350 l 1,53,54
 454.452 1360.76 454.452 1360.76 495 1469.5 c 0,55,56
 506 1499 506 1499 506 1537.5 c 128,-1,57
 506 1576 506 1576 469 1605 c 128,-1,58
 432 1634 432 1634 392 1634 c 0,59,60
 319.417 1634 319.417 1634 283 1615 c 1,0,1
EndSplineSet
EndChar

StartChar: onequarter
Encoding: 188 188 374
Width: 1712
Flags: HW
LayerCount: 2
Fore
SplineSet
893 238 m 1,0,-1
 1245 719 l 1,1,-1
 1405 719 l 1,2,-1
 1405 238 l 1,3,-1
 1542 238 l 1,4,-1
 1510 174 l 1,5,-1
 1404 174 l 1,6,-1
 1404 58 l 1,7,-1
 1522 58 l 1,8,-1
 1522 -1 l 1,9,-1
 1085 -1 l 1,10,-1
 1085 58 l 1,11,-1
 1218 58 l 1,12,-1
 1218 174 l 1,13,-1
 893 174 l 1,14,-1
 893 238 l 1,0,-1
1218 238 m 1,15,-1
 1218 571 l 1,16,-1
 975 238 l 1,17,-1
 1218 238 l 1,15,-1
231 889 m 1,18,-1
 349 889 l 1,19,-1
 349 1484 l 1,20,-1
 236 1486 l 1,21,-1
 236 1540 l 1,22,-1
 535 1550 l 1,23,-1
 535 889 l 1,24,-1
 668 889 l 1,25,-1
 668 830 l 1,26,-1
 231 830 l 1,27,-1
 231 889 l 1,18,-1
1377 1530 m 1,28,-1
 1476 1530 l 1,29,-1
 341 0 l 1,30,-1
 239 0 l 1,31,-1
 1377 1530 l 1,28,-1
EndSplineSet
EndChar

StartChar: threequarters
Encoding: 190 190 376
Width: 1712
Flags: HW
LayerCount: 2
Fore
SplineSet
893 238 m 1,0,-1
 1245 719 l 1,1,-1
 1405 719 l 1,2,-1
 1405 238 l 1,3,-1
 1542 238 l 1,4,-1
 1510 174 l 1,5,-1
 1404 174 l 1,6,-1
 1404 58 l 1,7,-1
 1522 58 l 1,8,-1
 1522 -1 l 1,9,-1
 1085 -1 l 1,10,-1
 1085 58 l 1,11,-1
 1218 58 l 1,12,-1
 1218 174 l 1,13,-1
 893 174 l 1,14,-1
 893 238 l 1,0,-1
1218 238 m 1,15,-1
 1218 571 l 1,16,-1
 975 238 l 1,17,-1
 1218 238 l 1,15,-1
317 1466 m 1,18,19
 360 1447.3 360 1447.3 360 1390 c 0,20,21
 360 1339.53 360 1339.53 311 1313.5 c 0,22,23
 295 1305 295 1305 271.5 1305 c 128,-1,24
 248 1305 248 1305 229.5 1315 c 128,-1,25
 211 1325 211 1325 199.5 1339.5 c 0,26,27
 179 1365.35 179 1365.35 179 1402.67 c 128,-1,28
 179 1440 179 1440 203.5 1468.5 c 128,-1,29
 228 1497 228 1497 266 1514 c 0,30,31
 335.294 1545 335.294 1545 423.647 1545 c 128,-1,32
 512 1545 512 1545 561 1532.5 c 128,-1,33
 610 1520 610 1520 642 1497.5 c 0,34,35
 706 1452.5 706 1452.5 706 1386.25 c 0,36,37
 706 1262.42 706 1262.42 555 1205 c 1,38,39
 635.229 1200.89 635.229 1200.89 690.5 1155 c 0,40,41
 748 1107.26 748 1107.26 748 1031 c 0,42,43
 748 943.247 748 943.247 669.5 878 c 0,44,45
 584.078 807 584.078 807 444 807 c 0,46,47
 253.933 807 253.933 807 182 890 c 0,48,49
 156 920 156 920 156 947.5 c 128,-1,50
 156 975 156 975 161 989.5 c 128,-1,51
 166 1004 166 1004 177 1017 c 0,52,53
 203.231 1048 203.231 1048 237.615 1048 c 128,-1,54
 272 1048 272 1048 288 1039.5 c 128,-1,55
 304 1031 304 1031 315 1018 c 0,56,57
 337 992 337 992 337 951.211 c 128,-1,58
 337 910.421 337 910.421 300 889 c 1,59,60
 346.75 872 346.75 872 390.875 872 c 128,-1,61
 435 872 435 872 467 883.5 c 128,-1,62
 499 895 499 895 523.5 916 c 0,63,64
 579 963.571 579 963.571 579 1026 c 0,65,66
 579 1113.71 579 1113.71 477.5 1146.5 c 0,67,68
 445 1157 445 1157 404 1157 c 128,-1,69
 363 1157 363 1157 320 1147 c 1,70,-1
 319 1201 l 1,71,72
 488.452 1211.76 488.452 1211.76 529 1320.5 c 0,73,74
 540 1350 540 1350 540 1388.5 c 128,-1,75
 540 1427 540 1427 503 1456 c 128,-1,76
 466 1485 466 1485 426 1485 c 0,77,78
 353.417 1485 353.417 1485 317 1466 c 1,18,19
1377 1530 m 1,79,-1
 1476 1530 l 1,80,-1
 341 0 l 1,81,-1
 239 0 l 1,82,-1
 1377 1530 l 1,79,-1
EndSplineSet
EndChar

StartChar: asciicircum
Encoding: 94 94 377
Width: 1707
Flags: HW
LayerCount: 2
Fore
SplineSet
816 1527 m 1,0,-1
 891 1527 l 1,1,-1
 1364 543 l 1,2,-1
 1245 543 l 1,3,-1
 850 1389 l 1,4,-1
 460 543 l 1,5,-1
 341 543 l 1,6,-1
 816 1527 l 1,0,-1
EndSplineSet
EndChar

StartChar: idieresis
Encoding: 239 239 381
Width: 683
Flags: HW
LayerCount: 2
Fore
SplineSet
580 1253.5 m 128,-1,1
 557 1244 557 1244 531.5 1244 c 128,-1,2
 506 1244 506 1244 484 1253.5 c 128,-1,3
 462 1263 462 1263 445 1279 c 0,4,5
 409 1312.88 409 1312.88 409 1351.44 c 128,-1,6
 409 1390 409 1390 418.5 1412.5 c 128,-1,7
 428 1435 428 1435 445 1451.5 c 0,8,9
 481.576 1487 481.576 1487 519.288 1487 c 128,-1,10
 557 1487 557 1487 580 1477.5 c 128,-1,11
 603 1468 603 1468 619.5 1451.5 c 0,12,13
 656 1415 656 1415 656 1377 c 128,-1,14
 656 1339 656 1339 646 1317 c 128,-1,15
 636 1295 636 1295 619.5 1279 c 128,-1,0
 603 1263 603 1263 580 1253.5 c 128,-1,1
218 1253.5 m 128,-1,17
 195 1244 195 1244 169.5 1244 c 128,-1,18
 144 1244 144 1244 122 1253.5 c 128,-1,19
 100 1263 100 1263 83 1279 c 0,20,21
 47 1312.88 47 1312.88 47 1351.44 c 128,-1,22
 47 1390 47 1390 56.5 1412.5 c 128,-1,23
 66 1435 66 1435 83 1451.5 c 0,24,25
 119.576 1487 119.576 1487 157.288 1487 c 128,-1,26
 195 1487 195 1487 218 1477.5 c 128,-1,27
 241 1468 241 1468 257.5 1451.5 c 0,28,29
 294 1415 294 1415 294 1377 c 128,-1,30
 294 1339 294 1339 284 1317 c 128,-1,31
 274 1295 274 1295 257.5 1279 c 128,-1,16
 241 1263 241 1263 218 1253.5 c 128,-1,17
61 78 m 1,32,-1
 223 78 l 1,33,-1
 223 945 l 1,34,-1
 75 945 l 1,35,-1
 75 1023 l 1,36,-1
 488 1023 l 1,37,-1
 488 78 l 1,38,-1
 650 78 l 1,39,-1
 650 0 l 1,40,-1
 61 0 l 1,41,-1
 61 78 l 1,32,-1
EndSplineSet
EndChar

StartChar: itilde
Encoding: 297 297 384
Width: 683
Flags: HW
LayerCount: 2
Fore
SplineSet
675 1475 m 1,0,1
 563.556 1239 563.556 1239 414 1239 c 0,2,3
 371.41 1239 371.41 1239 317.705 1274.5 c 128,-1,4
 264 1310 264 1310 236 1326 c 128,-1,5
 208 1342 208 1342 174.5 1342 c 0,6,7
 120.1 1342 120.1 1342 40 1253 c 1,8,-1
 -6 1286 l 1,9,10
 49.6757 1386.22 49.6757 1386.22 88.8378 1429.11 c 0,11,12
 169.087 1517 169.087 1517 250 1517 c 0,13,14
 293.917 1517 293.917 1517 346.958 1483.5 c 2,15,-1
 426 1434.5 l 2,16,17
 452 1419 452 1419 479.5 1419 c 128,-1,18
 507 1419 507 1419 530 1426 c 128,-1,19
 553 1433 553 1433 570.5 1445 c 0,20,21
 598.489 1464.19 598.489 1464.19 628 1506 c 1,22,-1
 675 1475 l 1,0,1
61 78 m 1,23,-1
 223 78 l 1,24,-1
 223 945 l 1,25,-1
 75 945 l 1,26,-1
 75 1023 l 1,27,-1
 488 1023 l 1,28,-1
 488 78 l 1,29,-1
 650 78 l 1,30,-1
 650 0 l 1,31,-1
 61 0 l 1,32,-1
 61 78 l 1,23,-1
EndSplineSet
EndChar

StartChar: Dcroat
Encoding: 272 272 391
Width: 1707
Flags: HW
LayerCount: 2
Fore
SplineSet
143 78 m 1,0,-1
 292 78 l 1,1,-1
 292 735 l 1,2,-1
 158 735 l 1,3,-1
 158 813 l 1,4,-1
 292 813 l 1,5,-1
 292 1452 l 1,6,-1
 143 1452 l 1,7,-1
 143 1530 l 1,8,-1
 771 1530 l 2,9,10
 1368.37 1530 1368.37 1530 1541.5 1144.5 c 0,11,12
 1611 989.747 1611 989.747 1611 777 c 0,13,14
 1611 480.902 1611 480.902 1454 275 c 0,15,16
 1325.66 106.683 1325.66 106.683 1068 36.5 c 0,17,18
 934 0 934 0 753 0 c 2,19,-1
 143 0 l 1,20,-1
 143 78 l 1,0,-1
733 78 m 2,21,22
 1051.69 78 1051.69 78 1186.5 239 c 0,23,24
 1319 397.237 1319 397.237 1319 768 c 2,25,-1
 1319 801 l 1,26,27
 1310.53 1315.09 1310.53 1315.09 972.5 1418.5 c 0,28,29
 863 1452 863 1452 724 1452 c 2,30,-1
 561 1452 l 1,31,-1
 561 813 l 1,32,-1
 988 813 l 1,33,-1
 988 735 l 1,34,-1
 561 735 l 1,35,-1
 561 78 l 1,36,-1
 733 78 l 2,21,22
EndSplineSet
EndChar

StartChar: sterling
Encoding: 163 163 425
Width: 1367
Flags: HW
LayerCount: 2
Fore
SplineSet
596 624 m 0,0,1
 596 434.545 596 434.545 411 300 c 1,2,3
 487 300 487 300 557.5 282 c 128,-1,4
 628 264 628 264 696 243 c 128,-1,5
 764 222 764 222 832 204 c 128,-1,6
 900 186 900 186 952 186 c 128,-1,7
 1004 186 1004 186 1038 208.5 c 128,-1,8
 1072 231 1072 231 1101.5 260.5 c 128,-1,9
 1131 290 1131 290 1153.5 319.5 c 2,10,-1
 1187 363 l 1,11,-1
 1250 316 l 1,12,-1
 1211.5 250 l 2,13,14
 1053.45 -22 1053.45 -22 901 -22 c 0,15,16
 820 -22 820 -22 747 2 c 128,-1,17
 674 26 674 26 604 55 c 128,-1,18
 534 84 534 84 465 108 c 128,-1,19
 396 132 396 132 346 132 c 128,-1,20
 296 132 296 132 269 117 c 128,-1,21
 242 102 242 102 215 79.5 c 128,-1,22
 188 57 188 57 162.5 29.5 c 2,23,-1
 115 -22 l 1,24,-1
 56 23 l 1,25,26
 101.419 96.1744 101.419 96.1744 182 171 c 1,27,28
 356.26 373.366 356.26 373.366 343 559 c 0,29,30
 335.278 660.924 335.278 660.924 318 772 c 1,31,-1
 114 772 l 1,32,-1
 114 850 l 1,33,-1
 305 850 l 1,34,35
 284.562 993.062 284.562 993.062 285.281 1111.03 c 128,-1,36
 286 1229 286 1229 322 1308.5 c 128,-1,37
 358 1388 358 1388 419.5 1440.5 c 0,38,39
 541.914 1545 541.914 1545 743 1545 c 0,40,41
 903.167 1545 903.167 1545 1005 1467 c 0,42,43
 1104 1391.17 1104 1391.17 1104 1281 c 0,44,45
 1104 1224 1104 1224 1064.5 1184.5 c 0,46,47
 1028 1148 1028 1148 977 1148 c 256,48,49
 927.645 1148 927.645 1148 901.323 1172 c 0,50,51
 855 1214.24 855 1214.24 855 1254.62 c 128,-1,52
 855 1295 855 1295 864.5 1317 c 128,-1,53
 874 1339 874 1339 889 1354 c 0,54,55
 918.529 1383.53 918.529 1383.53 961 1388 c 1,56,57
 945 1421 945 1421 892.5 1443.5 c 128,-1,58
 840 1466 840 1466 769 1466 c 0,59,60
 540.127 1466 540.127 1466 545 1120 c 0,61,62
 546.24 1033.22 546.24 1033.22 574 850 c 1,63,-1
 898 850 l 1,64,-1
 898 772 l 1,65,-1
 585 772 l 1,66,67
 596 690.6 596 690.6 596 624 c 0,0,1
EndSplineSet
EndChar
